/* XPM */
static char *arbol_2_resized[] = {
/* columns rows colors chars-per-pixel */
"64 64 132 2 ",
"   c None",
".  c #221A1E",
"X  c #360B24",
"o  c #3B0E27",
"O  c #3C0E28",
"+  c #221E24",
"@  c #291C2B",
"#  c #311424",
"$  c #232226",
"%  c #24242B",
"&  c #262B2D",
"*  c #29322D",
"=  c #2E3C2D",
"-  c #262C33",
";  c #273236",
":  c #283334",
">  c #2A3A35",
",  c #27333A",
"<  c #28353B",
"1  c #2A3B3B",
"2  c #42112A",
"3  c #4A152E",
"4  c #4E1731",
"5  c #441930",
"6  c #4D1B32",
"7  c #541B33",
"8  c #5A1D36",
"9  c #5C1E38",
"0  c #40222F",
"q  c #5E2037",
"w  c #5F2038",
"e  c #64223B",
"r  c #6B263E",
"t  c #6C283D",
"y  c #32412B",
"u  c #2C4233",
"i  c #2C413D",
"p  c #2E4B3B",
"a  c #364C31",
"s  c #30463A",
"d  c #334A39",
"f  c #345038",
"g  c #385439",
"h  c #385A3E",
"j  c #3D603B",
"k  c #2A3D43",
"l  c #493446",
"z  c #6D2641",
"x  c #762A44",
"c  c #792C44",
"v  c #7D2D48",
"b  c #7B3044",
"n  c #7F3048",
"m  c #2B4345",
"M  c #2E4B45",
"N  c #2B4549",
"B  c #2D4C4B",
"V  c #304B44",
"C  c #304F48",
"Z  c #2F5145",
"A  c #2F524C",
"S  c #335445",
"D  c #355A45",
"F  c #395C43",
"G  c #31544A",
"H  c #335B4B",
"J  c #2E5351",
"K  c #325C52",
"L  c #346345",
"P  c #3C6444",
"I  c #3E6947",
"U  c #35634D",
"Y  c #39644B",
"T  c #366B4E",
"R  c #3B6B4C",
"E  c #3F7147",
"W  c #37714F",
"Q  c #3B744E",
"!  c #3C7C4E",
"~  c #346451",
"^  c #386650",
"/  c #366C50",
"(  c #386D50",
")  c #377150",
"_  c #387350",
"`  c #3A7950",
"'  c #416E44",
"]  c #437446",
"[  c #447A46",
"{  c #487E45",
"}  c #41744B",
"|  c #427B4B",
" . c #487F4A",
".. c #802F47",
"X. c #833546",
"o. c #883847",
"O. c #853349",
"+. c #8A364C",
"@. c #8C394B",
"#. c #933D4D",
"$. c #963D50",
"%. c #94404C",
"&. c #9A424F",
"*. c #9C4251",
"=. c #A34555",
"-. c #A64954",
";. c #AA4B56",
":. c #AC4B58",
">. c #B14E59",
",. c #AF5057",
"<. c #B15256",
"1. c #B45259",
"2. c #BA565A",
"3. c #BE595B",
"4. c #C35D5C",
"5. c #C6615C",
"6. c #CA635E",
"7. c #D36960",
"8. c #3E814E",
"9. c #468247",
"0. c #498747",
"q. c #4D8D47",
"w. c #43844C",
"e. c #488449",
"r. c #46894B",
"t. c #4A8D49",
"y. c #4E9347",
"u. c #4C9148",
"i. c #519646",
"p. c #549945",
"a. c #589E43",
"s. c #5AA143",
/* pixels */
"                                m H U H A Z m                                                                                   ",
"                                M T Q 8.w.` T G S                                                                               ",
"                                m U ~ _ t.u.8.8.9.m                                       F G H K ~ ~ H A                       ",
"                                m ` r._ / ! r.8.q.E U U H                         p U M G 9.! w.r.u.w.` _ U                     ",
"                                  H r.t.r.Q ! w.r.r.w.w./ m                     1 ! y.Q t.r.w.i.r.Q _ ) K m                     ",
"                                  m ^ ` w.r.r.w.u.! w.w.Q M                 : % D 8.u.8.t.8.r.| W ` ! ! H                       ",
"                                    Y 9.! _ ! 8.y.w.8.r.w.M M             : A m | y.w.` w.w.w.u.u.w.| ^ B                       ",
"                                    m R r.e.r.r.r.y.8.y.0.U W Z         - F R H y.i.8.r.r.8.` ` Q Q Q G                         ",
"                                      V } Q 8.8.8.i.r.y.u.R w.R         < | ( } y.y.r.y.` t.r.r.w.} Y                           ",
"                                    - M T w.8.8.8.w.p.w.t.Q t.}       $ m 0.Q q.r.u.r.8.` w.w.} Y N                             ",
"                  B U A     ; > *   1 / ! w.w.w.8.8.u.w.r.w.q.R       1 R r.! u.r.u.8.w.r.e.0.} m                               ",
"                B W r.Q U B B ^ F ; $ 1 T ` 8.w.w.8.w.y.u.! r.R %   1 B | p.w.s.i.8.8.r.0.w.( J N                               ",
"        m H } E w.! y.Q ` 0.Y G K R m + p ) ) ) 8.r.u.t.r.r.r.S 1 , P /  .u.u.u.r.u.t.w.Y H G m                                 ",
"      A / ! 8.w.t.r.` ` r.t.t. .K K ^ , $ L r.e.Q ` 8.8.r.i.r.H Y m R q.r.r.p.w.w.w.| ` Y k                                     ",
"  Z U ! r.p.t.r.8.y.y.r.r.r.t.w.t.| } H ; j ` ` w.w.y.w.t.i.w. .} B Y u.w.i.w.w.r.r.w.w.I *       - : :                         ",
"  U 8.8.w.! Q r.r.w.w.r.u.u.t.y.q.p.q.q.Y G I } w.! 8.8.w.u.w.q.G Y { u.i.p.8.8.8.8._ _ } d + & V R ^ G k M H B                 ",
"B _ ` _ ) Q i.t.w.` w.8.w.t.! 8.r.r.u.u.u.} G G ^ } q.t.y.s.t.| C ] ` r.a.u.t.e.| } } F > & i R Y ~ / ^ R _ w.Q B               ",
"m A U ! w.u.8.` ` 9.! ` p.r.8.u.u.8.w.w.! r.i.[ ' J K ( | a.p.( G | r.q.t.` ( K R V , ; % i K ~ / 9.u.t.r.) u.w.U P F           ",
"      U L R { ] } ` w.r.r.r.r.| 8.y.w.! r.q.R G } F K ~ ` t.y.~ C } w.q.| | ^ ^ C k N k S ^ / | u.r.p.u.r.` ` r.u.u.w.U         ",
"                ; i U ( ( Y C H } Q W e.e.^ J k C ^ ' ' | r.t.K N } 9.} Y J G K ^ k m Y K | i.i.u.t.i.u.y.y.u.u.8.w.w.! T G     ",
"                  $ M H V - % i K B H L Y ' ' C F ' C G B ~ Q B C K G J Y Y ' ' } V Y K ~ w.r.i.w.w.u.w.r.r.w.r.8.w.y.u.w.` A   ",
"                    % $ +     ; B H W r.y.a.r.| ] F G H m B U k N B C K { ] R ( ~ H | G G w.` u.u.` r.w.` y.r.8.t.8.) ! e.w.W m ",
"                          $ + ; H e.y.i.8.u.Q U K ' H S < k k - k N B g s C | a.y.e.q.| R Q Q ` r.r.w.i.w.w.t./ Q u.r._ ) ` Q M ",
"                    % ; k < > ' } ` r.y.8.8.` m B ^ D R 1 , k - < k - k J J | w.u.a.r.q.i.u.Q ( / ` | w.i.t.w.9.e.Q r.w.` U W A ",
"                  1 B G G m C G Y ! u.t.t.t.w.Z , K B A N - - - % @ - k k k K ` 8.i.i.w.r.r.` ` F H ~ ) 8.F G H U R G U T A m m ",
"              A T Q ( Q  .F B T w.r.u.w.` w.r.R < < k B k + - % % % - , , , ~ ` t.w.r.i.t.u.t.w.~ m B H ) Z       m             ",
"            G e.t.t.r.( R B T r.r.w.t.w.r.| ^ | A + , N m % % % $ & - - + + H 8.u.` 8.r.u.r.r.t.r.| U m k ;                     ",
"            H r.w.` w.r.[ P t.w.8.u.p.8.` | H ^ R % - k m @ % % $ & - @ % $ 1 r.r.` u.8.i.p.r.8.! Q e.Q m                       ",
"          D w.t.r.r.i.9.G 9.Q W t.u.r.u.` T ' J } 1     l 5 + + $ $ 0     % k | Q w.t.8.y.y.r.r.r.Q _ / B                       ",
"          Q w.w.w.u.w.Y U Q S 0.8.u.8.8.r.K D d k ;     e x 6 # 6 6 7       < | ~ 9.` r.r.8.r.w.t.r.! A                         ",
"        H Q r.r.8.8.) B U M E r.8.u.w.` w.I J 1 % %     9 7 3 e z 2 2 9     % H K | W r.8.8.r.u.r.u.r.Q H                       ",
"      m W r.r._ r.w.~ k - p r.w.8.u.r.w./ Q H m %       z O e x 7 7 c r       - 1 1 H ! r.r.8.t.r.8.w.e.w.U                     ",
"      A 8.t.T ! y.) B % : T | 8.8.t.! u.Q H G : .       e x z $.e 9 v             % G  .w.r.` 8.y.8.8.r.r.~ B                   ",
"      G 8.R p r.0.B < $ L L L 8.t.w._ ! 9.] 1 m         e $.:.4.@.%.-.            % B Y } | w.w.r.y.w.8.~ B N                   ",
"      H ` i S [ u % % & W A Q w.p.8.! W R R y $         e 1.;.1.1.4.#.            % V J ' ^ 9.Q 8.r.w.r.R                       ",
"      i h & u         & Z M Q i.r.8.w.Q Y H &           e +.;.1.=.$.#.3           % N < a R } ) u.8.r.8.e.f                     ",
"                        % > w.w.t.E r.r.G H &           e 3.;.v 5.6.*.              %   $ C ' K r./ r.w._ >                     ",
"                          1 H _ t.! T r.U C =           9 O.;.6.@.@.o.                    1 ' H | A } r.T :                     ",
"                          & B A | w.D T  .1             z 2.=.;.>.6.;.4                   & 1 H Q N C ^ 1 +                     ",
"                            1 < H | A i Y ;             9 O.:.6.=.#.X.7                     % < B , k J &                       ",
"                              . < K M $ 1               z 3.;.c 3.6.2.e                       % - - 1 k                         ",
"                                  1 m                   8 @.-.3.*.#.O.                            % %                           ",
"                                                        z ;.:.1.=.2.3.z                                                         ",
"                                                        q &.;.6.;.-.v 2                                                         ",
"                                                        b ,.-.@.:.1.,.e                                                         ",
"                                                        q ;.;.*.<.<.X.3                                                         ",
"                                                        e z -.6.@.v -.q                                                         ",
"                                                        o.4.;.v 4.6.#.3                                                         ",
"                                                      7 @.o.:.4.&.%.&.9                                                         ",
"                                                        $.1.:.:.=.2.=.e                                                         ",
"                                                        o.#.:.6.;.=.%.4                                                         ",
"                                                      3 *.:.;.O.1.1.;.r                                                         ",
"                                                        t ;.-.-.;.;.&.q                                                         ",
"                                                      b #.*.=.3.*.=.5.o.                                                        ",
"                                                      4 o.2.=.3.<.3.*.q                                                         ",
"                                                      @.$.=.;.-.-.&.6.@.                                                        ",
"                                                      9 #.6.;.+.4.4.*.e                                                         ",
"                                                      O.+.O.=.6.@.@.6.@.                                                        ",
"                                                      e &.4.=.:.>.4.$.z                                                         ",
"                                                      v O.$.:.4.=.$.6.O.                                                        ",
"                                                      e =.7.;.x 4.6.:.t                                                         ",
"                                                      O v +.$.2.#.#.#.O                                                         ",
"                                                        c w ..+.v x 2                                                           ",
"                                                          2 7 w 3 X                                                             "
};
