/* XPM */
static char *salida_pendiente_resized[] = {
/* columns rows colors chars-per-pixel */
"32 32 35 1 ",
"  c None",
". c #D44848",
"X c #D54949",
"o c #E24B4B",
"O c #E24D4D",
"+ c #E24F4F",
"@ c #EB4E4E",
"# c #EA5050",
"$ c #EB5050",
"% c #EA5151",
"& c #C66E6E",
"* c #CF7070",
"= c #E07171",
"- c #818181",
"; c #999999",
": c #B9B9B9",
"> c #BBBBBB",
", c #BBBCBC",
"< c #BCBCBC",
"1 c #E78282",
"2 c #DDB0B0",
"3 c #E6A7A7",
"4 c #C6C6C6",
"5 c #D2D2D2",
"6 c #D7D7D7",
"7 c #DAD4D4",
"8 c #D9D9D9",
"9 c #D9DADA",
"0 c #DBDBDB",
"q c #E0DEDE",
"w c #E2DFDF",
"e c #E1E1E1",
"r c #E2E2E2",
"t c #F4F6F6",
"y c #F4F7F7",
/* pixels */
"                                ",
"           tyq                  ",
"           32*                  ",
"           %+X$#                ",
"           $OX$####             ",
"           $OX$######           ",
"           $OX$########         ",
"           $OX$##########       ",
"           $OX$############     ",
"           $OX$##########       ",
"           $OX$#######          ",
"           $OX$####             ",
"           @o.$#                ",
"           1=&                  ",
"           w7,                  ",
"           r9,                  ",
"           r8>                  ",
"           r8>                  ",
"           r8>                  ",
"           r8>                  ",
"           r8>                  ",
"           r8>                  ",
"           r8>                  ",
"           r8>                  ",
"           r8>                  ",
"           r8>                  ",
"           r8<                  ",
"           e8:                  ",
"           60;                  ",
"           45-                  ",
"                                ",
"                                "
};
