/* XPM */
static char *fruta_3_resized[] = {
/* columns rows colors chars-per-pixel */
"32 32 130 2 ",
"   c None",
".  c #4D1F00",
"X  c #532200",
"o  c #5A2600",
"O  c #5C2B00",
"+  c #5E3300",
"@  c #563B02",
"#  c #622B00",
"$  c #682E00",
"%  c #663200",
"&  c #6C3000",
"*  c #643B00",
"=  c #6B3B00",
"-  c #743500",
";  c #7C3A00",
":  c #595B00",
">  c #55570D",
",  c #5D4F1C",
"<  c #694100",
"1  c #714700",
"2  c #7A5700",
"3  c #7D5A00",
"4  c #5D7400",
"5  c #666E0D",
"6  c #706B02",
"7  c #6B7100",
"8  c #647B01",
"9  c #657308",
"0  c #68710D",
"q  c #7F7E00",
"w  c #786312",
"e  c #74631F",
"r  c #76691E",
"t  c #7A6C1F",
"y  c #747B11",
"u  c #79711B",
"i  c #7D6A24",
"p  c #843E00",
"a  c #8C4300",
"s  c #834800",
"d  c #8A4F00",
"f  c #934600",
"g  c #964B00",
"h  c #994A00",
"j  c #995D00",
"k  c #A04D00",
"l  c #A55200",
"z  c #AA5300",
"x  c #A25800",
"c  c #BE5E00",
"v  c #896900",
"b  c #8B720F",
"n  c #927400",
"m  c #937A00",
"M  c #9B7F00",
"N  c #87721F",
"B  c #917713",
"V  c #A26400",
"C  c #AC6A00",
"Z  c #B96100",
"A  c #B36800",
"S  c #816F24",
"D  c #C56300",
"F  c #CC6500",
"G  c #C56900",
"H  c #CD6C00",
"J  c #D46A00",
"K  c #DD6F00",
"L  c #CF7A00",
"P  c #D57300",
"I  c #DE7100",
"U  c #E17300",
"Y  c #E57A00",
"T  c #EB7B00",
"R  c #F17F00",
"E  c #678100",
"W  c #6C8700",
"Q  c #6E8900",
"!  c #769300",
"~  c #7A9204",
"^  c #7D9D00",
"/  c #7FA000",
"(  c #A08400",
")  c #AD9100",
"_  c #B49B00",
"`  c #83A400",
"'  c #86A801",
"]  c #8AAD00",
"[  c #9EA100",
"{  c #9AAF00",
"}  c #8BB000",
"|  c #95B100",
" . c #92B800",
".. c #A5A700",
"X. c #BAA600",
"o. c #A1B900",
"O. c #CE8600",
"+. c #EF8300",
"@. c #E48B00",
"#. c #E88900",
"$. c #F58500",
"%. c #FA8700",
"&. c #F48C00",
"*. c #FE8A00",
"=. c #E39500",
"-. c #F39700",
";. c #FF9300",
":. c #FF9B00",
">. c #C0A600",
",. c #C4AB00",
"<. c #CCB400",
"1. c #CCBB00",
"2. c #DEBC00",
"3. c #ECA100",
"4. c #E3AA00",
"5. c #FFA400",
"6. c #FFAC00",
"7. c #EEB000",
"8. c #EAB800",
"9. c #FFB100",
"0. c #FFBE00",
"q. c #D6C500",
"w. c #D9C100",
"e. c #FFC400",
"r. c #F2CC00",
"t. c #FECD00",
"y. c #EDD300",
"u. c #F3D500",
"i. c #FCD300",
"p. c #FDDB00",
/* pixels */
"                                                                ",
"                                            Q 4                 ",
"                                            ! ! 8         B b   ",
"                            * * * *         E ` W 4     S N w   ",
"                    + 2 ( _ <.q.q.1.X.( 3 + : ` W 8 > i i ,     ",
"                * n <.y.p.i.t.t.t.i.p.p.u.,.Q } Q 9 e i ,       ",
"            O v <.i.e.9.6.6.6.6.6.6.6.6.6.4.[ ' 0 t i           ",
"          * ) r.e.6.6.6.6.6.6.6.5.:.:.@.C j 6 y u y 8 E 8       ",
"        < >.t.9.6.6.9.6.:.:.:.;.;.*.+.H Z a @ 5 ~ ! / ^ / ! 8   ",
"      * ,.e.6.6.6.6.5.;.:.:.*.*.*.*.*.%.*.$.x 7  .} } ] / ` ` 8 ",
"    + _ t.6.6.6.5.:.*.;.5.5.;.*.*.*.*.*.;.*.$.d m ..{ o.| ] ` E ",
"    n u.9.6.6.6.;.*.*.*.;.:.;.*.*.*.*.*.;.*.*.H A -.#.@.V @     ",
"  < w.0.6.6.5.;.*.*.*.;.*.*.*.*.%.$.%.*.*.%.*.$.P ;.*.*.Y -     ",
"  m i.6.6.5.*.:.;.*.:.5.:.*.*.*.$.$.*.*.*.;.*.*.%.%.*.*.*.l     ",
"O >.e.6.5.;.*.;.;.*.6.6.6.*.*.*.*.*.*.*.&.L P %.%.%.*.*.*.P #   ",
"* 2.9.6.6.:.*.*.*.*.:.5.:.*.;.*.*.*.*.*.$.G G %.*.*.*.*.%.+.;   ",
"< 8.6.5.:.:.*.*.;.*.*.*.*.*.;.*.%.*.*.*.%.+.$.*.*.*.$.%.%.%.g   ",
"1 7.6.:.*.*.*.*.;.*.*.*.*.*.*.*.%.$.*.*.%.*.*.%.$.*.T *.*.%.h   ",
"= 3.6.;.*.*.*.*.*.*.*.*.*.%.*.*.*.*.*.*.*.*.*.*.$.*.*.*.*.%.h   ",
"% =.6.;.*.*.&.$.$.*.;.;.*.*.*.*.*.*.%.*.*.*.*.*.*.*.*.*.*.$.g   ",
"# O.5.;.*.*.%.+.$.*.;.;.*.*.*.*.*.%.+.%.*.*.*.*.$.$.%.$.%.U a   ",
"X C :.*.*.*.*.%.%.*.*.*.*.*.*.T %.*.%.%.$.*.*.*.Y Y %.$.Y J ;   ",
"  s $.%.*.*.*.*.*.*.*.%.*.*.T G P *.*.*.%.*.*.*.*.*.*.T U D #   ",
"  % H *.*.*.*.*.*.*.*.%.*.*.%.P +.*.*.*.*.*.*.*.*.*.T K U k X   ",
"    a $.*.*.*.*.$.T *.*.*.*.*.*.*.*.%.$.*.:.*.*.$.T K U F -     ",
"    O D *.*.*.*.$.$.%.%.*.*.*.*.*.*.$.I %.;.;.R U K K K h X     ",
"      a I %.%.%.*.$.T $.*.*.$.$.*.%.*.*.*.$.T K K K K z O       ",
"        f J T %.*.*.%.*.*.*.$.%.*.*.*.R T U K K K K k #         ",
"        X p D U T T $.%.%.%.*.R R T U U K K U K D a o           ",
"          p c J K K U U U U U U K K K K K J c f $ X             ",
"            p h a f z c F F F J F D c z f - o X                 ",
"                      # # - ; ; $ # # o .                       "
};
