/* XPM */
static char *result[] = {
/* columns rows colors chars-per-pixel */
"64 64 192 2 ",
"   c #333937",
".  c #4A1E2B",
"X  c #4F202D",
"o  c #55232F",
"O  c #5A272F",
"+  c #5B2531",
"@  c #5B2631",
"#  c #593238",
"$  c #632B33",
"%  c #6F2F39",
"&  c #6D2F37",
"*  c #712F39",
"=  c #69363C",
"-  c #75333A",
";  c #7B363C",
":  c #7D3A3D",
">  c #723337",
",  c #15453F",
"<  c #174B3E",
"1  c #184E3E",
"2  c #1A543D",
"3  c #1C5B3D",
"4  c #16513E",
"5  c #225B3D",
"6  c #24563E",
"7  c #1E623C",
"8  c #23633C",
"9  c #2A643B",
"0  c #246B3B",
"q  c #2B6D39",
"w  c #306C3B",
"e  c #2D7A37",
"r  c #2C7339",
"t  c #2E7938",
"y  c #25703A",
"u  c #347737",
"i  c #347C36",
"p  c #397D35",
"a  c #32763B",
"s  c #337B3A",
"d  c #3D7E3B",
"f  c #43793F",
"g  c #5B643D",
"h  c #504340",
"j  c #4B7A41",
"k  c #823A3E",
"l  c #8A423F",
"z  c #87413F",
"x  c #8A3E41",
"c  c #8C4241",
"v  c #944544",
"b  c #9B4747",
"n  c #964944",
"m  c #9B4B46",
"M  c #9C5345",
"N  c #A44D4A",
"B  c #A04F47",
"V  c #A15446",
"C  c #A65449",
"Z  c #AA544C",
"A  c #AC5B4A",
"S  c #A65C47",
"D  c #B15D4D",
"F  c #AE6149",
"G  c #B4634D",
"H  c #BA664F",
"J  c #BB6A4E",
"K  c #B66D4B",
"L  c #BF704E",
"P  c #BE6A50",
"I  c #BC6750",
"U  c #C2724F",
"Y  c #C36E51",
"T  c #C57351",
"R  c #CE7A53",
"E  c #CB7653",
"W  c #D27E55",
"Q  c #368235",
"!  c #3B8435",
"~  c #3E8C33",
"^  c #3A8139",
"/  c #45942F",
"(  c #47982D",
")  c #4A9B2D",
"_  c #509D2F",
"`  c #408634",
"'  c #418D34",
"]  c #43823B",
"[  c #438B38",
"{  c #498C39",
"}  c #538A3E",
"|  c #449232",
" . c #4B9335",
".. c #4D9A33",
"X. c #47913C",
"o. c #4F943C",
"O. c #4C9A3A",
"+. c #519737",
"@. c #549B36",
"#. c #5A9E35",
"$. c #54943B",
"%. c #59953E",
"&. c #5C9C3B",
"*. c #549C3C",
"=. c #4EA12A",
"-. c #51A527",
";. c #53A62A",
":. c #56AA2D",
">. c #5AA92D",
",. c #54A434",
"<. c #5DA434",
"1. c #5BAD34",
"2. c #54A23A",
"3. c #5EA23D",
"4. c #5CAD3A",
"5. c #57A934",
"6. c #5EB039",
"7. c #64AC33",
"8. c #6BAE37",
"9. c #64A43B",
"0. c #69A43D",
"q. c #67AA3A",
"w. c #6BAC3B",
"e. c #74AF3D",
"r. c #6BB037",
"t. c #63B53C",
"y. c #6DB239",
"u. c #65B93D",
"i. c #6CBB3E",
"p. c #60B235",
"a. c #71B237",
"s. c #75B53D",
"d. c #78B73F",
"f. c #7BB83F",
"g. c #72B93C",
"h. c #4A8742",
"j. c #599A42",
"k. c #5A8D42",
"l. c #669941",
"z. c #649542",
"x. c #719E45",
"c. c #5CAB42",
"v. c #5BA245",
"b. c #67A041",
"n. c #6CA343",
"m. c #60AC44",
"M. c #6CAA42",
"N. c #74AD43",
"B. c #73A443",
"V. c #63B443",
"C. c #66B941",
"Z. c #6ABD41",
"A. c #76B442",
"S. c #7BB542",
"D. c #73BB42",
"F. c #7DBA42",
"G. c #6EC043",
"H. c #7BC549",
"J. c #83BC3E",
"K. c #84BD44",
"L. c #88BE43",
"P. c #87BF48",
"I. c #8CBD4A",
"U. c #86B548",
"Y. c #D68155",
"T. c #DA8456",
"R. c #DE8758",
"E. c #DD8B57",
"W. c #E28C59",
"Q. c #E6915A",
"!. c #E9935B",
"~. c #EE985C",
"^. c #F29C5D",
"/. c #84C246",
"(. c #8BC146",
"). c #87C048",
"_. c #8BC249",
"`. c #92C546",
"'. c #93C64A",
"]. c #98C54C",
"[. c #96C94C",
"{. c #9CCB4D",
"}. c #97C847",
"|. c #9CCF50",
" X c #A1CE4F",
".X c #A4D04F",
"XX c #A3CF50",
"oX c #A5D150",
"OX c #ABD452",
"+X c #B3DA54",
"@X c #B8DD56",
"#X c None",
/* pixels */
"#X#X#X#X#X#X#X#X#X#X#X#X#X#X#X#X^ &.n.&. .{ #X#X#X#X#X#X#X#X#X#X#X#X#X#X#X#X#X#X#X#X#X#X#X#X#X#X#X#X#X#X#X#X#X#X#X#X#X#X#X#X#X#X",
"#X#X#X#X#X#X#X#X#X#X#X#X#X#X#X#Xk.S.K._.[.).d.@.l.#X#X#X#X#X#X#X#X#X#X#X#X#X#X#X#X#X#X#X#X#X#X#X#X#X#X#X#X#X#X#X#X#X#X#X#X#X#X#X",
"#X#X#X#X#X#X#X#X#X#X#X#X#X#X#X#X! N.7.K.|.{.'.).`.e #X#X#X#X#X#X#X#X#X#X#X#X#X#X#X#X#X#X#Xx.+.q.q.q.q.q. .#X#X#X#X#X#X#X#X#X#X#X",
"#X#X#X#X#X#X#X#X#X#X#X#X#X#X#X#Xs K.[.F.d.K.{._.XXU.s.w.j.#X#X#X#X#X#X#X#X#X#X#X#X$.q.`  .}.).(.`.XX'._.K.S.i #X#X#X#X#X#X#X#X#X",
"#X#X#X#X#X#X#X#X#X#X#X#X#X#X#X#X#X3.[.{.[.L.K.'.[.'._.'.F.i #X#X#X#X#X#X#X#X#X#Xf _.OXK..X[.'.OX{.F.d.d.>.Q #X#X#X#X#X#X#X#X#X#X",
"#X#X#X#X#X#X#X#X#X#X#X#X#X#X#X#X#X! r.L.'.[.[.'.XX_.[.K._.] #X#X#X#X#X#X#X#Xw 2 b._. X).{._.[.d.s.K.K.'.<.! #X#X#X#X#X#X#X#X#X#X",
"#X#X#X#X#X#X#X#X#X#X#X#X#X#X#X#X#X#Xe.[.K.F.)._.OX_._.XX'.] { #X#X#X#X#X#Xq ) | I.oX'._.[.[.'.OXoX[.(.7./ #X#X#X#X#X#X#X#X#X#X#X",
"#X#X#X#X#X#X#X#X#X#X#X#X#X#X#X#X#X#X! 8.[.}.}.{.'.XX).oXXXb.K. .#X#X#X#X9 2.6.9.oXoX_.{.'._._.K.S.d.J.@.#X#X#X#X#X#X#X#X#X#X#X#X",
"#X#X#X#X#X#X#X#X#X#X#X#X#X#X#X#X#X#X#X{ I.U.).).P.oX'.XXOXs.`.g.#X#X#X#Xq i.y.K.{.OX[.oX_.{.{.{.}./.w.#X#X#X#X#X#X#X#X#X#X#X#X#X",
"#X#X#X#X#X#X#X#X#X#X#X#X#X#X#X#X#X#X5 [ s.[.'._._.`.OX'.XXf.}.(.#X#X#X1 | /.K..X}.[.{._._.(.K.f.a.~ #X#X#X#X#X#X#X#X#X#X#X#X#X#X",
"#X#X#X#X#X#X#X#X#X' n.+.#X#Xq a 8 #X` f.L.'.'.'.]._.XX[.{._..Xs.#X#X#Xp y.[.K.oX'.oX).|. X}.[.L.u #X#X#X#X#X#X#X#X#X#X#X#X#X#X#X",
"#X#X#X#X#X#X#X#X .S.[.).q.' =.>.5.q 2 f S.K.'._.[._._.XXXXK.{.F.6 #Xi ( L.oX'.+XoXP.P.[.[.}.s.;.~ #X#X#X#X#X#X#X#X#X#X#X#X#X#X#X",
"#X#X#X#Xi &.[.U.).L.oXd.F.XX0.) ;.t./ 2 z.S.d.f._.{.oX X'.|._.%.! r c.p.}..X[.oX|. X X(.&.#.+.i r #X#X#X#X#X#X#X#X#X#X#X#X#X#X#X",
"#X#X#X@.S._.)._. X[.P._.{.{..X].<.:.5.0 6 N.}.[.F.d._._.}.OXXX@.6.Q 9. X{.[.OX'.'.'.).K.w.~ #X#X#X#X#X#X#X#X#X#X#X#X#X#X#X#X#X#X",
"#X$.9._.[.OX XXX`.oXoX[.[.'.{.'.oXK.p.,.q v.D.K.{._.OX[. XOX_.D.u.| w.XX_.OX_.[.].[.[.}.S.5 #X#X2 q i u #X#X#X#X#X#X#X#X#X#X#X#X",
"#XN._._.`.).d.'.[._.'.[.{. X|.OXoXOX[.H.5.| 6.u.D.F._.P._.oX_.H.' 1.'.XX XOX).(._.K.y.1.u.o.< 5 [ p.q.&.#X` j.{ #X#X#X#X#X#X#X#X",
"| K.K.F.d.K.oX XL.K.[.P._. X_.P.'.'.XX|.{.6.| ..:.u.[.|.oX@X[.D.| m.K._.+X X X{.`.i.u.2.u 3 d u.1.7.d.7.S.L.'.).{ #X#X#X#X#X#X#X",
"Q @.q._.[.|.K.F.K.[.P.P.+X[.P.XXXX_.'.'.)./.H.V.4.) :.y./.OXoXA.| u.XXXX[./.d.;.4.~ u r 3 ! :.>.y.}. X{.[.y.oXK.7.B.x.#X#X#X#X#X",
"#X#X#Xn.M.f.{.`.L.P._. X[.[.{.'._.{._.L._..Xp.;.u.5...r.K.[.oXs.| u._.oX`.F.1.4.' ~ / i O.1.r.'.oX[.OX X[._.P.|.OX X'.0.#X#X#X#X",
"#X#X#X#X#X#X#X#Xq ` 7.r.1.4.) *.S.i.s.H.'.6.=.Q ~ 4.6.C./.}..X<.Q u.`.y.4.) ;.=.5.~ Q 1.;./.OXXX X.X.X XoXoXXXXX_._._._.d. .#X#X",
"#X#X#X#X#X#X#X#X#X4 ..2.| 5 2 ! -.) *.v.n.U.U.} 2.c.| ~ ( g._.[ ) ;.@.| 2.2.5.c.C.~ 2.:.r.'.'.OX).(.[.'.'.[._.]._.`.OX{.'.K.+.#X",
"#X#X#X#X#X#X#X#X#X#X2 2 1 #X#Xq / 5.d.{.OX+X'.).C.X.O.5.Q ~ s.t / ) ( ;.Z.V.4.y.8...t.| _ [.K.{. X_.{.'.P.OX`._..X_.d._.[.[.K.s ",
"#X#X#X#X#X#X#X#X#X#X#X#X#X1 , 0 ;./.OXOX_.oX/.q.-.c.,.X.r Q Q 8 Q ~ ~ j.a ..(.+X X[..X_.A.r.L.K.[.{._.OX'.'. Xa./.oX[.A.d.K.P.^ ",
"#X#X#X#X#X#X#X#X#X#X4 r Q Q s u.C.F._.oX_._.K.] ( 5...t.i 7 e 3 ! e 7 e -.) J.'.{.+X X XoX.X(.a.s.K.`.P.OX{.`.[.}.d.[.[.).7.F.$.",
"#X#X#X#X#X#X#X#X#Xi ( ) | Q ,.| M._.oX'. X{.'.l.q ;.~ =.~ 0 7 7 3 3 7 Q e ~ >._._.OXOX'.[.XXA.).0.0.8.s.).l.l.@.8.f.&.9.d.&.Q e ",
"#X#X#X#X#X#X#X+.d.K.8.t.Z.2.~ d.K. XoX_.)._.{.w.Q i e ( Q < 7 3 3 2 y 7 e r r._.{._.[.OXXX[.}.'.w.Q  .9.K.j.#X#X#Xs #X#Xe #X#X#X",
"#X#X#X#X#X#X#.{.{. X Xs.t.! S.{.{._.{.[.{.).y.u.) 1 0 ~ ~ 3 2 3 3 7 7 7 1 < <._. X)._.'.XX'.|.{. X(.q.! i q #X#X#X#X#X#X#X#X#X#X",
"#X#X#X#X#X#X#.[.(.).).[.D.3.{._._.XXOX'.F.'.#.1.4.3 7 t ~   3 3 2 3 7 2 2 2 f [.[.).XX_.oXOX{.'.K.J.[.K. .#X#X#X#X#X#X#X#X#X#X#X",
"#X#X#X#X#X&.[. X{.'.OX'. .'.K.N. X[.[. XL.w.m.=.t.s #X#Xg # 2 5 3 2 h #X#X#X' g.).'.{._.XX X[.[.{.f.F.A.` #X#X#X#X#X#X#X#X#X#X#X",
"#X#X#X#X#XU.K.'.[.oX_.M.8.L.{ XX_.oX_._.{.>.O.{ Q r #X#Xc x %   = = : #X#X#Xt i.:.`.).}.[._. X[.[.{.L.| #X#X#X#X#X#X#X#X#X#X#X#X",
"#X#X#X#X9._.[.[.)._.K.' w.' U.{.'.oX_.K.'.S.) Q 1 3 #X#X- - + c l $ o ; #X#X5 >.=.C.F.}.'.P.[.{.[.|.[.K.q.#X#X#X#X#X#X#X#X#X#X#X",
"#X#X#X^ F.[.[.d.{.'.>.! w k.[.[._.oX{._.d.y.O.| 2 #X#X#Xx . c b > ; v k #X#X#X0 Q d <.L.'.{._.oX]._.}.`.'.w.#X#X#X#X#X#X#X#X#X#X",
"#X#X#X .(.{.S.K.OXD.) 5 j P.I._._. X_. XK.@._ u #X#X#X#Xx v ; S ; % m #X#X#X#X#X#X2 ) G.`.[.)._.XX_._.[.[.7.( #X#X#X#X#X#X#X#X#X",
"#X#X#X&.).U.h.[.'...y 1 N.w.n.).[.'.F.).'.u.q ' #X#X#X#X; C Y Q.m F Y.#X#X#X#X#X#X2 ~ 6.K.).'.[.'.oX[._.r.' ' #X#X#X#X#X#X#X#X#X",
"#X#X#X9.L.} x.'.j 2 3 2 F. .K.}.OX_._.A.A.1.h.5 #X#X#X#X#XT.Z W Y W.D #X#X#X#X#X#X3 | =.m.>._.F._.{._.{.S.#X#X#X#X#X#X#X#X#X#X#X",
"#X#X#X] n.5 k.#X#X#X#X3 l.[ U.OX[._.[.).@.,.3 #X#X#X#X#Xk n I W Z M J + #X#X#X#X#X2 | i h.:.C.K.XX_.[._.{.z.#X#X#X#X#X#X#X#X#X#X",
"#X#X#X#X#X#X#X#X#X#X#X#X8 p [.'..XN.XX_.@.2.2 #X#X#X#X#Xk W.Y x W.Q.T #X#X#X#X#X#X#X2 #X1 | c.>._.s.{._./.i #X#X#X#X#X#X#X#X#X#X",
"#X#X#X#X#X#X#X#X#X#X#X#X#Xp q.F.[.I.N.{.q...d #X#X#X#X#Xk x H ^.m v F #X#X#X#X#X#X#X#X#X#Xs c.=.u...J.{.U.q #X#X#X#X#X#X#X#X#X#X",
"#X#X#X#X#X#X#X#X#X#X#X#X#X9 ( ) (.[.b.i.Z.Q #X#X#X#X#X#Xk W.A D Y Q.Y.$ #X#X#X#X#X#X#X#X#X2 i ..u.~ ..1.! , #X#X#X#X#X#X#X#X#X#X",
"#X#X#X#X#X#X#X#X#X#X#X#X#X#X` i -.u.) ! 5.q #X#X#X#X#X#X* v Y ^.N m m #X#X#X#X#X#X#X#X#X#X#X3 r ) q ~ ) 3 #X#X#X#X#X#X#X#X#X#X#X",
"#X#X#X#X#X#X#X#X#X#X#X#X#X#X#X, p :.( 6 ~ #X#X#X#X#X#X#Xc R.I k W.W.R.k #X#X#X#X#X#X#X#X#X#X#X3 3 8 ~ Q #X#X#X#X#X#X#X#X#X#X#X#X",
"#X#X#X#X#X#X#X#X#X#X#X#X#X#X#X#X#Xp ) #X#X#X#X#X#X#X#X#X#XM A T.C V v #X#X#X#X#X#X#X#X#X#X#X#X#X#X2 5 #X#X#X#X#X#X#X#X#X#X#X#X#X",
"#X#X#X#X#X#X#X#X#X#X#X#X#X#X#X#X#X#X#X#X#X#X#X#X#X#X#X#Xx R Y T G W W.x #X#X#X#X#X#X#X#X#X#X#X#X#X#X#X#X#X#X#X#X#X#X#X#X#X#X#X#X",
"#X#X#X#X#X#X#X#X#X#X#X#X#X#X#X#X#X#X#X#X#X#X#X#X#X#X#X#X- G H ~.H J c . #X#X#X#X#X#X#X#X#X#X#X#X#X#X#X#X#X#X#X#X#X#X#X#X#X#X#X#X",
"#X#X#X#X#X#X#X#X#X#X#X#X#X#X#X#X#X#X#X#X#X#X#X#X#X#X#X#XK T D V Y Y E.x #X#X#X#X#X#X#X#X#X#X#X#X#X#X#X#X#X#X#X#X#X#X#X#X#X#X#X#X",
"#X#X#X#X#X#X#X#X#X#X#X#X#X#X#X#X#X#X#X#X#X#X#X#X#X#X#X#X> R Y G W W v @ #X#X#X#X#X#X#X#X#X#X#X#X#X#X#X#X#X#X#X#X#X#X#X#X#X#X#X#X",
"#X#X#X#X#X#X#X#X#X#X#X#X#X#X#X#X#X#X#X#X#X#X#X#X#X#X#X#XM ; I !.b c Y.; #X#X#X#X#X#X#X#X#X#X#X#X#X#X#X#X#X#X#X#X#X#X#X#X#X#X#X#X",
"#X#X#X#X#X#X#X#X#X#X#X#X#X#X#X#X#X#X#X#X#X#X#X#X#X#X#X#XC E.Y k W.W.A O #X#X#X#X#X#X#X#X#X#X#X#X#X#X#X#X#X#X#X#X#X#X#X#X#X#X#X#X",
"#X#X#X#X#X#X#X#X#X#X#X#X#X#X#X#X#X#X#X#X#X#X#X#X#X#X#X+ K v D R.B V L % #X#X#X#X#X#X#X#X#X#X#X#X#X#X#X#X#X#X#X#X#X#X#X#X#X#X#X#X",
"#X#X#X#X#X#X#X#X#X#X#X#X#X#X#X#X#X#X#X#X#X#X#X#X#X#X#X#XG Y.I Y I Y.T ; #X#X#X#X#X#X#X#X#X#X#X#X#X#X#X#X#X#X#X#X#X#X#X#X#X#X#X#X",
"#X#X#X#X#X#X#X#X#X#X#X#X#X#X#X#X#X#X#X#X#X#X#X#X#X#X#X@ F A J ^.D G G @ #X#X#X#X#X#X#X#X#X#X#X#X#X#X#X#X#X#X#X#X#X#X#X#X#X#X#X#X",
"#X#X#X#X#X#X#X#X#X#X#X#X#X#X#X#X#X#X#X#X#X#X#X#X#X#X#X@ J T D n E E W k #X#X#X#X#X#X#X#X#X#X#X#X#X#X#X#X#X#X#X#X#X#X#X#X#X#X#X#X",
"#X#X#X#X#X#X#X#X#X#X#X#X#X#X#X#X#X#X#X#X#X#X#X#X#X#X#X#Xk E H P T T J % #X#X#X#X#X#X#X#X#X#X#X#X#X#X#X#X#X#X#X#X#X#X#X#X#X#X#X#X",
"#X#X#X#X#X#X#X#X#X#X#X#X#X#X#X#X#X#X#X#X#X#X#X#X#X#X#XS C G I E.B H Q.G #X#X#X#X#X#X#X#X#X#X#X#X#X#X#X#X#X#X#X#X#X#X#X#X#X#X#X#X",
"#X#X#X#X#X#X#X#X#X#X#X#X#X#X#X#X#X#X#X#X#X#X#X#X#X#X#X+ F T.A R.U Y.Z $ #X#X#X#X#X#X#X#X#X#X#X#X#X#X#X#X#X#X#X#X#X#X#X#X#X#X#X#X",
"#X#X#X#X#X#X#X#X#X#X#X#X#X#X#X#X#X#X#X#X#X#X#X#X#X#X#XG m H H T D A ~.G #X#X#X#X#X#X#X#X#X#X#X#X#X#X#X#X#X#X#X#X#X#X#X#X#X#X#X#X",
"#X#X#X#X#X#X#X#X#X#X#X#X#X#X#X#X#X#X#X#X#X#X#X#X#X#X#X> G Q.Y v W.W.N * #X#X#X#X#X#X#X#X#X#X#X#X#X#X#X#X#X#X#X#X#X#X#X#X#X#X#X#X",
"#X#X#X#X#X#X#X#X#X#X#X#X#X#X#X#X#X#X#X#X#X#X#X#X#X#X#XA m v Y ^.n m ^.G #X#X#X#X#X#X#X#X#X#X#X#X#X#X#X#X#X#X#X#X#X#X#X#X#X#X#X#X",
"#X#X#X#X#X#X#X#X#X#X#X#X#X#X#X#X#X#X#X#X#X#X#X#X#X#X#X: G Q.Z D T W.N k #X#X#X#X#X#X#X#X#X#X#X#X#X#X#X#X#X#X#X#X#X#X#X#X#X#X#X#X",
"#X#X#X#X#X#X#X#X#X#X#X#X#X#X#X#X#X#X#X#X#X#X#X#X#X#X#XV v N Y !.N m ~.S #X#X#X#X#X#X#X#X#X#X#X#X#X#X#X#X#X#X#X#X#X#X#X#X#X#X#X#X",
"#X#X#X#X#X#X#X#X#X#X#X#X#X#X#X#X#X#X#X#X#X#X#X#X#X#X#Xc H ^.T k Q.Q.D c #X#X#X#X#X#X#X#X#X#X#X#X#X#X#X#X#X#X#X#X#X#X#X#X#X#X#X#X",
"#X#X#X#X#X#X#X#X#X#X#X#X#X#X#X#X#X#X#X#X#X#X#X#X#X#X#Xo k m Z W m m H o #X#X#X#X#X#X#X#X#X#X#X#X#X#X#X#X#X#X#X#X#X#X#X#X#X#X#X#X",
"#X#X#X#X#X#X#X#X#X#X#X#X#X#X#X#X#X#X#X#X#X#X#X#X#X#X#X#Xv k N b m m @ #X#X#X#X#X#X#X#X#X#X#X#X#X#X#X#X#X#X#X#X#X#X#X#X#X#X#X#X#X",
"#X#X#X#X#X#X#X#X#X#X#X#X#X#X#X#X#X#X#X#X#X#X#X#X#X#X#X#X#Xo & - $ . #X#X#X#X#X#X#X#X#X#X#X#X#X#X#X#X#X#X#X#X#X#X#X#X#X#X#X#X#X#X"
};
