/* XPM */
static char *result[] = {
/* columns rows colors chars-per-pixel */
"64 64 138 2 ",
"   c black",
".  c #0C0800",
"X  c #120D00",
"o  c #1A1400",
"O  c #372C00",
"+  c #3A2E00",
"@  c #3F3201",
"#  c #433600",
"$  c #463800",
"%  c #4C3D01",
"&  c #4F4001",
"*  c #534301",
"=  c #594701",
"-  c #5C4A02",
";  c #57480B",
":  c #614E01",
">  c #665202",
",  c #6B5602",
"<  c #6E5903",
"1  c #635109",
"2  c #745D01",
"3  c #735E0B",
"4  c #766006",
"5  c #7B6303",
"6  c #766108",
"7  c #7A6516",
"8  c #695B28",
"9  c #7C6B29",
"0  c #806602",
"q  c #856A04",
"w  c #8A6E05",
"e  c #856C08",
"r  c #8A6F08",
"t  c #8D7103",
"y  c #8D730A",
"u  c #917405",
"i  c #967906",
"p  c #987A04",
"a  c #91760A",
"s  c #957A0B",
"d  c #9A7D0B",
"f  c #8B7315",
"g  c #82702B",
"h  c #8D782B",
"j  c #947D29",
"k  c #897734",
"l  c #84753E",
"z  c #9E810C",
"x  c #9D821C",
"c  c #A48300",
"v  c #A4850C",
"b  c #AB8B0E",
"n  c #B48F00",
"m  c #B08F0D",
"M  c #BD9600",
"N  c #B4920E",
"B  c #B9960F",
"V  c #AE8E11",
"C  c #A0851F",
"Z  c #A88A18",
"A  c #B39311",
"S  c #B89712",
"D  c #BD9B12",
"F  c #988337",
"G  c #A48920",
"H  c #A2892F",
"J  c #B2962C",
"K  c #A18B36",
"L  c #A18C3A",
"P  c #AE9434",
"I  c #BFA131",
"U  c #C29E12",
"Y  c #C5A214",
"T  c #CAA514",
"R  c #CFAA15",
"E  c #C1A01D",
"W  c #D3AE16",
"Q  c #D7B017",
"!  c #DAB317",
"~  c #DEB618",
"^  c #DFB818",
"/  c #E3BB19",
"(  c #E8BF1A",
")  c #C5A532",
"_  c #C3A639",
"`  c #C4A83D",
"'  c #D2B031",
"]  c #D0B03D",
"[  c #E1BA24",
"{  c #E4BF35",
"}  c #E1BE3B",
"|  c #EDC31B",
" . c #F1C61B",
".. c #F6CA1C",
"X. c #F9CD1D",
"o. c #FFD21E",
"O. c #F3C820",
"+. c #FFD222",
"@. c #FFD32C",
"#. c #EFC93C",
"$. c #FFD432",
"%. c #FFD53C",
"&. c #96864B",
"*. c #AD9745",
"=. c #B39E4B",
"-. c #A69657",
";. c #BEA444",
":. c #BCA448",
">. c #CAB04F",
",. c #DABA44",
"<. c #DBBC4C",
"1. c #C2AA54",
"2. c #CFB65E",
"3. c #D1B757",
"4. c #D2B95A",
"5. c #D8BE5B",
"6. c #E0BF47",
"7. c #C1AF68",
"8. c #CFBC73",
"9. c #FFD745",
"0. c #FFD94B",
"q. c #E5C95E",
"w. c #EBCD5C",
"e. c #FFD952",
"r. c #F4D45F",
"t. c #FFDC5C",
"y. c #DECA7D",
"u. c #EED267",
"i. c #F4D562",
"p. c #FEDD64",
"a. c #F7DA69",
"s. c #FEDF6B",
"d. c #E4CE7B",
"f. c #FFE16D",
"g. c #FFE375",
"h. c #FFE27C",
"j. c #FEE88F",
"k. c None",
/* pixels */
"k.k.k.k.k.k.k.k.k.k.k.k.k.k.k.k.k.k.k.k.k.k.k.k.k.k.k.k.k.k.k.k.k.k.k.k.k.k.k.k.k.k.k.k.k.k.k.$ $ $ $ k.k.k.k.k.k.k.k.k.k.k.k.k.",
"k.k.k.k.k.k.k.k.k.k.k.k.k.k.k.k.k.k.k.k.k.k.k.k.k.k.k.k.k.k.k.k.k.k.k.k.k.k.k.k.k.k.k.k.k.$ 2 u c U c 2 $ k.k.k.k.k.k.k.k.k.k.k.",
"k.k.k.k.k.k.k.k.k.k.k.k.k.k.k.k.k.k.k.k.k.k.k.k.k.k.k.k.k.k.k.k.k.k.k.k.k.k.k.k.k.k.k.k.$ q M n p 2 5 p t $ k.k.k.k.k.k.k.k.k.k.",
"k.k.k.k.k.k.k.k.k.k.k.k.k.k.k.k.k.k.k.k.k.k.k.k.k.k.k.k.k.k.k.k.k.k.k.k.k.k.k.k.k.k.k.k.k.$ t c 2 2 2 2 5 $ k.k.k.k.k.k.k.k.k.k.",
"k.k.k.k.k.k.k.k.k.k.k.k.k.k.k.k.k.k.k.k.k.k.k.k.k.k.k.k.k.k.k.k.k.k.k.k.k.k.k.k.k.k.k.k.k.k., c 2 2 2 2 2 = k.k.k.k.k.k.k.k.k.k.",
"k.k.k.k.k.k.k.k.k.k.k.k.k.k.k.k.k.k.k.k.k.k.k.k.k.k.k.k.k.k.k.k.k.k.k.k.k.k.k.k.k.k.k.k.k.k.0 u 2 2 : > m q $ k.k.k.k.k.k.k.k.k.",
"k.k.k.k.k.k.k.k.k.k.k.k.k.k.k.k.k.k.k.k.k.k.k.k.k.k.k.k.k.k.k.k.k.k.k.k.k.k.k.k.k.k.k.k.k.$ 2 2 2 = S ! +.A $ k.k.k.k.k.k.k.k.k.",
"k.k.k.k.k.k.k.k.k.k.k.k.k.k.k.k.k.k.k.k.k.k.k.k.k.k.k.k.k.k.k.k.k.k.k.k.k.k.k.k.k.k.k.k.k.k.% - % d X. ...D $ k.k.k.k.k.k.k.k.k.",
"k.k.k.k.k.k.k.k.k.k.k.k.k.k.k.k.k.k.k.k.k.k.k.k.k.k.k.k.k.k.k.k.k.k.k.k.k.k.k.k.k.k.k.k.k.k.$ $ # ! o.o.Y Q $ k.k.k.k.k.k.k.k.k.",
"k.k.k.k.k.k.k.k.k.k.k.k.k.k.k.k.k.k.k.k.k.k.k.k.k.k.k.k.k.k.k.k.k.k.k.k.k.k.k.k.k.k.k.k.k.k.k.$ D o.o.o.U | $ k.k.k.k.k.k.k.k.k.",
"k.k.k.k.k.k.k.k.k.k.k.k.k.k.k.k.k.k.k.k.k.k.k.k.k.k.k.k.k.k.k.k.k.k.k.k.k.k.k.k.k.k.k.k.k.k.k.$ U o.o.o.| v a $ k.k.k.k.k.k.k.k.",
"k.k.k.k.k.k.k.k.k.k.k.k.k.k.k.k.k.k.k.k.k.k.k.k.k.k.k.k.k.k.k.k.k.k.k.k.k.k.k.k.k.k.k.k.k.k.k.$ y o.| o.+.y v $ k.k.k.k.k.k.k.k.",
"k.k.k.k.k.k.k.k.k.k.k.k.k.k.k.k.k.k.k.k.k.k.k.k.k.k.k.k.k.k.k.k.k.k.k.k.k.k.k.k.k.k.k.k.k.k.k.k.# X.| o.o.( - % $ k.k.k.k.k.k.k.",
"k.k.k.k.k.k.k.k.k.k.k.k.k.k.k.k.k.k.k.k.k.k.k.k.k.k.k.k.k.k.k.k.k.k.k.k.k.k.k.k.k.k.k.k.k.k.k.k.$ ! Q ..o.o.R $ $ $ k.k.k.k.k.k.",
"k.k.k.k.k.k.k.k.k.k.k.k.k.k.k.k.k.k.k.k.k.k.k.k.k.k.k.k.k.k.k.k.k.k.k.k.k.k.k.k.k.k.k.k.k.k.k.k.# b | s o.o.o.W 5 * $ k.k.k.k.k.",
"k.k.k.k.k.k.k.k.k.k.k.k.k.k.k.k.k.k.k.k.k.k.k.k.k.k.k.k.k.k.k.k.k.k.k.k.k.k.k.k.k.k.k.k.k.k.k.k.k., +.e S o.X.V > / - $ k.k.k.k.",
"k.k.k.k.k.k.k.k.k.k.k.k.k.k.k.k.k.k.k.k.k.k.k.k.k.k.k.k.k.k.k.k.k.k.k.k.k.k.k.k.k.k.k.k.k.k.k.k.k.$ | W $ ( ..< * Q [ % k.k.k.k.",
"k.k.k.k.k.k.k.k.k.k.k.k.k.k.k.k.k.k.k.k.k.k.k.k.k.k.k.k.k.k.k.k.k.k.k.k.k.k.k.k.k.k.k.k.k.k.k.k.k.$ ! +.e d o.o.V Y o.1.$ k.k.k.",
"k.k.k.k.k.k.k.k.k.k.k.k.k.k.k.k.k.k.k.k.k.k.k.k.k.k.k.k.k.k.k.k.k.k.k.k.k.k.k.k.k.k.k.k.k.k.k.k.k.$ ^ o.R $ X.o.^ ..o.t.l $ k.k.",
"k.k.k.k.k.k.k.k.k.k.k.k.k.k.k.k.k.k.k.k.k.k.k.k.k.k.k.k.k.k.k.k.k.k.k.k.k.k.k.k.k.k.k.k.k.k.k.k.k.& X.o...$ Q o.o.o.o.@.d.$ k.k.",
"k.k.k.k.k.k.k.k.k.k.k.k.k.k.k.k.k.k.k.k.k.k.k.k.k.k.k.k.k.k.k.k.k.k.k.k.k.k.k.k.k.k.k.k.k.k.k.k.$ d o.o.o.4 S o.o.o.o.o.h.&.$ k.",
"k.k.k.k.k.k.k.k.k.k.k.k.k.k.k.k.k.k.k.k.k.k.k.k.k.k.k.k.k.k.k.k.k.k.k.k.k.k.k.k.k.k.k.k.k.k.k.k.$ E o.o.o.v a o.o.o.o.o.e.y.$ k.",
"k.k.k.k.k.k.k.k.k.k.k.k.k.k.k.k.k.k.k.k.k.k.k.k.k.k.k.k.k.k.k.k.k.k.k.k.k.k.k.k.k.k.k.k.k.k.k.k.$ ' X.o.o.D - o.o.o.o.o.+.j.8 $ ",
"k.k.k.k.k.k.k.k.k.k.k.k.k.k.k.k.k.k.k.k.k.k.k.k.k.k.k.k.k.k.k.k.k.k.k.k.k.k.k.k.k.k.k.k.k.k.k.k.$ #.o.o.o.R # o.o.o.o.o.o.h.-.$ ",
"k.k.k.k.k.k.k.k.k.k.k.k.k.k.k.k.k.k.k.k.k.k.k.k.k.k.k.k.k.k.k.k.k.k.k.k.k.k.k.k.k.k.k.k.k.k.k.k.$ #.o.o.o.W # o.o.o.o.o.o.p.7.$ ",
"k.k.k.k.k.k.k.k.k.k.k.k.k.k.k.k.k.k.k.k.k.k.k.k.k.k.k.k.k.k.k.k.k.k.k.k.k.k.k.k.k.k.k.k.k.k.k.k.% %.o.o.o.W * o.o.o.o.o.o.9.8.$ ",
"k.k.k.k.k.k.k.k.k.k.k.k.k.k.k.k.k.k.k.k.k.k.k.k.k.k.k.k.k.k.k.k.k.k.k.k.k.k.k.k.k.k.k.k.k.k.k.$ 9 $.o.o.o.R e +.o.o.o.o.o.o.8.$ ",
"k.k.k.k.k.k.k.k.k.k.k.k.k.k.k.k.k.k.k.k.k.k.k.k.k.k.k.k.k.k.k.k.k.k.k.k.k.k.k.k.k.k.k.k.k.k.k.$ F o.o.o.+.Y v o.o.o.o.o.o.o.2.$ ",
"k.k.k.k.k.k.k.k.k.k.k.k.k.k.k.k.k.k.k.k.k.k.k.k.k.k.k.k.k.k.k.k.k.k.k.k.k.k.k.k.k.k.k.k.k.k.k.$ _ o.o.o.o.v Y o.o.o.o.o.o.o.) $ ",
"k.k.k.k.k.k.k.k.k.k.k.k.k.k.k.k.k.k.k.k.k.k.k.k.k.k.k.k.k.k.k.k.k.k.k.k.k.k.k.k.k.k.k.k.k.k.k.$ #.o.o.o.+.< / o.o.o.o.o.o.o.A $ ",
"k.k.k.k.k.k.k.k.k.k.k.k.k.k.k.k.k.k.k.k.k.k.k.k.k.k.k.k.k.k.k.k.k.k.k.k.k.k.k.k.k.k.k.k.k.k.k.; %.o.Y ^ | - o.o.o.o.o.o.o.o.v $ ",
"k.k.k.k.k.k.k.k.k.k.k.k.k.k.k.k.k.k.k.k.k.k.k.k.k.k.k.k.k.k.k.k.k.k.k.k.k.k.k.k.k.k.k.k.k.k.$ F +.X.t  .T V o.o.o.o.o.o.o.X.> $ ",
"k.k.k.k.k.k.k.k.k.k.k.k.k.k.k.k.k.k.k.k.k.k.k.k.k.k.k.k.k.k.k.k.k.k.k.k.k.k.k.k.k.k.k.k.k.k.$ q.X...U o.z / o.o.o.o.o.o.o.^ % k.",
"k.k.k.k.k.k.k.k.k.k.k.k.k.k.k.k.k.k.k.k.k.k.k.k.k.k.k.k.k.k.k.k.k.k.k.k.k.k.k.k.k.k.k.k.k.$ h 9.o.o.o.o.p o.o.o.o.o.o.R c b $ k.",
"k.k.k.k.k.k.k.k.k.k.k.k.k.k.k.k.k.k.k.k.k.k.k.k.k.k.k.k.k.k.k.k.k.k.k.k.k.k.k.k.k.k.k.k.k.$ w.o.o.o.o.~ ! o.o.o.o.o. .u u 5 $ k.",
"k.k.k.k.k.k.k.k.k.k.k.k.k.k.k.k.k.k.k.k.k.k.k.k.k.k.k.k.k.k.k.k.k.k.k.k.k.k.k.k.k.k.k.k.$ 1.t.o.o.o.o.R o.o.o.o.o.o...p u > $ k.",
"k.k.k.k.k.k.k.k.k.k.k.k.k.k.k.k.k.k.k.k.k.k.k.k.k.k.k.k.k.k.k.k.k.k.k.k.k.k.k.k.k.k.k.$ j f.$.o.o.o...| o.o.o.o.o.o.o. .i % k.k.",
"k.k.k.k.k.k.k.k.k.k.k.k.k.k.k.k.k.k.k.k.k.k.k.k.k.k.k.k.k.k.k.k.k.k.k.k.k.k.k.k.k.k.$ 7 a.p.+.o.o.o...o.o.o.o.o.o.o.o.! q $ k.k.",
"k.k.k.k.k.k.k.k.k.k.k.k.k.k.k.k.k.k.k.k.k.k.k.k.k.k.k.k.k.k.k.k.k.k.k.k.k.k.k.k.k.$ 3 i.g.%.o.o.o.o.o.o.o.o.o.o.o.o.o.v 2 $ k.k.",
"k.k.k.k.k.k.k.k.k.k.k.k.k.k.k.k.k.k.k.k.k.k.k.k.k.k.k.k.k.k.k.k.k.k.k.k.k.k.k.k.$ 6 w.3.H B o.o.o.o.o.o.o.o.o.o.Y T ( u % k.k.k.",
"k.k.k.k.k.k.k.k.k.k.k.k.k.k.k.k.k.k.k.k.k.k.k.k.k.k.k.k.k.k.k.k.k.k.k.k.k.k.k.$ f i.:.f r W o.o.o.o.o.o.o.o.o.o.v | N 0 $ k.k.k.",
"k.k.k.k.k.k.k.k.k.k.k.k.k.k.k.k.k.k.k.k.k.k.k.k.k.k.k.k.k.k.k.k.k.k.k.k.k.k.$ G a.g.5.Z / o.o.o.o.o.o.o.o.o.o.o.o.| u : $ k.k.k.",
"k.k.k.k.k.k.k.k.k.k.k.k.k.k.k.k.k.k.k.k.k.k.k.k.k.k.k.k.k.k.k.k.k.k.k.k.k.$ I f.g.g.p.o.o.o.o.o.o.o.o.o.o.o.o.o.o.N w $ k.k.k.k.",
"k.k.k.k.k.k.k.k.k.k.k.k.k.k.k.k.k.k.k.k.k.k.k.k.k.k.k.k.k.k.k.k.k.k.k.$ , ,.g.g.g.f.@.o.o.o.o.o.o.o.o.o.o.o.o.o.| t > $ k.k.k.k.",
"k.k.k.k.k.k.k.k.k.k.k.k.k.k.k.k.k.k.k.k.k.k.k.k.k.k.k.k.k.k.k.k.k.k.$ x i.g.g.g.g.%.o.o.o.o.o.o.o.o.o.o.o.o.o.o.b q $ k.k.k.k.k.",
"k.k.k.k.k.k.k.k.k.k.k.k.k.k.k.k.k.k.k.k.k.k.k.k.k.k.k.k.k.k.k.k.$ 5 ,.f.g.g.g.f.%.o.o.o.o.o.o.o.o.o.o.o.o.o.o.T u : k.k.k.k.k.k.",
"k.k.k.k.k.k.k.k.k.k.k.k.k.k.k.k.k.k.k.k.k.k.k.k.k.k.k.k.k.k.# 5 ] f.g.g.g.g.f.%.o.o.o.o.o.o.o.o.o.o.o.o.o.o.~ u 0 $ k.k.k.k.k.k.",
"k.k.k.k.k.k.k.k.k.k.k.k.k.k.k.k.k.k.k.k.k.k.k.k.k.k.$ $ * G 6.f.g.g.g.g.g.f.@.o.o.o.| X.o.o.o.o.o.o.o.o.o.| i w * k.k.k.k.k.k.k.",
"k.k.k.k.k.k.k.k.k.k.k.k.k.k.k.k.k.k.k.k.k.$ $ $ $ 5 J <.f.g.g.g.g.g.g.p.%.o.o.o.X./ ..o.o.o.o.o.o.o.o.o...d u > $ k.k.k.k.k.k.k.",
"k.k.k.k.k.k.k.k.k.k.$ $ $ $ $ $ $ $ 4 f P ` <.w.p.f.g.g.g.g.g.f.t.9.+.o.o.+...|  .o.o.o.o.o.o.o.o.o.o...v u 5 $ k.k.k.k.k.k.k.k.",
"k.k.k.$ $ $ % 1 g k F *.=.>.4.q.u.f.g.g.g.g.g.g.g.f.f.t.0.%.+.o.o.o.+.X.W W | o.o.o.o.o.o.o.o.o.o.o...b u q % k.k.k.k.k.k.k.k.k.",
"$ # + @ W O.%.e.t.t.t.p.t.f.p.f.t.t.t.t.e.0.%.$.o.o.o.o.o.o.o.o.| Y D Y ..o.o.o.o.o.o.o.o.o.o.o.o...v u w % k.k.k.k.k.k.k.k.k.k.",
"$ o   V o.o.o.o.o.o.o.o.o.o.^ / o.o.o.o.o.o.o.o.o.o.o. .^ Q Q R ( o.o.o.o.o.o.o.o.o.o.o.o.o.o.o.| c u w * k.k.k.k.k.k.k.k.k.k.k.",
"k.# . % d S R D z / ( | | | W Q / ! R R Y A b d b S Y ^ X.o.o.o.o.o.o.o.o.o.o.o.o.o.o.o.o.o.o.~ i u t * k.k.k.k.k.k.k.k.k.k.k.k.",
"$ # . V D y & $ $ $ $ - 4 e q y y v V V Y R / o.o.o.o.o.o.o.o.o.o.o.o.o.o.o.o.o.o.o.o.o.o...N u u q % k.k.k.k.k.k.k.k.k.k.k.k.k.",
"k.$ @ y W R | | o.o.X.o.o.o.o.o.o.o.o.o.o.o.o.o.o.o.o.o.o.o.o.o.o.o.o.o.o.o.o.o.o.o.o.X.T u u u 2 $ k.k.k.k.k.k.k.k.k.k.k.k.k.k.",
"k.k.$ $ b T y w a ^ D d  .o.o.o.o.o.o.o.o.o.o.o.o.o.o.o.o.o.o.o.o.o.o.o.o.o.o.o.o.X.T p u u q = $ k.k.k.k.k.k.k.k.k.k.k.k.k.k.k.",
"k.k.k.k.$ 5 Q ! ~ ....^ o.o.o.o.o.o.o.o.o.o.X. .o.o.o.o.o.o.o.o.o.o.o.o.o.o.o.| Y i u u w > $ k.k.k.k.k.k.k.k.k.k.k.k.k.k.k.k.k.",
"k.k.k.k.k.$ $ v | o.o.o.o.o.o.o.o.o.o.o.o.o.~ U ..o.o.o.o.o.o.o.o.o.o.o.X.! N t u u q > $ $ k.k.k.k.k.k.k.k.k.k.k.k.k.k.k.k.k.k.",
"k.k.k.k.k.k.k.$ % b | o.o.o.o.o.o.o.o.o.o.o.o.o.o.o.o.o.o.o.o.o.o. .! B u u u t 5 - $ $ k.k.k.k.k.k.k.k.k.k.k.k.k.k.k.k.k.k.k.k.",
"k.k.k.k.k.k.k.k.k.$ $ z ! o.o.o.o.o.o.o.o.o.o.o.o.o./ U W ../ Y v u u u t 5 > $ $ k.k.k.k.k.k.k.k.k.k.k.k.k.k.k.k.k.k.k.k.k.k.k.",
"k.k.k.k.k.k.k.k.k.k.k.$ $ > z D T / / | |  .| | / ! b u u u t u t 5 2 = $ $ k.k.k.k.k.k.k.k.k.k.k.k.k.k.k.k.k.k.k.k.k.k.k.k.k.k.",
"k.k.k.k.k.k.k.k.k.k.k.k.k.k.$ $ $ % : , 5 5 q q w q q q 5 2 > * $ $ $ k.k.k.k.k.k.k.k.k.k.k.k.k.k.k.k.k.k.k.k.k.k.k.k.k.k.k.k.k.",
"k.k.k.k.k.k.k.k.k.k.k.k.k.k.k.k.k.k.$ $ $ $ $ $ $ $ $ $ $ $ k.k.k.k.k.k.k.k.k.k.k.k.k.k.k.k.k.k.k.k.k.k.k.k.k.k.k.k.k.k.k.k.k.k."
};
