/* XPM */
static char *result[] = {
/* columns rows colors chars-per-pixel */
"64 64 171 2 ",
"   c #512100",
".  c #592600",
"X  c #552800",
"o  c #5A2B00",
"O  c #4E3400",
"+  c #4C3C01",
"@  c #5F3900",
"#  c #642C00",
"$  c #6D3300",
"%  c #613D00",
"&  c #653500",
"*  c #753600",
"=  c #773900",
"-  c #7D3B00",
";  c #484E06",
":  c #455500",
">  c #4A5506",
",  c #475900",
"<  c #4B5C00",
"1  c #4D4912",
"2  c #504416",
"3  c #554718",
"4  c #574919",
"5  c #594C1B",
"6  c #5B4C16",
"7  c #575414",
"8  c #5E5C15",
"9  c #5E511C",
"0  c #654200",
"q  c #6F4E00",
"w  c #734000",
"e  c #705100",
"r  c #795E00",
"t  c #6D5D1D",
"y  c #67571C",
"u  c #4E6101",
"i  c #526500",
"p  c #556A00",
"a  c #5C6C09",
"s  c #5E7500",
"d  c #5F6711",
"f  c #7D6300",
"g  c #637B00",
"h  c #6C7300",
"j  c #656413",
"k  c #726A1A",
"l  c #705B21",
"z  c #766321",
"x  c #796721",
"c  c #7D6A23",
"v  c #863F00",
"b  c #854200",
"n  c #8B4400",
"m  c #934600",
"M  c #954A00",
"N  c #9B4B00",
"B  c #8E5700",
"V  c #9D5100",
"C  c #905800",
"Z  c #935600",
"A  c #A45200",
"S  c #AD5500",
"D  c #B05600",
"F  c #B55A00",
"G  c #BA5C00",
"H  c #816100",
"J  c #897200",
"K  c #9F7300",
"L  c #937E00",
"P  c #93791B",
"I  c #A96B00",
"U  c #BF6300",
"Y  c #BF6800",
"T  c #B36900",
"R  c #A07900",
"E  c #B37300",
"W  c #BE7100",
"Q  c #BD7A00",
"!  c #836F26",
"~  c #857225",
"^  c #8F7A27",
"/  c #887428",
"(  c #8D7929",
")  c #887524",
"_  c #947E29",
"`  c #C05F00",
"'  c #C36300",
"]  c #CB6500",
"[  c #C76800",
"{  c #CC6A00",
"}  c #D36B00",
"|  c #DD6F00",
" . c #C27300",
".. c #D57100",
"X. c #DD7400",
"o. c #DB7B00",
"O. c #D47B00",
"+. c #E27300",
"@. c #E57A00",
"#. c #EA7B00",
"$. c #F07E00",
"%. c #668000",
"&. c #6B8500",
"*. c #6F8A00",
"=. c #718E00",
"-. c #759200",
";. c #799700",
":. c #7D9C00",
">. c #978200",
",. c #988300",
"<. c #9E8A00",
"1. c #AB890D",
"2. c #A59300",
"3. c #A98911",
"4. c #82A300",
"5. c #87A800",
"6. c #8AAC00",
"7. c #8EB100",
"8. c #92B500",
"9. c #96BB00",
"0. c #B3A300",
"q. c #BDAD00",
"w. c #BAB000",
"e. c #9C852B",
"r. c #9F882C",
"t. c #948127",
"y. c #A0892C",
"u. c #CC8600",
"i. c #DC8700",
"p. c #D88E00",
"a. c #E58100",
"s. c #EE8400",
"d. c #E58B00",
"f. c #F48500",
"g. c #F98600",
"h. c #FF8A00",
"j. c #E39700",
"k. c #EF9500",
"l. c #EB9C00",
"z. c #FF9400",
"x. c #FF9C00",
"c. c #CCA403",
"v. c #C5B600",
"b. c #CDBD00",
"n. c #F4A300",
"m. c #FFA100",
"M. c #FFAB00",
"N. c #FFB300",
"B. c #FFBA00",
"V. c #9CC300",
"C. c #A5CE00",
"Z. c #A7D000",
"A. c #ABD500",
"S. c #AED900",
"D. c #D2C400",
"F. c #D6C800",
"G. c #DBCD00",
"H. c #FFC400",
"J. c #FFCD00",
"K. c #E3D600",
"L. c #E7DA00",
"P. c #E9DC00",
"I. c #FFD300",
"U. c #FFDD00",
"Y. c #ECE000",
"T. c #FFE500",
"R. c #F6EA00",
"E. c #FEEC00",
"W. c #F2E500",
"Q. c #FFF300",
"!. c None",
/* pixels */
"!.!.!.!.!.!.!.!.!.!.!.!.!.!.!.!.!.!.!.!.!.!.!.!.!.!.!.!.!.!.!.!.!.!.!.!.!.!.!.!.!.!.: !.!.!.!.!.!.!.!.!.!.!.!.!.!.!.!.!.!.!.!.!.",
"!.!.!.!.!.!.!.!.!.!.!.!.!.!.!.!.!.!.!.!.!.!.!.!.!.!.!.!.!.!.!.!.!.!.!.!.!.!.!.!.!.!.!.u < !.!.!.!.!.!.!.!.!.!.!.!.!.!.!.!.!.!.!.",
"!.!.!.!.!.!.!.!.!.!.!.!.!.!.!.!.!.!.!.!.!.!.!.!.!.!.!.!.!.!.!.!.!.!.!.!.!.!.!.!.!.!.!., :.s , !.!.!.!.!.!.!.!.!.!.!.!.!.!.!.!.!.",
"!.!.!.!.!.!.!.!.!.!.!.!.!.!.!.!.!.!.!.!.!.!.!.!.!.!.!.!.!.!.!.!.!.!.!.!.!.!.!.!.!.!.!.!.-.7.s p : !.!.!.!.!.!.!.!.!.!.!.2 !.!.!.",
"!.!.!.!.!.!.!.!.!.!.!.!.!.!.!.!.!.!.!.!.!.!.!.!.!.!.!.!.!.!.!.!.!.!.!.!.!.!.!.!.!.!.!.!.u 9.-.*.g : !.!.!.!.!.!.!.!.6 3.3.2 !.!.",
"!.!.!.!.!.!.!.!.!.!.!.!.!.!.!.!.!.!.!.!.!.!.!.!.!.!.!.!.!.!.!.!.!.!.!.!.!.!.!.!.!.!.!.!., 5.7.s *.g : !.!.!.!.!.!.6 t c.c.2 !.!.",
"!.!.!.!.!.!.!.!.!.!.!.!.!.!.!.!.!.!.!.!.!.!.!.!.!.!.!.!.!.!.!.!.!.!.!.!.!.!.!.!.!.!.!.!.!.-.9.*.*.=.s !.!.!.!.!.2 ( e.P 1.2 !.!.",
"!.!.!.!.!.!.!.!.!.!.!.!.!.!.!.!.!.!.!.!.!.!.!.!.!.!.                          !.!.!.!.!.!.s 6.6.g *.*.< !.!.!.2 ~ y.( 9 2 !.!.!.",
"!.!.!.!.!.!.!.!.!.!.!.!.!.!.!.!.!.!.!.!.!.!.        X J 2.w.v.D.D.b.q.0.,.e           !.!.u 9.;.g *.=.s !.!.2 x y.( 5 2 !.!.!.!.",
"!.!.!.!.!.!.!.!.!.!.!.!.!.!.!.!.!.!.!.        >.v.K.Q.Q.Q.Q.Q.Q.Q.Q.Q.Q.Q.Q.W.D.2.@       , 9.7.i *.*.g : 2 z y./ 5 2 !.!.!.!.!.",
"!.!.!.!.!.!.!.!.!.!.!.!.!.!.!.!.!.      J b.R.Q.Q.Q.Q.Q.E.T.T.T.T.T.T.Q.Q.Q.Q.Q.Q.R.b.f   p 9.9.*.=.*.g 1 z r.! 5 2 !.!.!.!.!.!.",
"!.!.!.!.!.!.!.!.!.!.!.!.!.!.!.      <.K.Q.Q.Q.T.I.H.B.M.M.M.M.M.N.M.M.M.N.B.H.I.T.Q.Q.Q.w.*.9.9.&.*.g 7 x r.c 4 !.!.!.!.!.!.!.!.",
"!.!.!.!.!.!.!.!.!.!.!.!.!.!.    L L.Q.Q.U.H.M.M.M.M.M.M.M.M.M.M.M.M.M.M.M.M.M.M.M.M.B.I.0.5.9.8.s a 7 ~ e.z 3 !.!.!.!.!.!.!.!.!.",
"!.!.!.!.!.!.!.!.!.!.!.!.    q F.Q.E.J.N.M.M.M.M.M.M.M.M.M.M.M.M.M.M.M.M.M.M.M.M.M.M.l.E K 6.9.:.d 9 _ _ l 3 !.!.!.!.!.!.!.!.!.!.",
"!.!.!.!.!.!.!.!.!.!.!.    2.R.Q.J.M.M.M.M.M.M.M.M.N.N.M.M.M.M.M.M.M.M.M.M.M.M.n.B p.M.& f 4.8.j t e.) 8 > u i < : !.!.!.!.!.!.!.",
"!.!.!.!.!.!.!.!.!.!.  X b.Q.U.N.M.M.M.M.M.M.M.M.M.N.M.M.N.B.M.x.x.x.z.z.z.h.z.d.W   E B + &.8 c t.j p &.-.-.-.-.&.p : !.!.!.!.!.",
"!.!.!.!.!.!.!.!.    0 K.Q.J.M.M.M.M.M.M.M.N.M.M.M.M.M.x.x.M.x.h.h.h.h.h.h.@.Z n n o   .   ; y k s :.6.7.7.8.8.5.5.5.;.p : !.!.!.",
"!.!.!.!.!.!.!.!.  q P.Q.B.M.M.M.M.M.M.M.N.B.N.M.x.z.h.h.h.h.h.h.h.h.h.h.h.s.s.s.h.h.X.w   + > =.4.-.*.*.*.=.&.-.6.9.9.7.*.< !.!.",
"!.!.!.!.!.!.!.  e Y.E.N.M.M.M.M.M.M.M.M.M.N.x.h.z.x.x.x.h.h.h.h.h.h.h.h.h.s.s.s.g.h.h.g.A X i V.V.9.:.-.6.5.:.-.*.u %.:.9.4.i !.",
"!.!.!.!.!.!.  % L.Q.B.M.M.M.M.B.B.M.M.M.x.h.h.z.m.x.m.m.m.h.h.h.h.h.h.h.h.g.f.f.h.h.h.h.g.V O g C.A.Z.6.9.9.9.9.9.5.;.7.:.4.;.u ",
"!.!.!.!.!.    G.Q.H.M.M.M.M.M.M.M.M.m.h.h.h.h.z.m.m.m.m.m.z.h.h.h.h.h.h.h.h.h.h.h.h.h.h.h.g.= O < 4.C.S.V.S.S.A.A.A.C.Z.S.A.6., ",
"!.!.!.!.    q.Q.J.M.M.M.M.M.M.M.M.x.z.z.h.h.h.x.x.m.x.m.x.h.h.h.h.h.h.h.h.h.h.h.z.h.h.h.h.h.X.  Z p.K h =.:.5.7.6.4.:.=.g , : !.",
"!.!.!.!.  J Q.T.M.M.M.M.M.N.N.M.z.h.z.x.h.h.h.h.m.m.m.x.x.h.h.h.h.h.h.h.h.h.h.z.m.x.h.h.h.h.h.M $ m.m.x.f.a.o.O.T O O !.!.!.!.!.",
"!.!.!.  X P.Q.N.M.M.M.M.M.B.B.x.h.h.h.h.h.h.h.h.h.z.x.z.h.h.h.h.h.h.h.h.h.h.h.h.z.h.h.h.h.h.h.o.  k.m.x.h.h.h.h.h.b   !.!.!.!.!.",
"!.!.    0.Q.I.M.M.M.M.M.M.M.x.h.h.h.h.h.h.h.h.h.h.h.h.h.h.h.h.h.h.g.f.f.h.h.h.h.h.h.h.f.h.h.h.h.= d.x.h.h.h.h.h.h.X.    !.!.!.!.",
"!.!.  % R.E.N.M.M.M.M.M.M.z.h.h.h.h.h.h.h.h.h.h.h.h.h.h.h.h.h.h.g.s.s.s.f.z.h.h.h.h.h.g.h.h.h.h.X.f.h.h.h.h.h.h.h.h.n   !.!.!.!.",
"!.!.  0.Q.J.M.M.M.N.M.M.h.h.h.m.m.h.h.h.h.m.M.M.m.h.h.h.h.h.h.h.g.s.s.s.f.h.h.h.h.h.h.h.h.h.h.h.h.g.h.h.h.h.h.h.h.h...    !.!.!.",
"!.    L.Q.M.M.M.M.M.M.z.h.h.x.M.M.h.h.h.x.M.M.M.M.m.h.h.h.h.h.h.h.s.s.s.g.h.h.h.h.z.x.x.h.h.h.h.h.s.s.g.h.h.h.h.h.h.g.$   !.!.!.",
"!.  r Q.I.M.M.M.M.M.m.h.h.h.h.M.x.h.h.h.M.M.M.M.M.M.h.h.h.h.h.h.h.h.g.g.h.h.h.h.z.x.i. .{ #.h.h.h.s.s.h.h.h.h.h.h.h.h.F   !.!.!.",
"!.  0.Q.B.M.M.M.M.M.h.h.h.h.h.h.h.h.h.h.M.M.M.M.M.M.h.h.h.h.h.h.h.h.h.h.h.h.h.h.h.d.W W Y Y g.h.h.h.h.h.h.h.h.h.h.h.h.@.    !.!.",
"    D.T.M.M.M.M.M.M.x.z.h.h.h.h.h.h.h.h.x.M.M.M.M.x.h.h.h.h.h.h.h.h.h.h.h.h.h.h.h.X.Y Y U U f.h.h.h.h.h.h.h.h.h.h.h.h.h.&   !.!.",
"    P.I.M.M.M.M.M.x.m.m.h.h.h.h.h.h.h.h.h.z.M.m.x.h.h.h.z.z.h.h.h.h.h.h.h.h.h.h.h.#.U U U [ g.h.h.h.h.h.h.h.h.h.f.s.g.h.V   !.!.",
"    R.N.M.M.M.M.m.x.m.m.h.h.h.h.h.h.h.h.h.h.h.h.h.h.h.h.z.M.h.h.h.h.h.h.h.h.h.h.h.h.s...X.g.h.h.h.h.h.h.h.h.h.g.s.s.s.h.Y   !.!.",
"  o E.M.M.M.M.M.h.z.x.h.h.h.h.h.z.x.z.h.h.h.h.h.h.h.h.h.h.h.h.h.h.f.f.h.h.h.h.h.h.g.h.h.h.g.h.h.h.h.h.h.f.@.h.h.s.s.g.h.}     !.",
"  0 U.M.M.M.M.z.h.h.h.h.h.h.h.h.h.x.z.h.h.h.h.h.h.h.h.h.h.h.h.h.g.s.s.f.h.h.h.h.f.s.h.h.h.h.h.g.f.g.h.h.o.Y h.h.h.h.h.h.X.    !.",
"  q J.M.M.M.M.h.h.h.h.h.h.h.h.h.h.h.h.h.h.h.h.h.h.h.h.h.h.h.h.h.g.s.s.h.h.h.h.h.h.g.h.h.h.h.h.f.s.s.h.h.h.h.h.h.h.h.h.h.+.    !.",
"  % B.M.M.M.m.h.h.h.h.h.h.h.h.h.h.h.h.h.h.h.h.h.h.h.h.g.h.h.h.h.h.g.h.h.h.h.h.h.h.h.h.h.h.h.h.g.s.s.h.h.h.h.h.h.h.h.h.h.X.    !.",
"  X M.M.M.M.z.h.h.h.h.h.h.h.h.h.h.h.h.h.h.h.h.h.h.h.g.s.h.h.h.h.h.h.h.h.h.h.h.h.h.h.h.h.h.h.h.h.h.h.h.h.h.h.h.h.h.h.h.f.|     !.",
"    n.M.M.M.h.h.h.h.h.h.h.g.s.s.s.g.h.h.h.h.h.h.h.h.h.h.h.h.h.h.h.h.h.h.h.z.h.h.h.h.h.h.h.h.h.h.h.h.h.h.h.h.h.h.h.h.h.#.|     !.",
"    j.M.M.M.m.h.h.h.h.h.z.s.s.s.s.f.h.h.h.m.m.h.h.h.h.h.h.h.h.h.h.h.h.g.g.s.g.h.h.h.h.h.h.h.h.h.h.h.h.h.h.h.h.h.h.h.g.| }     !.",
"    u.M.M.M.x.h.h.h.h.h.h.s.s.s.s.s.h.h.z.x.m.z.h.h.h.h.h.h.h.h.h.h.h.f.s.s.s.f.h.h.h.h.h.h.h.h.h.h.h.h.h.g.f.g.h.h.@.| ]     !.",
"!.  I M.M.h.h.h.h.h.h.h.h.s.s.s.s.s.h.h.h.z.z.h.h.h.h.h.h.h.h.h.h.h.h.h.s.s.s.g.h.h.h.h.h.h.h.h.h.@.X.h.h.s.s.s.g.f.| | G     !.",
"!.  w M.M.h.h.h.h.h.h.h.h.h.g.s.g.h.h.h.h.h.h.h.h.h.h.h.h.h.h.h.h.h.h.h.f.s.g.h.h.h.h.h.h.h.h.h.g.U Y #.h.s.#.f.g.+.| | A   !.!.",
"!.    l.M.h.h.h.h.h.h.h.h.h.h.h.h.h.h.h.h.h.h.h.h.h.h.h.h.h.#.X.s.h.h.h.h.h.h.f.X.g.h.h.h.h.h.h.h.X...g.h.g.f.g.+.| | | v   !.!.",
"!.    Q x.h.h.f.h.h.h.h.h.h.h.h.h.h.h.h.h.h.g.g.h.h.h.h.h.@.U U Y f.h.h.h.h.h.h.f.h.h.h.h.h.h.h.h.h.h.h.h.h.h.#.| | | | .   !.!.",
"!.!.  w z.h.g.f.g.h.h.h.h.h.h.h.h.h.h.h.h.h.f.s.g.h.h.h.h.} U U U @.h.h.h.h.h.h.h.h.h.h.h.h.h.s.f.h.h.h.h.h.@.+.| | | G     !.!.",
"!.!.    o.h.h.h.h.h.h.h.h.h.h.h.h.h.h.h.h.h.g.f.h.h.h.h.h.@.U U ' f.h.h.h.h.h.h.h.h.h.h.h.h.h.g.h.h.h.h.h.#.| | | | | n   !.!.!.",
"!.!.!.  N h.h.h.h.h.h.h.h.h.h.h.h.h.h.h.h.h.h.h.h.h.h.h.h.h.f.@.g.h.h.h.h.h.h.h.h.h.h.h.h.h.h.h.h.h.h.h.@.| | | | | }     !.!.!.",
"!.!.!.    @.h.h.h.h.h.h.h.h.h.h.h.h.g.h.h.h.h.h.h.h.h.h.h.h.h.h.h.h.h.h.h.h.h.h.h.h.h.z.h.h.h.h.h.h.g.+.| | | | | | N     !.!.!.",
"!.!.!.!.  N g.h.h.h.h.h.h.h.h.h.g.o.U f.h.h.h.h.h.h.h.h.h.h.h.h.h.h.h.h.h.h.o.#.h.h.M.M.x.h.h.h.h.g.+.| | | | | +.] .   !.!.!.!.",
"!.!.!.!.    ] g.h.h.h.h.h.h.h.h.h.#...g.h.h.h.h.h.h.h.h.h.h.h.h.h.h.h.h.h.#.U ' h.h.x.M.z.h.h.h.#.| | | | | | | | v .   !.!.!.!.",
"!.!.!.!.!.. m +.f.h.h.h.h.h.h.h.h.h.h.g.s.s.f.h.h.h.h.h.h.h.h.h.h.h.h.h.h.h.+.#.h.h.h.h.h.h.$.+.| | | | | | | | D     !.!.!.!.!.",
"!.!.!.!.!.    ' +.$.h.h.h.f.f.g.h.h.h.s.s.s.s.g.h.h.h.h.h.h.h.h.h.h.g.g.h.h.h.h.h.h.h.h.h.@.| | | | | | | | | ] .   !.!.!.!.!.!.",
"!.!.!.!.!.!.  * } | @.h.h.f.s.h.h.h.h.s.s.s.s.g.h.h.h.h.h.{ @.h.h.h.f.s.g.h.h.h.h.h.h.#.| | | | | | | | | | ] o     !.!.!.!.!.!.",
"!.!.!.!.!.!.!.X N | | +.$.h.h.h.h.h.g.g.s.s.f.h.h.h.h.h.h.X.#.h.h.h.g.g.h.h.h.h.g.#.| | | | | | | | | | | ] #     !.!.!.!.!.!.!.",
"!.!.!.!.!.!.!.!.  v } | | +.f.h.h.h.h.h.g.g.h.h.h.h.h.h.h.h.h.h.h.h.h.h.h.h.$.@.| | | | | | | | | | | | G .     !.!.!.!.!.!.!.!.",
"!.!.!.!.!.!.!.!.!.. # G +.| | +.$.g.h.h.h.h.h.h.h.h.h.h.h.h.h.h.h.h.g.$.#.| | | | | | | | | | | | | } M       !.!.!.!.!.!.!.!.!.",
"!.!.!.!.!.!.!.!.!.  . # v } | | | | +.@.$.$.g.h.h.h.h.h.h.h.$.$.#.+.| | | | | | | | | | | | | | | G #     !.!.!.!.!.!.!.!.!.!.!.",
"!.!.!.!.!.!.!.!.!.!.X } ` D ` } | | | | +.| | | | | | | } +.| | X.| | | | | | | | | | | | | } G *       !.!.!.!.!.!.!.!.!.!.!.!.",
"!.!.!.!.!.!.!.!.!.!.  v | | | | | | | +.| | | | | | | | | | | | | | | | | | | | | | | | ] A # .     !.!.!.!.!.!.!.!.!.!.!.!.!.!.",
"!.!.!.!.!.!.!.!.!.!.!.  * D ] ] F m F ] | | | | | | | | | | | | | | | | | | | | } ` A $         !.!.!.!.!.!.!.!.!.!.!.!.!.!.!.!.",
"!.!.!.!.!.!.!.!.!.!.!.!.!.              * N D ` ] | | | | | | | | | | ] ' D N *             !.!.!.!.!.!.!.!.!.!.!.!.!.!.!.!.!.!.",
"!.!.!.!.!.!.!.!.!.!.!.!.!.!.!.!.!.!.!.!.            . * - - - - * .                   !.!.!.!.!.!.!.!.!.!.!.!.!.!.!.!.!.!.!.!.!.",
"!.!.!.!.!.!.!.!.!.!.!.!.!.!.!.!.!.!.!.!.!.!.!.!.!.    .                     !.!.!.!.!.!.!.!.!.!.!.!.!.!.!.!.!.!.!.!.!.!.!.!.!.!."
};
