/* XPM */
static char *fruta_2_resized[] = {
/* columns rows colors chars-per-pixel */
"32 32 134 2 ",
"   c None",
".  c #292000",
"X  c #2A2100",
"o  c #2B2200",
"O  c #2C2300",
"+  c #2D2300",
"@  c #2D2400",
"#  c #2E2400",
"$  c #2E2500",
"%  c #2F2500",
"&  c #302500",
"*  c #302600",
"=  c #312700",
"-  c #322700",
";  c #322800",
":  c #332800",
">  c #332900",
",  c #342900",
"<  c #352A00",
"1  c #362A00",
"2  c #362B00",
"3  c #372C00",
"4  c #382C00",
"5  c #382D00",
"6  c #392D00",
"7  c #392E00",
"8  c #3A2E00",
"9  c #3B2F00",
"0  c #3D3100",
"q  c #3E3100",
"w  c #3E3200",
"e  c #3F3200",
"r  c #403300",
"t  c #413300",
"y  c #413400",
"u  c #423400",
"i  c #423500",
"p  c #433500",
"a  c #443600",
"s  c #443700",
"d  c #453700",
"f  c #463700",
"g  c #463800",
"h  c #473800",
"j  c #473900",
"k  c #483900",
"l  c #483A00",
"z  c #493A00",
"x  c #493B00",
"c  c #4A3B00",
"v  c #4B3B00",
"b  c #4B3C00",
"n  c #4C3C00",
"m  c #4C3D00",
"M  c #4D3D00",
"N  c #4E3E00",
"B  c #4F3E00",
"V  c #4F3F00",
"C  c #503F00",
"Z  c #504000",
"A  c #514000",
"S  c #514100",
"D  c #524100",
"F  c #534200",
"G  c #544300",
"H  c #554300",
"J  c #554400",
"K  c #564400",
"L  c #564500",
"P  c #574500",
"I  c #584600",
"U  c #594600",
"Y  c #584700",
"T  c #594700",
"R  c #5A4700",
"E  c #5A4800",
"W  c #5B4800",
"Q  c #5B4900",
"!  c #5C4900",
"~  c #5C4A00",
"^  c #5D4A00",
"/  c #5D4B00",
"(  c #5E4B00",
")  c #5F4B00",
"_  c #5F4C00",
"`  c #604C00",
"'  c #604D00",
"]  c #614D00",
"[  c #614E00",
"{  c #624E00",
"}  c #634E00",
"|  c #634F00",
" . c #644F00",
".. c #635000",
"X. c #645000",
"o. c #655000",
"O. c #655100",
"+. c #665100",
"@. c #665200",
"#. c #675200",
"$. c #685200",
"%. c #685300",
"&. c #695300",
"*. c #695400",
"=. c #6A5400",
"-. c #6A5500",
";. c #6B5500",
":. c #6B5600",
">. c #6C5600",
",. c #6D5700",
"<. c #6E5700",
"1. c #6E5800",
"2. c #6F5800",
"3. c #705900",
"4. c #705A00",
"5. c #715A00",
"6. c #715B00",
"7. c #725B00",
"8. c #735C00",
"9. c #745D00",
"0. c #755D00",
"q. c #775F00",
"w. c #785F00",
"e. c #786000",
"r. c #796000",
"t. c #796100",
"y. c #7A6200",
"u. c #7B6200",
"i. c #7C6300",
"p. c #7D6400",
"a. c #7F6500",
"s. c #7F6600",
"d. c #806600",
"f. c #826800",
/* pixels */
"                                                                ",
"                                                                ",
"                                      X X       : b x Z g 1     ",
"                          .     % * = < : % < a Y T W I v       ",
"                    - 1 9 k Z S H I ^ ` L H X.;.[ X.E K q       ",
"              $ t Y :.9.0.7.<.;.$.` G B I #.#.' #.~ _ g         ",
"            e } p.f.r.1.*.#.X.I z d F o.;.| X.-.[ #.A &         ",
"        $ N t.f.8.;.#.@.X.R n M ! -.<.%.{ #.=.#.>._ w g $       ",
"        G d.u.=.*.:.&.X.) ' &.<.>.%.#.+.*.&.X.} O.f D 9 -       ",
"      M s.y.=.-.>.>.;.&.;.-.&.#.#.&.:.*.#.' ~ =.H G z : ;       ",
"    r e.i.,.;.;.>.>.>.&.#.#.#.#.=.-.%.O.! ^ ,.&._ E 8 4     o   ",
"    | d.2.-.O.-.>.>.>.*.#.#.#.&.*.#.| W ..6.;.' | k r =   o     ",
"  s i.9.>.] o.>.>.>.=.%.#.#.#.#.#.{ / *.8.:.] ~ R j 6 o o       ",
"  ~ a.<.+.W ;.>.>.=.O.-.$.#.#.@.| } =.6.:.X.H [ J s # o         ",
"2 3.w.>.! [ >.>.>. .%.>.$.#.#.+.+.*.4.>.+.A H ~ N 7 o o o       ",
"q t.5.&.Y *.>.>.%.+.>.>.%.#.+.{ @.2.>.#.P M L M h = o           ",
"c y.1. .^ >.>.>.&.:.>.>.%.[ P ) :.>.#.^ J Q N V r +             ",
"N q.,.' O.>.>.>.>.>.>.:.! A ) &.:.#.[ ^ ] C D k 3 X o           ",
"M 7.>.{ *.>.>.>.>.>.-./ G } $.%.#.o.| #.) P k u = o             ",
"k ,.:.+.;.>.>.>.>.=.] ' +.$.( ! #.@.#.O.~ V r q                 ",
"9 O.>.*.-.@.=.>.>.&.*.-.#.$.G C O.O.@.! F x f ,                 ",
"* U ,.:.| W ) :.>.>.>.&.#.#.O.o.B b Q N b N t +                 ",
"  t @.;.) ! ! -.>.>.:.$.#.#.o.[ n e c l Z B ,                   ",
"  : F @.) F T >.;.-.=.#.#.$.S q P l g B P t +                   ",
"  % B O.%._ #.>.' U +.#.#.%.H 9 a d N L b >                     ",
"    5 ~ +.K / >.) N { #.#.| F r u n A m 9                       ",
"      e F A H &.&.| _ P Z k t d c b v y %                       ",
"      # r V Z F R T J m k l c v c c s ;                         ",
"        $ q h e z z l z x c c x l i >                           ",
"          O , 3 a z f p y t p s q -                             ",
"              O : w a f d i 0 2 #                               ",
"                  O $ & * % @                                   "
};
