/* XPM */
static char *result[] = {
/* columns rows colors chars-per-pixel */
"64 64 162 2 ",
"   c #151B00",
".  c #1A1D01",
"X  c #231A00",
"o  c #2F1900",
"O  c #351500",
"+  c #3E1100",
"@  c #351A00",
"#  c #3B1900",
"$  c #1D2501",
"%  c #222C01",
"&  c #242A09",
"*  c #253000",
"=  c #283400",
"-  c #2E3C01",
";  c #2A310D",
":  c #2F3A09",
">  c #303F01",
",  c #313A0F",
"<  c #550000",
"1  c #5B0000",
"2  c #530900",
"3  c #451A00",
"4  c #4B1900",
"5  c #501600",
"6  c #5B1600",
"7  c #511900",
"8  c #630000",
"9  c #6A0000",
"0  c #650A00",
"q  c #6D0F00",
"w  c #740000",
"e  c #7C0000",
"r  c #730C00",
"t  c #7D0A00",
"y  c #631100",
"u  c #6A1000",
"i  c #7A1300",
"p  c #324201",
"a  c #3B4E01",
"s  c #37420E",
"d  c #39450D",
"f  c #3D4A0E",
"g  c #3E5102",
"h  c #374111",
"j  c #394410",
"k  c #3E4912",
"l  c #404D0F",
"z  c #415502",
"x  c #455B02",
"c  c #495F02",
"v  c #45540E",
"b  c #4A5C0D",
"n  c #414D13",
"m  c #455314",
"M  c #495617",
"N  c #4D5C14",
"B  c #4A5718",
"V  c #4D5B19",
"C  c #505E19",
"Z  c #4C6302",
"A  c #556E04",
"S  c #51620F",
"D  c #586B0F",
"F  c #577104",
"G  c #5A7503",
"H  c #5E7A03",
"J  c #5E720E",
"K  c #546612",
"L  c #5A6C11",
"P  c #54631B",
"I  c #58671C",
"U  c #5B6B1D",
"Y  c #5E7112",
"T  c #5F701C",
"R  c #617E03",
"E  c #627514",
"W  c #657A13",
"Q  c #62731E",
"!  c #66791C",
"~  c #687C1A",
"^  c #657720",
"/  c #677920",
"(  c #6A7C21",
")  c #840000",
"_  c #8B0000",
"`  c #880900",
"'  c #930000",
"]  c #9B0000",
"[  c #8E1000",
"{  c #931100",
"}  c #A40000",
"|  c #AC0000",
" . c #B40000",
".. c #BC0000",
"X. c #BD0C00",
"o. c #A71200",
"O. c #AD1200",
"+. c #C30000",
"@. c #CC0000",
"#. c #C70C0C",
"$. c #D40000",
"%. c #DA0000",
"&. c #C71010",
"*. c #C81212",
"=. c #CC1D1D",
"-. c #DE1414",
";. c #E30101",
":. c #ED0100",
">. c #F40101",
",. c #FE0000",
"<. c #E21F1F",
"1. c #FF1313",
"2. c #CF2121",
"3. c #D12525",
"4. c #DC3434",
"5. c #DF3838",
"6. c #E12F2F",
"7. c #E82E2E",
"8. c #F42727",
"9. c #FF2020",
"0. c #F32C2C",
"q. c #FF2B2B",
"w. c #E33131",
"e. c #EB3232",
"r. c #E53E3E",
"t. c #F13131",
"y. c #FF3131",
"u. c #F33F3F",
"i. c #FF3C3C",
"p. c #EC4545",
"a. c #EF4949",
"s. c #FC4444",
"d. c #F44D4D",
"f. c #FF5757",
"g. c #658304",
"h. c #688704",
"j. c #6C8C04",
"k. c #6F9005",
"l. c #749505",
"z. c #6D8314",
"x. c #708715",
"c. c #738B14",
"v. c #71861E",
"b. c #748B1C",
"n. c #779012",
"m. c #7A9314",
"M. c #7F9915",
"N. c #7D941E",
"B. c #7F981E",
"V. c #6F8223",
"C. c #718523",
"Z. c #758A21",
"A. c #788E20",
"S. c #7A9120",
"D. c #829D16",
"F. c #839D1C",
"G. c #87A316",
"H. c #8AA617",
"J. c #87A21B",
"K. c #8AA61A",
"L. c #8DAA18",
"P. c None",
/* pixels */
"P.P.P.P.P.P.P.P.P.P.P.P.P.P.P.P.P.P.P.P.P.P.P.P.P.P.P.P.P.P.P.; ; ; ; ; ; P.P.P.P.P.P.P.P.P.P.P.P.P.P.P.P.P.P.P.P.P.P.P.P.P.P.P.",
"P.P.P.P.P.P.P.P.P.P.P.P.P.P.P.P.P.P.P.P.P.P.P.P.P.P.P.P.P.; ; m W c.m.z.S h ; P.P.P.P.P.P.P.P.P.P.P.P.P.P.P.P.P.P.P.P.P.P.P.P.P.",
"P.P.P.P.P.P.P.P.P.P.P.P.P.P.P.P.P.P.P.P.P.P.P.P.P.P.P.; : Y D.L.L.L.L.L.G.n.c.m ; P.P.P.P.P.P.P.P.P.P.P.P.P.P.P.P.P.P.P.P.P.P.P.",
"P.P.P.P.P.P.P.P.P.P.P.P.P.P.P.P.P.P.P.P.P.P.P.P.P.; ; N v.~ ! C.b.S.F.F.H.G.m.L.m.; ; ; ; ; ; ; ; ; P.P.P.P.P.P.P.P.P.P.P.P.P.P.",
"P.P.P.P.P.P.P.P.P.P.P.P.P.P.P.P.P.P.P.P.P.P.P.P.; h Q V.V.V.V.T I ^ ( V.V.Z.b.m.H.; m S Y L L V f ; ; ; ; P.P.P.P.P.P.P.P.P.P.P.",
"P.P.P.P.P.P.P.P.P.P.P.P.P.P.P.P.P.P.P.P.P.P.P.; h U ( V.V.C.V.V.( ( U T ( C.( Q E ; c.M.H.L.L.L.L.H.m.L ; ; P.P.P.P.P.P.P.P.P.P.",
"P.P.P.P.P.P.P.P.P.P.P.P.P.P.P.P.P.P.P.P.P.P.; I ^ Q U P U ( V.C.V.( T P m B V P Q ; c.H.n.J.S.F.F.J.L.L.D.j ; P.P.P.P.P.P.P.P.P.",
"P.P.P.P.P.P.P.P.P.P.P.P.P.P.P.P.P.P.P.P.; ; T V.V.V.V.V.( U C C B B U ^ ( ( ^ V.C.; z.L.c.U V.V.V.V.Z.J.L.D.s ; P.P.P.P.P.P.P.P.",
"P.P.P.P.P.P.P.P.P.P.P.P.P.P.P.P.P.P.P.; , M U V.V.^ U V P U ^ ( ( T V.V.V./ / V.Z.; z.L.x.B / V.V.V.V.V.B.H.m.; P.P.P.P.P.P.P.P.",
"P.P.P.P.P.P.P.P.P.P.P.P.P.P.P.P.P.P.P., ^ / U P P T / V.V.V.V.V.I ( V.V.V.U V.Z.Y ; z.L.z.^ m U U U U U I ! M.D ; P.P.P.P.P.P.P.",
"P.P.P.P.P.P.P.P.P.P.P.P.P.P.P.P.P.P.; V U T ( V.V.V.V.V.V.V.V.! U V.V.V.^ / b.D.$ ; W H.x.V.I P V.V.V.V.V.( V.D.f ; P.P.P.P.P.P.",
"P.P.P.P.P.P.P.P.P.P.P.P.P.P.P.P.P.; ; k k Q V.V.V.V.V.V.V.V.V.P V.V.V.( ! F.L.J x d E D.M.V.V.B ^ V.V.V.V.C.V.Z.x.; P.P.P.P.P.P.",
"P.P.P.P.P.P.P.P.P.P.P.P.P.P.P.P.P.P.P.P.; ; ; n V U ^ Q ! V.Q U V.V.S.c.H.D.W $ h.v L m.G.C.V.U m ( V.V.V.V.V.V.Z.l ; P.P.P.P.P.",
"P.P.P.P.P.P.P.P.P.P.P.P.P.P.P.P.P.P.P.P.P.P.P.P.; ; ; ; , n h N I E L m s ; & a l.x S c.H.N.V.T P C V.V.V.V.V.V.C.U ; P.P.P.P.P.",
"P.P.P.P.P.P.P.P.P.P.P.P.P.P.P.P.P.P.P.P.P.P.P.P.P.P.P.P.& : f ; ; ; ; ; ; ; . H l.: h m.L.B.V.Q / V I ^ ^ ^ / / / / , ; P.P.P.P.",
"P.P.P.P.P.P.P.P.P.P.P.P.P.P.P.P.P.P.P.P.P.P.P.P.P.P.P.P.$ g.l.A   P.P.P.P.P.% l.R $ ; m.L.J.V.^ ^ ( M P Q U U P P P k ; P.P.P.P.",
"P.P.P.P.P.P.P.P.P.P.P.P.P.P.P.P.P.P.P.P.P.P.P.P.P.P.P.  G l.H   P.P.P.P.P.  x l.x $ ; c.L.L.Z.( T V.^ M ( V.V.V.V.V.( ; P.P.P.P.",
"P.P.P.P.P.P.P.P.P.P.P.P.P.P.P.P.P.P.P.P.P.P.P.P.P.P.  Z l.h.$ P.P.P.P.P.P.  R l.% P.; m L.L.S.( U V.V.U C C.V.V.V.V.C.n ; P.P.P.",
"P.P.P.P.P.P.P.P.P.P.P.P.P.P.P.P.P.P.P.P.P.P.P.P.P.  - l.l.p   P.P.P.P.P.P.  l.g.  P.P.; c.L.H.V.I V.V.( B U C.( V.V.( n ; P.P.P.",
"P.P.P.P.P.P.P.P.P.P.P.P.P.P.P.P.P.P.P.P.P.P.P.P.P.  g.l.Z   P.P.P.P.P.P.P.p l.G   P.P.; j H.L.S.I V.V.V.T B ^ C.V.V.V./ ; P.P.P.",
"P.P.P.P.P.P.P.P.P.P.P.P.P.P.P.P.P.P.P.P.P.P.P.P.  Z l.g.  P.P.P.P.P.P.P.  Z l.x   P.P.P.; N H.H.P V.V.V.U ( M / V.V.V.C.n ; P.P.",
"P.P.P.P.P.P.P.P.P.< < < < < < < < < P.P.P.P.P.P.* l.l.p P.P.P.P.P.P.P.P.  F l.p P.P.P.P.P.; K L.E V.V.V.^ / ^ C V.V.V.V.U ; P.P.",
"P.P.P.P.P.P.P.< < < < ) }  . .] e < < < < P.P.  G l.F   P.P.P.P.P.P.P.P.  g.l.$ P.P.P.P.P.P.; K c.V.V.V.^ ^ ( U I V.V.V./ ; P.P.",
"P.P.P.P.P.P.< < 9 ..>.,.,.,.,.,.,.>.@.) < < # p l.k.% P.P.P.P.P.P.P.P.P.  j.j.  P.P.P.P.P.P.P.; k b.V.V.( P V.V.C ^ V.V.C.h P.P.",
"P.P.P.P.P.< < | >.,.,.,.,.>.>.>.,.,.>.,.%.0   h.l.Z   P.P.P.P.P.P.P.P.P.  l.g.  P.P.P.P.P.P.P.P.; , U V.V.B V.V.( C / C.V.V ; P.",
"P.P.P.P.< < @.9.s.f.f.6.+.+.+. .| { . 3 5 $ F l.k.$ P.P.P.P.P.P.P.P.P.P.* l.g.  P.P.P.P.P.P.P.P.P.; ; m / P ^ V.C.( V ( V.U ; P.",
"P.P.P.< < +.1.f.f.f.f.f.3.+.] 1 } . Z R R j.l.l.Z O P.P.P.P.P.P.P.P.P.P.- l.H   P.P.P.P.P.P.P.P.P.P.P.; ; n P C.V.V.^ P V.( ; P.",
"P.P.< < } ,.y.f.f.f.f.f.p.+.w 8 ` $ A R l.l.l.l.% 2 < P.P.P.P.P.P.P.P.P.a l.G   P.P.P.P.P.P.P.P.P.P.P.P.; ; ; P ( ( P ^ U ( j P.",
"P.P.< 9 >.,.w.f.f.f.f.f.d.+.w < ) @ z F H k.l.k.  %.1 < P.P.P.P.P.P.P.P.a l.G   P.P.P.P.P.P.P.P.P.P.P.P.P.P.; ; ; B k V.U U , P.",
"P.< < +.,.-.3.f.f.f.f.f.d.+.' < 8 t . x F F g.k.* X.@.< < P.P.P.P.P.P.P.g l.F   P.P.P.P.P.P.P.P.P.P.P.P.P.P.P.P.; ; ; m U U M ; ",
"P.< 1 >.>.d.4.a.f.f.f.f.r.+...1 < 9 t X a A F F x # %.] < P.P.P.P.P.P.P.g l.G   P.P.P.P.P.P.P.P.P.P.P.P.P.P.P.P.P.P.P.; ; ; : ; ",
"P.< } ,.w.f.p.#.r.d.d.4.+.+.+.| < < w t # % z c g 3 +.$.1 < P.P.P.P.P.P.a l.H   P.P.P.P.P.P.P.P.P.P.P.P.P.P.P.P.P.P.P.P.P.; ; ; ",
"< < $.>.f.f.p.+.+.+.+.+.+.+.+.+. .8 < 1 e r 5 o # ` ..+.) < P.P.< < < + a l.R   P.P.P.P.P.P.P.P.P.P.P.P.P.P.P.P.P.P.P.P.P.P.P.P.",
"< < :.0.f.f.4.+.+.+.+.+.+.+.+.+.+..._ < < < 9 w w 1  ..._ < < < 8 _ _ y x l.g.X < < P.P.P.P.P.P.P.P.P.P.P.P.P.P.P.P.P.P.P.P.P.P.",
"< < >.u.f.d.+.+.+.+.+.+.+.+.+.+.+.+.+. ._ 1 < < 8 ] ] 1 < ' @.:.,.,.:.7 R l.j.  } 0 < < P.P.P.P.P.P.P.P.P.P.P.P.P.P.P.P.P.P.P.P.",
"< 9 ,.p.f.2.+.+.+.+.+.+.+.+.+.+.+.+.+.+.+.+. ... .9 < ' :.,.,.,.>.O.# Z l.l.l.> o.:.+.9 < P.P.P.P.P.P.P.P.P.P.P.P.P.P.P.P.P.P.P.",
"< w >.=.3.+.+.+.+.+.+.+.+.+.+.+.+.+.+.+.+.+.+. .8 < +.,.,.,.:.+.i - H l.l.l.l.h.* @ +.$.' < < P.P.P.P.P.P.P.P.P.P.P.P.P.P.P.P.P.",
"< 8 >.+.+.+.+.+.+.+.+.+.+.+.+.+.+.+.+.+.+.+. .8 1 %.,.,.>.$.| ] 6 x F H R g.R R A p [ +.+._ < < P.P.P.P.P.P.P.P.P.P.P.P.P.P.P.P.",
"< < ;.+.+.+.+.+.+.+.+.+.+.+.+.+.+.+.+.+.+.+.w < @.,.,.;.+.+.w w u * c A F F F F Z % t | +...w < P.P.P.P.P.P.P.P.P.P.P.P.P.P.P.P.",
"< < +.+.+.+.+.+.+.+.+.+.+.+.+.+.+.+.+.+.+.} < ] ,.q.s.5.&.+.e < w y o $ > > > % . u w _ +.+.| 8 < P.P.P.P.P.P.P.P.P.P.P.P.P.P.P.",
"P.< ] +.+.+.+.+.+.+.+.+.+.+.+.+.+.+.+.} ' 8 < :.s.f.f.f.d.*.| < < 1 e t u u u r w 8 < | +.+.+.e < < P.P.P.P.P.P.P.P.P.P.P.P.P.P.",
"P.< w +.+.+.+.+.+.+.+.+.+.+.+.+.+.+..._ e < ] q.f.f.f.f.f.a.+.} 1 < < < 1 1 1 < < 1 } +.+.+.+.] 8 < P.P.P.P.P.P.P.P.P.P.P.P.P.P.",
"P.< < } +.+.+.+.+.+.+.+.+.+.+.+.+.+...' 9 < $.i.f.f.f.f.f.f.*.+...] w 8 < < 8 w ] ..+.+.+.+.+.} w 1 < P.P.P.P.P.P.P.P.P.P.P.P.P.",
"P.P.< 8 } +.+.+.+.+.+.+.+.+.+.+.+.+.+. .1 < >.q.f.f.f.f.f.f.*.+.+.+.+.+.+.+.+.+.+.+.+.+.+.+.+.| ) < < P.P.P.P.P.P.P.P.P.P.P.P.P.",
"P.P.< < w ] ..+.+.+.+.+.+.+.+.+.+.+.+. .< 9 ,.:.d.f.f.f.f.a.+.+.+.+.+.+.+.+.+.+.+.+.+.+.+.+.+.} ) 8 < P.P.P.P.P.P.P.P.P.P.P.P.P.",
"P.P.P.< 1 ) ) } ..+.+.+.+.+.+.+.+.+.+.| < _ ,.;.3.a.f.f.p.#.+.+.+.+.+.+.+.+.+.+.+.+.+.+.+.+.+.} ) 9 < P.P.P.P.P.P.P.P.P.P.P.P.P.",
"P.P.P.< < 8 ) ) ) ]  ...+.+.+.+.+.+. ._ < ' ,.6.f.=.*.#.+.+.+.+.+.+.+.+.+.+.+.+.+.+.+.+. . .+.] ) 9 < P.P.P.P.P.P.P.P.P.P.P.P.P.",
"P.P.P.P.< < 8 ) ) ) ) ) ) _ ' ' _ ) ) w < ' ,.7.f.a.+.+.+.+.+.+.+.+.+.+.+.+.+.+.+. . .+.' '  ._ ) 9 < P.P.P.P.P.P.P.P.P.P.P.P.P.",
"P.P.P.P.P.< < 1 e ) ) ) ) ) ) ) ) ) ) w < e ,.e.f.f.+.+.+.+.+.+.+.+.+.+.+.+.+.+. ._ _  .] ]  .) ) 8 < P.P.P.P.P.P.P.P.P.P.P.P.P.",
"P.P.P.P.P.P.< < < 9 ) ) ) ) ) ) ) ) ) e < 1 >.t.f.f.&.+.+.+.+.+.+.+.+.+.+.+.+.+.| ' ' } ....] ) ) 1 < P.P.P.P.P.P.P.P.P.P.P.P.P.",
"P.P.P.P.P.P.P.< < < < 8 w w ) ) ) e w 9 1 < ;.0.f.f.+.+.+.+.+.+.+.+.+.+.+.+.+.+...] ]  . .] ) ) ) 1 < P.P.P.P.P.P.P.P.P.P.P.P.P.",
"P.P.P.P.P.P.P.P.P.< < < < < < < < < < < < < +.>.f.f.+.+.+.+.+.+.+.+.+.+.+.+.+.+.+.+.+.+.+.] ) ) w < < P.P.P.P.P.P.P.P.P.P.P.P.P.",
"P.P.P.P.P.P.P.P.P.P.P.P.< < < < < < < < < < e ,.3.4.+.+.+.+.+.+.+.+.+.+.+.+.+.+.+.+.+.+.| ) ) ) 8 < < P.P.P.P.P.P.P.P.P.P.P.P.P.",
"P.P.P.P.P.P.P.P.P.P.P.P.P.P.P.P.P.P.P.P.P.< < %.;.+.+.+.+.+.+.+.+.+.+.+.+.+.+.+.+.+.+. .) ) ) e < < P.P.P.P.P.P.P.P.P.P.P.P.P.P.",
"P.P.P.P.P.P.P.P.P.P.P.P.P.P.P.P.P.P.P.P.P.< < ) :.+.+.+.+.+.+.+.+.+.+.+.+.+.+.+.+.+.| ) ) ) ) 8 < < P.P.P.P.P.P.P.P.P.P.P.P.P.P.",
"P.P.P.P.P.P.P.P.P.P.P.P.P.P.P.P.P.P.P.P.P.P.< < +.@.+.+.+.+.+.+.+.+.+.+.+.+.+.+.+.| ) ) ) ) w < < P.P.P.P.P.P.P.P.P.P.P.P.P.P.P.",
"P.P.P.P.P.P.P.P.P.P.P.P.P.P.P.P.P.P.P.P.P.P.< < <  .+.+.+.+.+.+.+.+.+.+.+.+.+...] ) ) ) ) e 1 < < P.P.P.P.P.P.P.P.P.P.P.P.P.P.P.",
"P.P.P.P.P.P.P.P.P.P.P.P.P.P.P.P.P.P.P.P.P.P.P.< < 1  .+.+.+.+.+.+.+.+.+.+...] ) ) ) ) ) e 1 < < P.P.P.P.P.P.P.P.P.P.P.P.P.P.P.P.",
"P.P.P.P.P.P.P.P.P.P.P.P.P.P.P.P.P.P.P.P.P.P.P.P.< < 1 _ |  .+...+...| } ' ) ) ) ) ) ) w 1 < < P.P.P.P.P.P.P.P.P.P.P.P.P.P.P.P.P.",
"P.P.P.P.P.P.P.P.P.P.P.P.P.P.P.P.P.P.P.P.P.P.P.P.P.< < < 8 ) ) ) ) ) ) ) ) ) ) ) ) ) 9 < < < P.P.P.P.P.P.P.P.P.P.P.P.P.P.P.P.P.P.",
"P.P.P.P.P.P.P.P.P.P.P.P.P.P.P.P.P.P.P.P.P.P.P.P.P.P.< < < < 9 w ) ) ) ) ) ) ) w 9 1 < < < P.P.P.P.P.P.P.P.P.P.P.P.P.P.P.P.P.P.P.",
"P.P.P.P.P.P.P.P.P.P.P.P.P.P.P.P.P.P.P.P.P.P.P.P.P.P.P.< < < < < < 8 9 9 9 8 1 < < < < < P.P.P.P.P.P.P.P.P.P.P.P.P.P.P.P.P.P.P.P.",
"P.P.P.P.P.P.P.P.P.P.P.P.P.P.P.P.P.P.P.P.P.P.P.P.P.P.P.P.P.< < < < < < < < < < < < < P.P.P.P.P.P.P.P.P.P.P.P.P.P.P.P.P.P.P.P.P.P.",
"P.P.P.P.P.P.P.P.P.P.P.P.P.P.P.P.P.P.P.P.P.P.P.P.P.P.P.P.P.P.P.P.< < < < < < < P.P.P.P.P.P.P.P.P.P.P.P.P.P.P.P.P.P.P.P.P.P.P.P.P."
};
