/* XPM */
static char *result[] = {
/* columns rows colors chars-per-pixel */
"64 64 168 2 ",
"   c #2B2200",
".  c #2C2200",
"X  c #2C2300",
"o  c #2D2300",
"O  c #2D2400",
"+  c #2E2400",
"@  c #2E2500",
"#  c #2F2500",
"$  c #302600",
"%  c #312600",
"&  c #312700",
"*  c #322700",
"=  c #322800",
"-  c #332800",
";  c #332900",
":  c #342900",
">  c #352A00",
",  c #362A00",
"<  c #362B00",
"1  c #372B00",
"2  c #372C00",
"3  c #382C00",
"4  c #382D00",
"5  c #392D00",
"6  c #3A2E00",
"7  c #3B2E00",
"8  c #3B2F00",
"9  c #3C2F00",
"0  c #3C3000",
"q  c #3D3000",
"w  c #3D3100",
"e  c #3E3100",
"r  c #3E3200",
"t  c #3F3200",
"y  c #403200",
"u  c #403300",
"i  c #413300",
"p  c #413400",
"a  c #423400",
"s  c #423500",
"d  c #433500",
"f  c #433600",
"g  c #443600",
"h  c #453600",
"j  c #443700",
"k  c #453700",
"l  c #463700",
"z  c #463800",
"x  c #473800",
"c  c #473900",
"v  c #483900",
"b  c #493900",
"n  c #483A00",
"m  c #493A00",
"M  c #493B00",
"N  c #4A3A00",
"B  c #4A3B00",
"V  c #4B3B00",
"C  c #4B3C00",
"Z  c #4C3C00",
"A  c #4C3D00",
"S  c #4D3D00",
"D  c #4E3D00",
"F  c #4E3E00",
"G  c #4F3E00",
"H  c #4E3F00",
"J  c #4F3F00",
"K  c #503F00",
"L  c #504000",
"P  c #514000",
"I  c #514100",
"U  c #524100",
"Y  c #524200",
"T  c #534200",
"R  c #534300",
"E  c #544300",
"W  c #554300",
"Q  c #544400",
"!  c #554400",
"~  c #564400",
"^  c #564500",
"/  c #574500",
"(  c #574600",
")  c #584600",
"_  c #594600",
"`  c #584700",
"'  c #594700",
"]  c #5A4700",
"[  c #5A4800",
"{  c #5B4800",
"}  c #5B4900",
"|  c #5C4900",
" . c #5D4A00",
".. c #5E4B00",
"X. c #5F4B00",
"o. c #5F4C00",
"O. c #604C00",
"+. c #604D00",
"@. c #614D00",
"#. c #614E00",
"$. c #624E00",
"%. c #624F00",
"&. c #634F00",
"*. c #644F00",
"=. c #635000",
"-. c #645000",
";. c #655000",
":. c #655100",
">. c #665100",
",. c #665200",
"<. c #675200",
"1. c #685200",
"2. c #685300",
"3. c #695300",
"4. c #695400",
"5. c #6A5400",
"6. c #6A5500",
"7. c #6B5500",
"8. c #6B5600",
"9. c #6C5600",
"0. c #6C5700",
"q. c #6D5700",
"w. c #6E5700",
"e. c #6E5800",
"r. c #6F5800",
"t. c #6F5900",
"y. c #705900",
"u. c #705A00",
"i. c #715A00",
"p. c #715B00",
"a. c #725B00",
"s. c #735B00",
"d. c #725C00",
"f. c #735C00",
"g. c #745C00",
"h. c #745D00",
"j. c #755D00",
"k. c #755E00",
"l. c #765E00",
"z. c #775E00",
"x. c #765F00",
"c. c #775F00",
"v. c #776000",
"b. c #786000",
"n. c #786100",
"m. c #796100",
"M. c #7A6100",
"N. c #7A6200",
"B. c #7B6200",
"V. c #7C6300",
"C. c #7D6300",
"Z. c #7D6400",
"A. c #7E6500",
"S. c #7F6500",
"D. c #7F6600",
"F. c #806600",
"G. c #816700",
"H. c #826800",
"J. c #836900",
"K. c #846900",
"L. c #856A00",
"P. c #866B00",
"I. c #876C00",
"U. c #886D00",
"Y. c #896E00",
"T. c #8A6E00",
"R. c #8B6F00",
"E. c None",
/* pixels */
"E.E.E.E.E.E.E.E.E.E.E.E.E.E.E.E.E.E.E.E.E.E.E.E.E.E.E.E.E.E.E.E.E.E.E.E.E.E.E.E.E.E.E.E.E.E.E.E.E.E.E.E.E.E.E.E.E.E.E.E.E.E.E.E.",
"E.E.E.E.E.E.E.E.E.E.E.E.E.E.E.E.E.E.E.E.E.E.E.E.E.E.E.E.E.E.E.E.E.E.E.E.E.E.E.E.E.E.E.E.E.E.E.E.E.E.E.E.E.E.E.E.E.E.E.E.E.E.E.E.",
"E.E.E.E.E.E.E.E.E.E.E.E.E.E.E.E.E.E.E.E.E.E.E.E.E.E.E.E.E.E.E.E.E.E.E.E.E.E.E.E.E.E.E.E.E.E.E.E.E.E.E.E.E.  u E.E.E.E.E.E.E.E.E.",
"E.E.E.E.E.E.E.E.E.E.E.E.E.E.E.E.E.E.E.E.E.E.E.E.E.E.E.E.E.E.E.E.E.          E.E.E.E.E.E.E.E.E.E.E.E.E.E.  Z E.E.E.E.  E.E.E.E.E.",
"E.E.E.E.E.E.E.E.E.E.E.E.E.E.E.E.E.E.E.E.E.E.E.E.E.E.E.E.E.E.    E.E.E.E.E.E.E.      E.E.E.E.E.E.E.E.E.> ) E.E.: ..  E.  E.E.E.E.",
"E.E.E.E.E.E.E.E.E.E.E.E.E.E.E.E.E.E.E.E.E.E.E.E.E.E.E.E.    E.E.E.E.E.E.E.    E.E.E.                V <.C   S q.T > B E.E.E.E.E.",
"E.E.E.E.E.E.E.E.E.E.E.E.E.E.E.E.E.E.E.E.E.E.E.E.E.E.E.  E.E.E.E.E.E.                            ; -.u.L - >.p./ 3  .& E.E.E.E.E.",
"E.E.E.E.E.E.E.E.E.E.E.E.E.E.E.E.E.E.E.E.E.E.E.E.E.E.  E.E.                  X 5 3         6 Z } h.a.! k f.y.E 5 4.5 E.E.E.E.E.E.",
"E.E.E.E.E.E.E.E.E.E.E.E.E.E.E.E.E.E.E.E.E.E.                  O a S D E { @.,.<.&.Z P ] &.<.r.m.u.W F b.r.P 8 u.k   E.E.E.E.E.E.",
"E.E.E.E.E.E.E.E.E.E.E.E.E.E.E.E.E.E.              8 K O.q.c.M.m.y.<.<.<.<.<.<.<.<.<.O._ -.h.b.4.Z ` k.w.P q f.~   E.E.E.E.E.E.E.",
"E.E.E.E.E.E.E.E.E.E.E.E.E.E.E.E.      $ K -.i.Z.I.R.Y.G.z.7.<.<.<.<.<.<.<.<.@.E l 8 P 9.b.i. .m &.k.9.T u k.-.O E.E.E.E.E.E.E.E.",
"E.E.E.E.E.E.E.E.E.E.E.E.E.E.    o ^ l.U.R.R.R.U.Z.a.1.<.<.<.<.<.<.<.<...G 8 & 3 T 8.x.f.3.T T q.j.4.~ g x.r.3   E.E.E.E.E.E.E.E.",
"E.E.E.E.E.E.E.E.E.E.E.E.    % o.F.U.R.R.T.F.a.<.<.<.<.<.<.<.<.<.&.U 9 & & 0 ) t.c.f.5.*.J +.f.y.<.{ v v.h.b     E.E.E.E.E.E.E.E.",
"E.E.E.E.E.E.E.E.E.E.E.    W D.I.I.I.I.B.7.<.<.<.<.<.<.<.<.<. .v = & & k $.h.m.a.4.<.X.L 7.h.5.<.o.S b.c.{     E.E.  E.E.E.E.E.E.",
"E.E.E.E.E.E.E.E.E.    : i.I.I.I.P.N.-.2.<.<.<.<.<.<.<.<.} p & & 4 ~ e.m.b.y.2.<.<.' ^ d.y.<.<.<.2.x.h.<.:   U m E.  E.$ E.E.E.E.",
"E.E.E.E.E.E.E.E.    s A.I.I.I.A.;...4.7.<.<.<.<.<.<.| i & 6 K <.b.N.h.q.<.<.<.<.! &.h.6.<.<.<.<.t.r.9.v   d e.@   E.3 E.E.E.E.E.",
"E.E.E.E.E.E.E.    N H.I.I.L.i.[ <.9.9.9.4.<.<.<.o.x x ^ 5.l.N.x.y.3.<.<.<.<.>.^ t.y.<.<.<.<.<.$.$.t.{   6 f.v     3 $ E.E.E.E.  ",
"E.E.E.E.E.E.E.  m J.I.I.G.>.| 9.9.9.9.9.9.<.&.{ ] 4.d.b.h.t.4.<.<.<.<.<.<.;.$.f.5.<.<.<.<.<.^ } f.;.1 $ e.o.    > , E.E.E.E.E.E.",
"E.E.E.E.E.E.  y H.I.I.C.;.$.9.9.9.9.9.9.9.4.>.q.a.a.9.<.<.<.<.<.<.<.<.<.1.i.t.<.<.<.<.<.&.m o.c.2.A . :.7.2   $ q   E.  E.E.  E.",
"E.E.E.E.E.  = Z.I.I.B.9.2.9.9.9.9.9.9.9.9.9.9.4.<.<.<.<.<.<.<.<.<.<.<.5.a.5.<.<.<.<.<.' k :.n.6.X.X { r.P   + d o E.E.E.E.E.  E.",
"E.E.E.E.    q.I.I.V.9.9.9.9.9.9.9.9.9.9.9.9.2.<.<.<.<.<.<.<.<.<.<.<.e.r.<.<.<.<.<.;.V H 4.m.9.<.' ] y.-.&   z >   E.  E.E.  E.E.",
"E.E.E.E.  U I.I.D.9.9.9.9.9.,.9.9.9.9.9.9.9.5.<.<.<.<.<.<.<.<.<.2.i.6.<.<.<.<.<...d ' 0.N.w.<.<.[ e.<.V   k a   E.E.  E.    E.E.",
"E.E.E.  $ A.I.K.w.9.9.9.9.+.2.9.9.9.9.9.9.9.9.<.<.<.<.<.<.<.<.9.r.1.<.<.<.<.<.T n #.d.N.e.<.<.$...6.+.X t S #   E.        E.E.E.",
"E.E.E.  @.I.I.g.9.9.9.9. .&.9.9.9.9.9.9.9.9.9.2.<.<.<.<.<.<.2.2.<.<.<.<.<.-.m Q 0.n.N.t.<.<.<.B q.<.d 1 I 0   E.  E.    E.E.E.E.",
"E.E.  & H.I.S.9.9.9.9.@./ 9.9.9.9.9.9.9.9.9.>.2.<.<.<.<.<.<.<.<.<.<.<.<...v %.a.a.N.t.<.<.<.I #.<. .# E v O     E.    E.E.E.E.E.",
"E.E.  | I.I.y.9.9.9.2.m 5.9.9.9.9.9.9.9.9.*.2.5.<.<.<.<.<.<.<.<.<.<.<.^ U e.e.9.m.u.<.<.<. .m 6.<.t U C 8     E.    E.E.E.E.E.E.",
"E.E.  m.I.A.9.9.9.9.Y ` 9.9.9.9.9.9.9.9.<.+.9.7.<.<.<.<.<.<.<.<.<.>.U =.e.1.8.m.i.<.<.<.*.0 -.<. .V F n o       E.E.E.E.E.E.E.E.",
"E.  t I.I.s.9.9.9.-.j 3.9.9.9.9.9.9.9.7.^ 9.9.9.<.<.<.<.<.<.<.<.&.| 6.2.<.6.m.a.<.<.<.<.h T 2.<.~ U B q       E.E.  E.E.E.E.E.E.",
"E.  +.I.J.9.9.9.9.L E 9.9.9.9.9.9.9.9.[ :.9.9.9.<.<.<.<.<.<.<.*.&.2.<.<.5.b.f.<.<.<.<.K w ;.<.-.! B M @                 E.E.E.E.",
"E.  h.I.B.9.9.9.,.f -.9.9.9.9.9.9.9.>.] 9.9.9.9.2.<.<.<.<.<.>.>.<.<.<.2.v.h.<.<.<.<.] & J <.~ E B B p             E.E.E.E.E.E.E.",
"E.  H.I.f.9.9.9.' A 9.9.9.9.9.9.9.9./ 7.9.9.9.9.2.<.<.<.<.<.<.<.<.<.<.h.k.<.<.<.<.O.> i :.O.g Z B B >       E.E.E.E.E.E.E.E.E.E.",
"  6 I.P.9.9.9.9.M  .9.9.9.9.9.9.9.@.>.9.9.9.9.9.2.<.<.<.<.<.;.) *.<.y.x.2.<.<.<.&.8 s ;.>.t F K B x       E.E.E.  E.E.E.E.E.E.E.",
"  Z I.F.9.9.9.>.g 4.9.9.9.9.9.9.7.@.9.9.9.9.9.9.2.<.<.<.<./ v &.<.7.c.3.<.<.<.>.p n >.<.C i } B B q   E.  E.E.E.  E.E.E.E.E.E.E.",
"  { I.M.9.9.9. .I 9.9.9.9.9.9.9.>.9.9.9.9.9.9.9.2.<.<.@.a S >.<.<.k.5.<.<.<.,.z U <.<.) 2  .L B B &   E.E.E.E.  E.E.E.E.E.E.E.E.",
"  ..I.s.9.9.9.E o.9.9.9.9.9.9.9.7.9.9.9.9.9.9.9.2.<.! 1 / <.<.<.u.9.<.<.<.<.A [ <.<.o.1 T  .c B g   E.  E.E.  E.E.E.E.E.E.E.E.E.",
"  @.P.9.9.9.9.A 4.9.9.9.9.9.9.9.9.9.9.9.9.9.9.9.:.z 8 o.<.<.<.5.e.<.<.<.<.T O.<.<.$.0 B -.S t B 6   E.        E.E.E.E.E.E.E.E.E.",
"  @.G.9.9.9.9.J 9.9.9.9.9.9.9.9.9.9.9.9.9.9.9.:.9 l ;.<.<.<.<.6.<.<.<.<.] -.<.<.<.Z Y @.~ t d B #         E.E.E.E.E.E.E.E.E.E.E.",
"  X.V.9.9.9.3.' 9.9.9.9.9.9.9.9.9.9.9.9.9.9.O.k T <.<.<.<.<.<.<.<.<.>.+.<.<.<.<.<.@.' ..c = B k   E.E.  E.E.E.E.E.E.E.E.E.E.E.E.",
"  | l.9.9.9.>.+.9.9.9.9.9.9.9.9.9.9.9.9.9.' A -.<.<.<.<.<.<.<.<.<.<.;.<.<.<.<.<.;.Y &.A 6 0 B 8   E.  E.E.E.E.E.E.E.E.E.E.E.E.E.",
"  J i.9.9.9.:.;.9.9.9.9.9.9.9.9.9.9.9.7.E | 8.5.<.<.<.<.<.G a ;.<.<.<.<.<.<.<.<.T O.P k $ v m + E.E.  E.E.E.E.E.E.E.E.E.E.E.E.E.",
"  u 9.9.9.9.:.>.9.9.9.9.9.9.9.9.9.9.3...4.9.9.4.<.<.<.<.<.= & | <.<.<.<.<.<.<.' ~ ) B k x B 0   E.  E.E.E.E.E.E.E.E.E.E.E.E.E.E.",
"    6.9.9.9.4.6.9.9.&.O.6.9.9.9.9.9.7.9.9.9.9.1.<.<.<.<.<.V q -.<.<.<.<.<.<...A } B B B B B #   E.  E.E.E.E.E.E.E.E.E.E.E.E.E.E.",
"E.   .9.9.9.9.9.9.| { / S 7.9.9.9.9.9.9.9.9.7.<.<.<.<.<.<.<.<.<.>.x u #.<.$.C ! C B B J B i   E.  E.E.E.E.E.E.E.E.E.E.E.E.E.E.E.",
"E.  a 9.9.9.9.9.&. . . .~ O.9.9.9.9.9.9.9.9.5.<.<.<.<.<.<.<.<.<./ & & Z -.F m A B B A ! B &       E.E.E.E.E.E.E.E.E.E.E.E.E.E.E.",
"E.  $ { 9.9.9.9... . . . .[ 9.9.9.9.9.9.9.9.2.<.<.<.<.<.<.<.<.<.! & & x J B l B B B  .Z t       E.E.E.E.E.E.E.E.E.E.E.E.E.E.E.E.",
"E.    t ;.9.9.9.|  . . .) } 9.9.9.9.9.9.9.7.<.<.<.<.<.<.<.<.O.>.-.0 ; z B a B B B [ / m +   E.E.E.E.E.E.E.E.E.E.E.E.E.E.E.E.E.E.",
"E.E.  < k <.9.9.| }  .] g @.9.9.9.9.9.9.9.4.<.<.<.<.<.<.<.v & d <.>.I B a c B B ! $.B e   E.E.E.E.E.E.E.E.E.E.E.E.E.E.E.E.E.E.E.",
"E.E.  $ J h &.9.6.J T a x 7.9.9.9.9.9.9.7.<.<.<.<.<.<.<.-.& & & o.U B p k B B T ;.J m +   E.E.E.E.E.E.E.E.E.E.E.E.E.E.E.E.E.E.E.",
"E.E.E.  _ >.)  .2.3./ E <.9.9.9.9.] U O.3.<.<.<.<.<.<.<.>.: & & C B e g B B U ;.U B 0   E.E.E.E.E.E.E.E.E.E.E.E.E.E.E.E.E.E.E.E.",
"E.E.E.  : :.9.9.7.9.9.9.9.9.9.9.<.T / F <.<.<.<.<.<.<.<.<./ 5 u m 5 d B B T $.K B c o   E.E.E.E.E.E.E.E.E.E.E.E.E.E.E.E.E.E.E.E.",
"E.E.E.E.  g -.9.9.9.o.U O.9.9.9.2.F ~ p <.<.<.<.<.<.<.<.<. .C d - d B B ~ } Z B B 2   E.E.E.E.E.E.E.E.E.E.E.E.E.E.E.E.E.E.E.E.E.",
"E.E.E.E.  X L o.7.&.d Z s &.9.9.9.[ : S <.<.<.<.<.<.<.;.E g 1 - l B V T L B B B a     E.E.E.E.E.E.E.E.E.E.E.E.E.E.E.E.E.E.E.E.E.",
"E.E.E.E.E.  > ! ' P I / P ~ 9.9.9.5.-.<.| T O.*.&.o.! e * = t m B B C B B B B v #   E.E.E.E.E.E.E.E.E.E.E.E.E.E.E.E.E.E.E.E.E.E.",
"E.E.E.E.E.E.  r ^ C U / U U 3.9.5.<.<.<.<.@.J l 6 6 0 p z B B B B B B B B B B >   E.E.E.E.E.E.E.E.E.E.E.E.E.E.E.E.E.E.E.E.E.E.E.",
"E.E.E.E.E.E.    g R c U v ( | <.<.<.<.<.&. .! C B B B B B B B B B B B B B B 8     E.E.E.E.E.E.E.E.E.E.E.E.E.E.E.E.E.E.E.E.E.E.E.",
"E.E.E.E.E.E.E.    z R F E I 6 B C S A B B B B B B B B B B B B B B B B B B t     E.E.E.E.E.E.E.E.E.E.E.E.E.E.E.E.E.E.E.E.E.E.E.E.",
"E.E.E.E.E.E.E.E.    d Y F B # m B B B B B B B B B B B B B B B B B B n c u     E.E.E.E.E.E.E.E.E.E.E.E.E.E.E.E.E.E.E.E.E.E.E.E.E.",
"E.E.E.E.E.E.E.E.E.    2 m B 2 t B B B B B B B B B B B B B B B B B g z e     E.E.E.E.E.E.E.E.E.E.E.E.E.E.E.E.E.E.E.E.E.E.E.E.E.E.",
"E.E.E.E.E.E.E.E.E.E.    $ g s $ M B v f t e u i s g k c m B c p p n 5     E.E.E.E.E.E.E.E.E.E.E.E.E.E.E.E.E.E.E.E.E.E.E.E.E.E.E.",
"E.E.E.E.E.E.E.E.E.E.E.      4 # e B B B B v d t 7 2 > : > 6 u m k *     E.E.E.E.E.E.E.E.E.E.E.E.E.E.E.E.E.E.E.E.E.E.E.E.E.E.E.E.",
"E.E.E.E.E.E.E.E.E.E.E.E.E.      X a B B B B B B B B B B B B l 4       E.E.E.E.E.E.E.E.E.E.E.E.E.E.E.E.E.E.E.E.E.E.E.E.E.E.E.E.E.",
"E.E.E.E.E.E.E.E.E.E.E.E.E.E.E.      $ 7 a z B B B B m g e :       E.E.E.E.E.E.E.E.E.E.E.E.E.E.E.E.E.E.E.E.E.E.E.E.E.E.E.E.E.E.E.",
"E.E.E.E.E.E.E.E.E.E.E.E.E.E.E.E.E.            + $ O           E.E.E.E.E.E.E.E.E.E.E.E.E.E.E.E.E.E.E.E.E.E.E.E.E.E.E.E.E.E.E.E.E.",
"E.E.E.E.E.E.E.E.E.E.E.E.E.E.E.E.E.E.E.E.                E.E.E.E.E.E.E.E.E.E.E.E.E.E.E.E.E.E.E.E.E.E.E.E.E.E.E.E.E.E.E.E.E.E.E.E."
};
