/* XPM */
static char *mono_izquierda_resized[] = {
/* columns rows colors chars-per-pixel */
"48 48 183 2 ",
"   c None",
".  c #030101",
"X  c #0B0603",
"o  c #0F0804",
"O  c #130A05",
"+  c #180E07",
"@  c #170D08",
"#  c #1A0F08",
"$  c #1D110B",
"%  c #1F1511",
"&  c #2B1102",
"*  c #23150C",
"=  c #27180E",
"-  c #2B190F",
";  c #2A160A",
":  c #301402",
">  c #251610",
",  c #201813",
"<  c #2C1C11",
"1  c #311E13",
"2  c #3C2A03",
"3  c #342307",
"4  c #352215",
"5  c #3A2416",
"6  c #362118",
"7  c #3C2618",
"8  c #3F2819",
"9  c #4E2207",
"0  c #5C2A0C",
"q  c #513905",
"w  c #432717",
"e  c #4F2C17",
"r  c #432B1B",
"t  c #4A2E1D",
"y  c #522911",
"u  c #4C301F",
"i  c #57321B",
"p  c #6A320E",
"a  c #62351D",
"s  c #69391C",
"d  c #7D3F1B",
"f  c #4A2D20",
"g  c #4E3221",
"h  c #533522",
"j  c #573825",
"k  c #5B3A26",
"l  c #5D3C28",
"z  c #5C3425",
"x  c #623A24",
"c  c #623E29",
"v  c #6F5106",
"b  c #7D5B07",
"n  c #745107",
"m  c #684026",
"M  c #65412B",
"N  c #6B442E",
"B  c #794022",
"V  c #714428",
"C  c #7C4629",
"Z  c #74492F",
"A  c #7B4B2B",
"S  c #764327",
"D  c #6D4630",
"F  c #6F4831",
"G  c #6D4F3C",
"H  c #734B33",
"J  c #7A4E36",
"K  c #794C3A",
"L  c #744630",
"P  c #7C5037",
"I  c #7D5138",
"U  c #6D5544",
"Y  c #87531E",
"T  c #9E7104",
"R  c #AB7E0B",
"E  c #8F4E2A",
"W  c #834C2C",
"Q  c #944B22",
"!  c #975F24",
"~  c #834C30",
"^  c #82553B",
"/  c #895639",
"(  c #87583E",
")  c #8A593E",
"_  c #875233",
"`  c #935734",
"'  c #9C5A33",
"]  c #90563C",
"[  c #94593C",
"{  c #A05F39",
"}  c #A85E3A",
"|  c #A6633C",
" . c #B16538",
".. c #B4683C",
"X. c #855441",
"o. c #895640",
"O. c #8D5C41",
"+. c #915D43",
"@. c #935D49",
"#. c #86644F",
"$. c #8A634E",
"%. c #956145",
"&. c #996347",
"*. c #9C6649",
"=. c #9F684A",
"-. c #896651",
";. c #8E6953",
":. c #976650",
">. c #9C6A53",
",. c #9A6F58",
"<. c #9C745D",
"1. c #95715B",
"2. c #AE6946",
"3. c #A0654F",
"4. c #A36A4C",
"5. c #A96E4F",
"6. c #AB6644",
"7. c #B16B4A",
"8. c #B86F4B",
"9. c #B56943",
"0. c #B6704E",
"q. c #BC744F",
"w. c #AA6E51",
"e. c #A46F58",
"r. c #A06E52",
"t. c #AC7151",
"y. c #A07358",
"u. c #AD745A",
"i. c #B37554",
"p. c #BE7552",
"a. c #B77856",
"s. c #B97857",
"d. c #B67459",
"f. c #BD7B59",
"g. c #A27960",
"h. c #AA7C63",
"j. c #BF7E64",
"k. c #C37755",
"l. c #C37A5C",
"z. c #C57953",
"x. c #C27F64",
"c. c #B58205",
"v. c #C3910D",
"b. c #B28366",
"n. c #BF8365",
"m. c #C9805A",
"M. c #C6845F",
"N. c #C58867",
"B. c #C38063",
"V. c #D18664",
"C. c #D98D6C",
"Z. c #D4886A",
"A. c #DC916E",
"S. c #D78F71",
"D. c #DB8F71",
"F. c #CE9578",
"G. c #CE9878",
"H. c #D49173",
"J. c #DD9373",
"K. c #D19C7C",
"L. c #DA9E7E",
"P. c #E19677",
"I. c #E29778",
"U. c #E39B7B",
"Y. c #EA9F7E",
"T. c #E2A07F",
"R. c #E9A17F",
"E. c #DF9F80",
"W. c #D3A283",
"Q. c #DBA384",
"!. c #E4A786",
"~. c #EBA583",
"^. c #EFA987",
"/. c #EDAB89",
"(. c #E4AD8C",
"). c #F3AE8C",
"_. c #E6B08F",
"`. c #F3B18E",
"'. c #F5B491",
"]. c #F6B996",
"[. c #F7BC99",
"{. c #F9BE9A",
"}. c #F9C19D",
/* pixels */
"                                                                            c c c c c           ",
"                                                                            ^ ^ J ^ ) H         ",
"                                                                        N ^ 4.=.O.&.4.^ M M     ",
"                                                                      N ) =.4.) L H O.+.O.K l 4 ",
"                                                                      N *.t.+.D t 6 D &.*.I k 4 ",
"                                                                      N *.w.I g       F I P k 4 ",
"                                                                      N *.4.I g       6 g M j 4 ",
"                                                                      N *.t.O.N r     < 7 f f   ",
"                                                                      N ) =.=.^ g       1       ",
"                                                                        N ^ 4.*.l 4             ",
"                  k c k k k k k u 4                                     j P 4.4.P h             ",
"                I I I ^ P Z N M j r                                       J =.=.^ l 4           ",
"              H &.5.5.w.4.O.^ P N j 8 4                                     I ^ P l 6           ",
"            I +.4.5.w.t.w.4.=.*.) F h r                                       N H N k f         ",
"          H +.4.*.) ) ) %.4.i.t.=.I M g 8                                       M G D g 4       ",
"        J %.=.*.^ H H Z P %.=.4.&.^ D k h r                                       l k h t 4     ",
"      k J =.=.( N j h i l H ( ( ^ P M h u 7 *                                     5 r h u 5     ",
"      k H O.( D u 4 4 3 8 j H I P M u 4 1 1 * o                                   < 7 h g 4     ",
"      g l J H z 4 q Y v 3 6 l P H j 4 t K X.K f O                                 < 7 h u 5     ",
"      h M I ^ c 8 b v.R 2 @ h H H k r K x.S.x.K $ *                               1 8 h g 5     ",
"      @.w.d.d.4.N n c.T 2 * k J I Z C t.T.).E.$.< 5 r                           1 8 u j u 5     ",
"    X.j.J.U.U.H.=.A ! Y i u M I ^ / { M.(.'.W.#.r g g r r r r r 8 7 4 4 = O $ = 7 g k k u 5     ",
"..0.x.E.`.`.`./.H.l.l.0.E V N I ( / | m.U.F.<.U h k M D D D D D N h u u 7 < 8 u u k j u 8       ",
"..z.C.~.].}.}.}.).R.R.C.q.[ ~ J P ^ ` 2.x.*.l g k N I O.o.^ ^ I P F N k u r u j h h u 8         ",
"..9.z.J.^.].}.}.].].'.~.Z.8.` A N N a c F M i k N I *.4.&.( ^ ^ ^ I H M k u r 8 8 8 8           ",
" .' ' p.A.^.`.'.'.'.`.~.V.6.W c k j t 4 7 g l M I &.4.4.%.^ ^ ( ( ^ I F M j 8 < < <             ",
"    a ` k.C.U.I.P.I.P.V.2.C z k c c c j j k M J %.5.4.O.^ ^ ^ ^ ^ ^ ( I H k r 4                 ",
"      s ~ +.3.3.3.3.=.O.B i h N F Z H F M M J ^ O.=.%.^ J H F F H I %.=.O.F j r 6               ",
"      ; < 6 7 6 4 < 1 6 w u F ( %.%.^ J M F J I ( ( ^ J N k k k M P *.0.4.) H j r 4             ",
"                . . O 1 u k P 4.t.5.%.J M M F I ^ I J N c h t h M P *.i.s.4.) N h 6 O           ",
"                  o * 7 u k P =.t.5.) F k j M J I P N c j u r h M P *.a.l.a.%.J k 5 O           ",
"                    O = 8 h N ( %.) H k t u M J P N M j t r h k N I *.a.f.i.%.H c 6 O           ",
"                    . + 4 u M F H Z k u t g c N F M k j r r j N P *.w.s.i.=.^ N k 5 O           ",
"                    X * 8 l N N M k t r j k c M c k x j r r j F / 4.a.s.4./ F c k 8 O           ",
"                  o * 6 k ) %.^ N j r r j k c k k M k k j u u k H %.w.a.=.I N k j r =           ",
"                . o = r N 4.w.) N h 5 6 u u h u u u j u u r 4 8 k H ) 4.*.I Z N M h 5           ",
"                . @ 4 t H 4.4.I h 8 * # = - - < - - = - - = # * 4 r k H ^ ^ I P J M i -         ",
"                X r D H J +.O.M 8 * X . . . X . . X o # # # # # # $ 1 u M H J J H M h - X       ",
"              # 4 D *.*.^ H c r = X . X           o # = - = - = * + o * u k M c M c h 1 O       ",
"            o 6 H %.=.O.H h 8 * o X O + O       O $ = < 4 < < = # o   O 4 5 5 u k k j t 8 $     ",
"          . * h O.4.o.D j 8 > o . @ = * O o   . O = < < < < > # X         O + 6 k k k k r +     ",
"        # > h K O.O.M g t 7 $ X O * < < * $ . . O < < < < = $ O             X 1 h c c k t *     ",
"      9 M -.g.b.b.y.K L ) ]   & @ * * * * O . . O $ * = * $ o               9 e e t r r y y     ",
"    : p 4.K._.(._.K.5.7.l.7.Q   X o o o o . . . . o o o o o                 E C k g g f x d     ",
"    & 0 u._.}.'.`.~.V.k.k.9.        . . . . . . . . . . .                 7.N.n.h.g.h.e.[ d     ",
"      = U E.!.L.D.D.Z.k.}                                                 6.G.E.S.E.Q.S.w.z     ",
"        U 1.>.@.@.@.@.+.                                                0 N ;.,.:.,.<.:.X.      ",
"          % % % % # % >                                                 o @ % % % % , % %       "
};
