/* XPM */
static char *result[] = {
/* columns rows colors chars-per-pixel */
"64 64 169 2 ",
"   c #010101",
".  c #0C0603",
"X  c #0F0A05",
"o  c #0B0009",
"O  c #020A03",
"+  c #180701",
"@  c #140C06",
"#  c #190D06",
"$  c #1D0E09",
"%  c #171007",
"&  c #1E130C",
"*  c #200F06",
"=  c #2B1D04",
"-  c #22160C",
";  c #28150F",
":  c #25180E",
">  c #2A1A0E",
",  c #221606",
"<  c #3A1906",
"1  c #3B1E0D",
"2  c #271A11",
"3  c #2D1D12",
"4  c #311F12",
"5  c #3E2C03",
"6  c #372509",
"7  c #38260A",
"8  c #342115",
"9  c #392316",
"0  c #3C2518",
"q  c #3F2819",
"w  c #562808",
"e  c #442616",
"r  c #432B1C",
"t  c #4A2F1F",
"y  c #4C2A15",
"u  c #502D17",
"i  c #5E2F16",
"p  c #502E1A",
"a  c #4C311F",
"s  c #54311D",
"d  c #5B351D",
"f  c #533014",
"g  c #66381D",
"h  c #683517",
"j  c #7E3E19",
"k  c #773D1B",
"l  c #482D20",
"z  c #4D3121",
"x  c #533523",
"c  c #573826",
"v  c #5B3A26",
"b  c #573528",
"n  c #5E3C29",
"m  c #593521",
"M  c #6F3F21",
"N  c #613E2A",
"B  c #684406",
"V  c #785804",
"C  c #5F4637",
"Z  c #6C4127",
"A  c #65412C",
"S  c #6B442E",
"D  c #7C4524",
"F  c #76482D",
"G  c #7A482F",
"H  c #73462C",
"J  c #6D4631",
"K  c #6F4832",
"L  c #614A3A",
"P  c #684E3D",
"I  c #654332",
"U  c #734736",
"Y  c #744A34",
"T  c #794E36",
"R  c #744938",
"E  c #7B5037",
"W  c #7D5138",
"Q  c #894213",
"!  c #954B1F",
"~  c #8C6703",
"^  c #A26B0D",
"/  c #B07E16",
"(  c #824A29",
")  c #944D28",
"_  c #984D23",
"`  c #8B512E",
"'  c #915024",
"]  c #985426",
"[  c #92542E",
"{  c #864F32",
"}  c #8C5432",
"|  c #83553C",
" . c #86583E",
".. c #89593E",
"X. c #8D553D",
"o. c #9C5930",
"O. c #9A583B",
"+. c #925532",
"@. c #A65F3E",
"#. c #A55E33",
"$. c #A86826",
"%. c #8D5B42",
"&. c #8E5E49",
"*. c #925F43",
"=. c #9E5F41",
"-. c #956145",
";. c #996347",
":. c #9D6549",
">. c #8C6B56",
",. c #946E58",
"<. c #936B56",
"1. c #A3654D",
"2. c #A46B4D",
"3. c #A96D4E",
"4. c #B56C4B",
"5. c #A36650",
"6. c #A56951",
"7. c #AC6E55",
"8. c #AC7151",
"9. c #B27454",
"0. c #B97856",
"q. c #B4735A",
"w. c #BB765C",
"e. c #BD7B5A",
"r. c #BD7456",
"t. c #947564",
"y. c #AB7F66",
"u. c #C07E5B",
"i. c #C27E61",
"p. c #B7890D",
"a. c #D89F11",
"s. c #BD8364",
"d. c #C8876B",
"f. c #CB8A69",
"g. c #C98466",
"h. c #D2876A",
"j. c #D3886B",
"k. c #D48768",
"l. c #C39172",
"z. c #CC9C7E",
"x. c #DA9374",
"c. c #D49D7E",
"v. c #DE9B7B",
"b. c #E49475",
"n. c #E89676",
"m. c #E59778",
"M. c #E49B7B",
"N. c #EC9C7C",
"B. c #C99E84",
"V. c #E79E81",
"C. c #D4A485",
"Z. c #D8A98D",
"A. c #E8A084",
"S. c #E5AC8B",
"D. c #E9AC8A",
"F. c #F2AB89",
"G. c #F5B18F",
"H. c #EFB394",
"J. c #F3B796",
"K. c #F5B897",
"L. c #F9B995",
"P. c #DABFAD",
"I. c #F5C09F",
"U. c #F8C2A1",
"Y. c #F3C2A8",
"T. c #ECCBB6",
"R. c #F9CCB4",
"E. c #FBD3BB",
"W. c None",
/* pixels */
"W.W.W.W.W.W.W.W.W.W.W.W.W.W.W.W.W.W.W.W.W.W.n n N v W.W.W.W.W.W.W.W.W.W.W.W.W.W.W.W.W.W.W.W.W.W.W.W.W.W.W.W.W.W.W.W.W.W.W.W.W.W.",
"W.W.W.W.W.W.W.W.W.W.W.W.W.W.W.W.W.W.W.W.W.W. .-.-. .W.W.W.W.W.W.W.W.W.W.W.W.W.W.W.W.W.W.W.W.W.W.W.W.W.W.W.W.W.W.W.W.W.W.W.W.W.W.",
"W.W.W.W.W.W.W.W.W.W.W.W.W.W.W.W.W.W.W.W.W.A ;.0.9.;.T J Y W.W.W.W.W.W.W.W.W.W.W.W.W.W.W.W.W.W.W.W.W.W.W.W.W.W.W.W.W.W.W.W.W.W.W.",
"W.W.W.W.W.W.W.W.W.W.W.W.W.W.W.W.W.W.W.W.W.S :.0.-.-.3.2.;.J W.W.W.W.W.W.W.W.W.W.W.W.W.W.W.W.W.W.W.W.W.W.W.W.W.W.W.W.W.W.W.W.W.W.",
"W.W.W.W.W.W.W.W.W.W.W.W.W.W.W.W.W.W.W.W.W.A %.:.E ..3.0.2.J W.W.W.W.W.W.W.W.W.W.W.W.W.W.W.W.W.W.W.W.W.W.W.W.W.W.W.W.W.W.W.W.W.W.",
"W.W.W.W.W.W.W.W.W.W.W.W.W.W.W.W.W.W.W.W.W.n S J W.W.W 3.2.T W.W.W.W.W.W.W.W.W.W.W.W.W.W.W.W.W.W.W.W.W.W.W.W.W.W.W.W.W.W.W.W.W.W.",
"W.W.W.W.W.W.W.W.W.W.W.W.W.W.W.W.W.W.W.W.W.W.W.W.W.W.W...-.;.W W.W.W.W.W.W.W.W.W.W.W.W.W.W.W.W.W.W.W.W.W.W.W.W.W.W.W.W.W.W.W.W.W.",
"W.W.W.W.W.W.W.W.W.W.W.W.W.W.W.W.W.W.W.W.W.W.W.W.W.W.W.n ..9. .8 W.W.W.W.W.W.W.W.W.W.W.W.W.W.W.W.W.W.W.W.W.W.W.W.W.W.W.W.W.W.W.W.",
"W.W.W.W.W.W.W.W.W.W.W.W.W.W.W.W.W.W.W.W.W.W.W.W.W.W.W.v %.8.%.8 W.W.W.W.W.W.W.W.W.W.W.W.W.W.W.W.W.W.W.W.W.W.W.W.W.W.W.W.W.W.W.W.",
"W.W.W.W.W.W.W.W.W.W.W.W.W.W.W.W.W.W.W.W.W.W.W.W.W.W.W.v T :.Y 8 W.W.W.W.W.W.W.W.W.W.W.W.W.W.W.W.W.W.W.W.W.W.W.W.W.W.W.W.W.W.W.W.",
"W.W.W.W.W.W.W.W.W.W.W.W.W.W.W.W.W.W.W.W.W.W.W.W.W.W.W.J Y W A 3 W.W.W.W.W.W.W.W.W.W.W.W.W.W.W.W.W.W.W.W.W.W.W.W.W.W.W.W.W.W.W.W.",
"W.W.W.W.W.W.W.W.W.W.W.W.W.W.W.W.W.W.W.W.W.W.W.W.W.W.J ;.*.A l W.W.W.W.W.W.W.W.W.W.W.W.W.W.W.W.W.W.W.W.W.W.W.W.W.W.W.W.W.W.W.W.W.",
"W.W.W.W.W.W.W.W.W.W.W.W.W.W.W.W.W.W.W.W.W.W.W.W.W.W.Y 2.2.x W.W.W.W.W.W.W.W.W.W.W.W.W.W.W.W.W.W.W.W.W.W.W.W.W.W.W.W.W.W.W.W.W.W.",
"W.W.W.W.W.W.W.W.W.W.W.W.W.W.W.W.W.W.W.W.W.W.W.W.W.W.Y 2.:.x W.W.W.W.W.W.W.W.W.W.W.W.W.W.W.W.W.W.W.W.W.W.W.W.W.W.W.W.W.W.W.W.W.W.",
"W.W.W.W.W.W.W.W.W.W.W.W.W.W.W.W.W.W.W.W.W.W.W.W.W.W.J 3.2.x W.W.W.W.W.W.W.W.W.W.W.W.W.W.W.W.W.W.W.W.W.W.W.W.W.W.W.W.W.W.W.W.W.W.",
"W.W.W.W.W.W.W.W.W.W.W.W.W.W.W.W.W.W.W.W.W.W.W.W.W.W.Y :.;.n q W.W.W.W.W.W.W.W.W.W.W.W.W.W.W.W.W.W.W.W.W.W.W.W.W.W.W.W.W.W.W.W.W.",
"W.W.W.W.W.W.W.W.W.W.W.W.W.W.W.W.W.W.W.W.W.W.W.W.W.W.W.T E T c 4 W.W.W.W.W.W.W.W.W.W.W.W.W.W.W.W.W.W.W.W.W.W.W.W.W.W.W.W.W.W.W.W.",
"W.W.W.W.W.W.W.W.W.W.W.W.W.W.W.W.W.W.W.W.W.W.W.W.W.W.W.v S E A 4 W.W.W.W.W.W.W.W.W.W.W.W.W.W.W.W.W.W.W.W.W.W.W.W.W.W.W.W.W.W.W.W.",
"W.W.W.W.W.W.W.W.W.W.W.W.W.W.W.W.W.W.W.W.W.W.W.W.W.W.W.v S W A 4 W.W.W.W.W.W.W.W.W.W.W.W.W.W.W.W.W.W.W.W.W.W.W.W.W.W.W.W.W.W.W.W.",
"W.W.W.W.W.W.W.W.W.W.W.W.W.W.W.W.W.W.W.W.W.W.W.W.W.W.W.A J W n 4 W.W.W.W.W.W.W.W.W.W.W.W.W.W.W.W.W.W.W.W.W.W.W.W.W.W.W.W.W.W.W.W.",
"W.W.W.W.W.W.W.W.W.W.W.W.W.W.W.W.W.W.W.W.W.W.W.W.W.W.W.W.A K v r W.W.W.W.W.W.W.W.W.W.W.W.W.W.W.W.W.W.W.W.W.W.W.W.W.W.W.W.W.W.W.W.",
"W.W.W.W.W.W.W.W.W.W.W.W.W.W.W.W.W.W.W.W.W.W.W.W.W.W.W.W.W.r z s 0 W.W.W.W.W.W.W.W.W.W.W.W.W.W.W.W.W.W.W.W.W.W.W.W.W.W.W.W.W.W.W.",
"W.W.W.W.W.W.W.W.W.W.W.W.W.W.W.W.W.W.W.W.W.W.W.W.W.W.W.W.W.4 a x 0 2 W.W.W.W.W.W.W.W.W.W.W.W.W.W.W.W.W.W.W.W.W.W.W.W.W.W.W.W.W.W.",
"W.W.W.W.W.W.W.W.W.W.W.W.W.W.W.W.W.W.W.W.W.W.W.W.W.W.W.W.W.q x d r q W.W.W.W.W.W.W.W.W.W.W.W.W.W.W.W.W.W.W.W.W.W.W.W.W.W.W.W.W.W.",
"W.W.W.W.W.W.W.W.W.W.W.W.W.W.W.W.W.W.W.W.W.W.W.W.W.W.N N v v v N v v v r 4 3 W.W.W.W.W.W.W.W.W.W.W.W.W.W.W.W.W.W.W.W.W.W.W.W.W.W.",
"W.W.W.W.W.W.W.W.W.W.W.W.W.W.W.W.W.W.W.W.W.W.W.W.W.A Y  .*.*.*.*.*. .J A n A z W.W.W.W.W.W.W.W.W.W.W.W.W.W.W.W.W.W.W.W.W.W.W.W.W.",
"W.W.W.W.W.W.W.W.W.W.W.W.W.W.W.W.W.W.W.W.W.W.W.W.A Y ..9.r.e.0.0.9.2.| | | W A r W.W.W.W.W.W.W.W.W.W.W.W.W.W.W.W.W.W.W.W.W.W.W.W.",
"W.W.W.W.W.W.W.W.W.W.W.W.W.W.W.W.W.W.W.W.W.W.W.A Y -.9.0.u.u.s.0.2.-. .|  .| E J t W.W.W.W.W.W.W.W.W.W.W.W.W.W.W.W.W.W.W.W.W.W.W.",
"W.W.W.W.W.W.W.W.W.W.W.W.W.W.W.W.W.W.W.W.W.W.A T -.2.3.3.2.3.2.-.E K K K J J W W A t W.W.W.W.W.W.W.W.W.W.W.W.W.W.W.W.W.W.W.W.W.W.",
"W.W.W.W.W.W.W.W.W.W.W.W.W.W.W.W.W.W.W.W.W.N Y *.3.;.Y Y Y Y S v x z z l t a J W W A & W.W.W.W.W.W.W.W.W.W.W.W.W.W.W.W.W.W.W.W.W.",
"W.W.W.W.W.W.W.W.W.W.W.W.W.W.W.W.W.W.W.W.W.A %.2.;. .Y F W -.-.-.&.-.*.T A A A I W A # W.W.W.W.W.W.W.W.W.W.W.W.W.W.W.W.W.W.W.W.W.",
"W.W.W.W.W.W.W.W.W.W.W.W.W.W.W.W.W.W.W.W.W.S -.2.W Y | ..2.0.s.0.e.s.e.:.*.| A v J A r W.W.W.W.W.W.W.W.W.W.W.W.W.W.W.W.W.W.W.W.W.",
"W.W.W.W.W.W.W.W.W.W.W.W.W.W.W.W.W.W.W.n S T T T W W ..3.0.e.u.u.e.e.r.0.3...W F c N Y t   W.W.W.W.W.W.W.W.W.W.W.W.W.W.W.W.W.W.W.",
"W.W.W.W.W.W.W.W.W.W.W.W.W.W.W.W.W.W.W.v S | Y A W  .%.8.u.u.e.e.e.e.u.s.9... .T l N W z   W.W.W.W.W.W.W.W.W.W.W.W.W.W.W.W.W.W.W.",
"W.W.W.W.W.W.W.W.W.W.W.W.W.W.W.W.W.W.W.v A T J S W |  .2.0.0.0.e.u.e.0.0.2. .W E l n U l   W.W.W.W.W.W.W.W.W.W.W.W.W.W.W.W.W.W.W.",
"W.W.W.W.W.W.W.W.W.W.W.W.W.W.W.W.W.W.W.9 r x m S W J c T %.;.9.e.e.9.;...T v K T l 9 r *   W.W.W.W.W.W.W.W.W.W.W.W.W.W.W.W.W.W.W.",
"W.W.W.W.W.W.W.W.W.W.W.W.W.W.W.W.W.W.W.,.<.*.T N S z o 9 N  .6.e.e.3.| N 9 o z A l N &.<.>.W.W.W.W.W.W.W.W.W.W.W.W.W.W.W.W.W.W.W.",
"W.W.W.W.W.W.W.W.W.W.W.W.W.W.W.W.W.W.P z.D.x.6.b 9 6 5 = z W 3.e.0.2.| a = 5 7 > 8 =.x.S.B.L W.W.W.W.W.W.W.W.W.W.W.W.W.W.W.W.W.W.",
"W.W.W.W.W.W.W.W.W.W.W.W.W.W.W.W.W.W.P C.L.N.9.m , ~ p.V 9 J *.:.2.%.S 9 V p.~ O 3 6.N.L.C.L W.W.W.W.W.W.W.W.W.W.W.W.W.W.W.W.W.W.",
"W.W.W.W.W.W.W.W.W.W.W.W.W.W.W.W.W.W.P c.J.m.7.v d / a.~ : v Y W  .Y v ; ~ a./ u 0 6.m.G.z.C W.W.W.W.W.W.W.W.W.W.W.W.W.W.W.W.W.W.",
"W.W.W.W.W.W.W.W.W.W.W.W.W.W.W.W.W.W.I d.V.b.7.H +.$.^ B 9 N T %. .T n 9 B ^ $.[ d :.b.V.d.n W.W.W.W.W.W.W.W.W.W.W.W.W.W.W.W.W.W.",
"W.W.W.W.W.W.W.W.W.W.W.W.W.W.W.W.W.W.N 6.w.q.%.Z D ' ] ;.1.8.s.l.l.s.7.1.=.] ' D p %.q.q.5.b W.W.W.W.W.W.W.W.W.W.W.W.W.W.W.W.W.W.",
"W.W.W.W.W.W.W.W.W.W.W.W.W.W.W.W.W.W.W.z x c n b s } 0.x.N.A.H.U.K.H.A.V.x.0.} y 4 0 l l 9 W.W.W.W.W.W.W.W.W.W.W.W.W.W.W.W.W.W.W.",
"W.W.W.W.W.W.W.W.W.W.W.W.W.W.W.W.W.W.W.a v I A M ` g.D.Y.R.R.E.E.E.E.R.R.Y.S.s.` p - - @ @   W.W.W.W.W.W.W.W.W.W.W.W.W.W.W.W.W.W.",
"W.W.W.W.W.W.W.W.W.W.W.W.W.W.W.W.W.W.W.n J | T H +.d.J.R.T.P.T.E.E.T.P.T.R.J.f.} p 2 3 3 : . W.W.W.W.W.W.W.W.W.W.W.W.W.W.W.W.W.W.",
"W.W.W.W.W.W.W.W.W.W.W.W.W.W.W.W.W.W.W.n S W | R m 6.M.K.Z.t.B.U.Y.B.t.Z.K.M.6.e 4 4 3 3 - . W.W.W.W.W.W.W.W.W.W.W.W.W.W.W.W.W.W.",
"W.W.W.W.W.W.W.W.W.W.W.W.W.W.W.W.W.W.W.n S |  .T r I 7.v.v.i.x.F.F.x.g.M.v.8.I 3 r r 3 3 : . W.W.W.W.W.W.W.W.W.W.W.W.W.W.W.W.W.W.",
"W.W.W.W.W.W.W.W.W.W.W.W.W.W.W.W.W.W.W.n S W | T x 2 n q.j.j.j.k.j.j.f.j.q.b % 0 m x 0 3 & . W.W.W.W.W.W.W.W.W.W.W.W.W.W.W.W.W.W.",
"W.W.W.W.W.W.W.W.W.W.W.W.W.W.W.W.W.W.W.n S | | W A s x J U R R U U U R U N 8 - 0 m v x 8 . W.W.W.W.W.W.W.W.W.W.W.W.W.W.W.W.W.W.W.",
"W.W.W.W.W.W.W.W.W.W.W.W.W.W.W.W.W.W.W.W.A T -.;.E A v 8                   3 3 0 x v t >   W.W.W.W.W.W.W.W.W.W.W.W.W.W.W.W.W.W.W.",
"W.W.W.W.W.W.W.W.W.W.W.W.W.W.W.W.W.W.W.W.W.S :.9.-.Y v q - . - > 2 3 2 # @ : > 9 x a 4 @   W.W.W.W.W.W.W.W.W.W.W.W.W.W.W.W.W.W.W.",
"W.W.W.W.W.W.W.W.W.W.W.W.W.W.W.W.W.W.W.W.W.A :.9.-.Y v q - . & 3 3 4 3 @   X - 3 9 3 @   W.W.W.W.W.W.W.W.W.W.W.W.W.W.W.W.W.W.W.W.",
"W.W.W.W.W.W.W.W.W.W.W.W.W.W.W.W.W.W.W.W.W.A -.2.;. .S t & X # : : : -   1 g M G %.T i W.W.W.W.W.W.W.W.W.W.W.W.W.W.W.W.W.W.W.W.W.",
"W.W.W.W.W.W.W.W.W.W.W.W.W.W.W.W.W.W.W.W.W.W.A | 8.2.W x & . O . . . . + g o.#.4.g.r.) W.W.W.W.W.W.W.W.W.W.W.W.W.W.W.W.W.W.W.W.W.",
"W.W.W.W.W.W.W.W.W.W.W.W.W.W.W.W.W.W.W.W.W.W.s E 8.3.| x : @ W.W.W.W.< h k D D { :.1.W.W.W.W.W.W.W.W.W.W.W.W.W.W.W.W.W.W.W.W.W.W.",
"W.W.W.W.W.W.W.W.W.W.W.W.W.W.W.W.W.W.W.W.W.W.v T 3.2.W c 3 W.W.W.W.W.W.! j <   + * W.W.W.W.W.W.W.W.W.W.W.W.W.W.W.W.W.W.W.W.W.W.W.",
"W.W.W.W.W.W.W.W.W.W.W.W.W.W.W.W.W.W.W.W.W.W.v S ..%.| b 3 W.W.W.W.W.W.W.W.W.W.W.W.W.W.W.W.W.W.W.W.W.W.W.W.W.W.W.W.W.W.W.W.W.W.W.",
"W.W.W.W.W.W.W.W.W.W.W.W.W.W.W.W.W.W.W.W.W.W.z c T E S r O W.W.W.W.W.W.W.W.W.W.W.W.W.W.W.W.W.W.W.W.W.W.W.W.W.W.W.W.W.W.W.W.W.W.W.",
"W.W.W.W.W.W.W.W.W.W.W.W.W.W.W.W.W.W.W.W.W.W.> b  .%.T p e b W.W.W.W.W.W.W.W.W.W.W.W.W.W.W.W.W.W.W.W.W.W.W.W.W.W.W.W.W.W.W.W.W.W.",
"W.W.W.W.W.W.W.W.W.W.W.W.W.W.W.W.W.W.W.W.W.W.O J w.h.i.O.O.w.4._ W.W.W.W.W.W.W.W.W.W.W.W.W.W.W.W.W.W.W.W.W.W.W.W.W.W.W.W.W.W.W.W.",
"W.W.W.W.W.W.W.W.W.W.W.W.W.W.W.W.W.W.W.W.W.W.w X.j.N.n.k.g.g.4._ W.W.W.W.W.W.W.W.W.W.W.W.W.W.W.W.W.W.W.W.W.W.W.W.W.W.W.W.W.W.W.W.",
"W.W.W.W.W.W.W.W.W.W.W.W.W.W.W.W.W.W.W.W.W.W.Q @.j.n.m.D.v.3.W.W.W.W.W.W.W.W.W.W.W.W.W.W.W.W.W.W.W.W.W.W.W.W.W.W.W.W.W.W.W.W.W.W.",
"W.W.W.W.W.W.W.W.W.W.W.W.W.W.W.W.W.W.W.W.W.W.W.O.1.5.6.y.y.W.W.W.W.W.W.W.W.W.W.W.W.W.W.W.W.W.W.W.W.W.W.W.W.W.W.W.W.W.W.W.W.W.W.W.",
"W.W.W.W.W.W.W.W.W.W.W.W.W.W.W.W.W.W.W.W.W.W.W.W.$ $ $ & : W.W.W.W.W.W.W.W.W.W.W.W.W.W.W.W.W.W.W.W.W.W.W.W.W.W.W.W.W.W.W.W.W.W.W."
};
