/* XPM */
static char *mono_arriba_resized[] = {
/* columns rows colors chars-per-pixel */
"48 48 157 2 ",
"   c None",
".  c #020100",
"X  c #0B0502",
"o  c #0D0805",
"O  c #0D0A08",
"+  c #130703",
"@  c #130A05",
"#  c #190A02",
"$  c #140D09",
"%  c #1A0F09",
"&  c #1C120B",
"*  c #1F1611",
"=  c #230F03",
"-  c #23150C",
";  c #2B1508",
":  c #27180F",
">  c #2A190E",
",  c #301A0D",
"<  c #261A10",
"1  c #2B1C11",
"2  c #321E11",
"3  c #3D210F",
"4  c #342114",
"5  c #3B2416",
"6  c #342119",
"7  c #3A2518",
"8  c #3F281A",
"9  c #3C2C23",
"0  c #451F07",
"q  c #4E2207",
"w  c #45210F",
"e  c #4C230A",
"r  c #422716",
"t  c #492916",
"y  c #442C1C",
"u  c #492E1D",
"i  c #5B2C10",
"p  c #4B301F",
"a  c #54311C",
"s  c #5B321C",
"d  c #602D0D",
"f  c #602F11",
"g  c #64361C",
"h  c #683B1F",
"j  c #422E22",
"k  c #423026",
"l  c #4E3221",
"z  c #533523",
"x  c #583323",
"c  c #573826",
"v  c #5B3A26",
"b  c #573528",
"n  c #5D3C28",
"m  c #633B23",
"M  c #693B23",
"N  c #613E2A",
"B  c #713D20",
"V  c #65412B",
"C  c #6A442E",
"Z  c #714022",
"A  c #7B4323",
"S  c #73452A",
"D  c #764A2F",
"F  c #7D4B2F",
"G  c #614635",
"H  c #6D4630",
"J  c #6F4831",
"K  c #744B33",
"L  c #794E36",
"P  c #754939",
"I  c #7D4F38",
"U  c #6E503F",
"Y  c #7B5037",
"T  c #7E5139",
"R  c #7E5543",
"E  c #765A48",
"W  c #844C2A",
"Q  c #8E4F2B",
"!  c #8A512E",
"~  c #8D5536",
"^  c #84563C",
"/  c #8C573A",
"(  c #87583D",
")  c #89593F",
"_  c #935632",
"`  c #975933",
"'  c #9B5A33",
"]  c #935B3B",
"[  c #9C5D3C",
"{  c #A76135",
"}  c #A5613C",
"|  c #B4683D",
" . c #895740",
".. c #805944",
"X. c #8D5B41",
"o. c #925E44",
"O. c #935E48",
"+. c #82604D",
"@. c #956145",
"#. c #9A6346",
"$. c #96614B",
"%. c #9C6649",
"&. c #9F694B",
"*. c #836551",
"=. c #986953",
"-. c #906F58",
";. c #98715A",
":. c #A46545",
">. c #A56348",
",. c #A8654A",
"<. c #A36A4C",
"1. c #A96E4F",
"2. c #B66C43",
"3. c #BB714B",
"4. c #AA6F51",
"5. c #AD7151",
"6. c #A6725A",
"7. c #B37555",
"8. c #B97957",
"9. c #B37358",
"0. c #BE775A",
"q. c #B5795D",
"w. c #BD7B5A",
"e. c #A47961",
"r. c #AA7F66",
"t. c #B87B60",
"y. c #C27C5B",
"u. c #AB846A",
"i. c #B78062",
"p. c #B58468",
"a. c #D1825E",
"s. c #C38265",
"d. c #C38368",
"f. c #CB8568",
"g. c #C18969",
"h. c #CD8B6F",
"j. c #D58663",
"k. c #D88764",
"l. c #D98865",
"z. c #D38B6E",
"x. c #DB8C6C",
"c. c #CA9578",
"v. c #D79374",
"b. c #DA9475",
"n. c #D79A7A",
"m. c #E19172",
"M. c #EA9777",
"N. c #E19C7C",
"B. c #D6A485",
"V. c #D9A182",
"C. c #DEAA8A",
"Z. c #E7A383",
"A. c #E4AD8C",
"S. c #E9AA89",
"D. c #F2A987",
"F. c #EEB592",
"G. c #F7B290",
/* pixels */
"                              6 7 y z v n N n u 7 4 7 6 4 6 6                                   ",
"                            V P T P V p l K ( ^ T Y T K V v c l                                 ",
"                          1 J <.5.<.K l c  .1.7.7.7.7.5.@.^ L V y                               ",
"                          1 J 5.5.X.X.@.X.X.@.5.w.w.w.w.5.%.( K V l                             ",
"                          7 J #.X.K X.5.7.X.J &.w.y.y.i.8.5.X.^ P l 1                           ",
"                          z v J K J K @.5.X.H %.w.w.y.w.w.5.X.^ L z 1                           ",
"                          y j l V Y H P @.X.T O.5.8.7.5.5.<.X.^ P z <                           ",
"                        l z z c J T Y J H X.&.^ ( 1.5.@.X.X.( ^ P z 2 6 9 9                     ",
"                      -.r.6.O.P K T ^ J c ) 1.Y C @.#.( ^ ( ^ ( L c N $.e.e.E                   ",
"                    k u.A.Z.y. .J ^ ^ J c ( <.K n T ( T T T T T P n O.z.S.B.*.O                 ",
"                    k u.F.D.f.) J Y L V n T +.V c K L J J V V K K v O.b.G.C.*.O                 ",
"                    j r.S.N.0.^ K K C C K Y J N V D K C C V v V H N  .s.Z.V.+.O                 ",
"                    j 6.v.q.o.I K C V Y %.( n V J J K Y Y L J N v H K ..d.h.R O                 ",
"                      $.9.O.K K K C V ( 4.X.v J T K L T ( ( T C c n n H $.4.P                   ",
"                      K ^ ^ K C D L C ( 5.X.c J T ^ ( ( T ( T J c p v K H b                     ",
"                        N K L C K L C ( 4.X.z n L T T ( ( ( ( K c y c K z %                     ",
"                        N L L J Y ) ^ ) &.( c z C T T ( ( ( T L n p c J p &                     ",
"                        n V C Y @.1.1.%.X.T J z v Y ( ( T ( ( T D n c l 4 @                     ",
"                        N C Y @.5.8.7.#.K J L z c L ( ( ( ( T ( T C c y > X                     ",
"                        V J X.5.8.7.<.( J K K v z T ( T T T ( ( T C v a 4 @                     ",
"                        V L @.7.7.<.X.L C J L c c T ( T ( T ( ( T C n v 7 #                     ",
"                        V L @.7.4.] ( Y C K J c c K T ( ( ( ( T T C V c 7 @                     ",
"                        V L @.7.<.) ^ T L C v z z n J ( ( T ( ( T C n c 8 @                     ",
"                        V L @.7.1.) ^ ( T V y l z y V T ( ( ( T T D V v 8 @                     ",
"                        C L @.7.<.) T ( T V u p l 8 N T ( ( ( T ^ Y D n 5 @                     ",
"                        V L o.&.%.( ( ^ T K v c p l v J T T ( ( ^ Y C l 4 o                     ",
"                        V L ^ X.) ^ ( ( ( T K a y z l z K ( ( T T J x 7 & X                     ",
"                        V K ^ ^ ^ ^ T ( ( ) Y c 8 z u u J T ( ( T C p 6 % .                     ",
"                        C T X.( ^ ( ( ^ ^ ^ Y v u c a c J T ( ( T J v 8 : @                     ",
"                        J @.&.X.( T ^ ^ ^ ^ T V c v C J J K T ( ^ L C c 7 - @                   ",
"                        J @.<.&.@.( ^ ^ ^ ^ Y C v n C Y F Y Y T ^ ^ L N y 1 @ .                 ",
"                        C ^ &.4.&.X.T ( ^ ^ ^ D V V V F ' ` K K ^ ^ L N y 1 @ .                 ",
"                        J X.1.8.<.) ^ ^ ^ / ` _ ! ! ! _ { ' S K ^ ^ Y n y 1 O .                 ",
"                        K &.8.i.1.) ^ ^ ( } 2.2.2.2.2.2.| ' S J Y T K V u : @ .                 ",
"                        D :.8.8.<.) ^ Y Y 4.j.k.l.l.l.a.3.` m v J J C v u 1 @ .                 ",
"                        K :.y.i.1.( ^ L K 7.b.M.M.M.M.x.3.W p u c n n a 8 1 @ .                 ",
"                        K &.i.8.1.) ^ K K 9.b.M.M.M.M.z.#.a 4 4 y a a 8 4 < @ .                 ",
"                        J @.3.8.5.%.X.Y C O.0.j.k.l.k.y.I 4 1 1 4 y y 4 < & $                   ",
"                        C T #.8.w.7.@.I V N D [ 2.2.2.} M 1 : 1 4 5 5 1 & o                     ",
"                        V K @.7.y.8.#.Y N y r h A A A Z t - : < 3 f i , o                       ",
"                        V K @.5.0.8.#.T V u 6 4 4 , 2 4 = = t m ^ #.~ s                         ",
"                          C L @.4.7.#.L N u 6 <         + 0 W ,.s.n.g.]                         ",
"                            n J X.>./ N z 8 >             q B ,.s.c.p.~                         ",
"                              a W o.W v u > #               r x H U G u                         ",
"                              Z =.d.t.O.S e #                 @ @ $ $                           ",
"                              ! t.V.n.0._ d =                                                   ",
"                              g R ;.=.^ M q                                                     ",
"                              # & - * % # +                                                     "
};
