/* XPM */
static char *mono_abajo_resized[] = {
/* columns rows colors chars-per-pixel */
"48 48 132 2 ",
"   c None",
".  c #060302",
"X  c #0A0503",
"o  c #0E0804",
"O  c #120A05",
"+  c #140D08",
"@  c #1D120A",
"#  c #291D07",
"$  c #23160D",
"%  c #3B1B09",
"&  c #2C1C11",
"*  c #321E12",
"=  c #3D200E",
"-  c #3C280C",
";  c #352215",
":  c #3B2516",
">  c #3D261A",
",  c #3E281A",
"<  c #3F2920",
"1  c #442614",
"2  c #41271D",
"3  c #442B1C",
"4  c #4A2E1E",
"5  c #4C301F",
"6  c #593A10",
"7  c #723917",
"8  c #733D1E",
"9  c #452F23",
"0  c #492D21",
"q  c #413026",
"w  c #4E3221",
"e  c #453328",
"r  c #48362A",
"t  c #4F382A",
"y  c #533523",
"u  c #573826",
"i  c #5C3A26",
"p  c #5D3B2A",
"a  c #673F27",
"s  c #6C3D20",
"d  c #613E2A",
"f  c #5B4107",
"g  c #6D5007",
"h  c #664215",
"j  c #65412C",
"k  c #6A432E",
"l  c #734123",
"z  c #78442C",
"x  c #76492F",
"c  c #6E4632",
"v  c #6F4831",
"b  c #704531",
"n  c #734A33",
"m  c #7A4E36",
"M  c #7C4F3A",
"N  c #7B5037",
"B  c #7D5138",
"V  c #84411A",
"C  c #805214",
"Z  c #916A07",
"A  c #A4661B",
"S  c #8A5026",
"D  c #8E522A",
"F  c #824D31",
"G  c #845031",
"H  c #895435",
"J  c #84553C",
"K  c #8E543A",
"L  c #87583D",
"P  c #89593F",
"I  c #9C5C34",
"U  c #935A3D",
"Y  c #9B5C3A",
"T  c #A25C38",
"R  c #845440",
"E  c #8D5C42",
"W  c #935E44",
"Q  c #956145",
"!  c #996447",
"~  c #926349",
"^  c #9D6649",
"/  c #8C6B56",
"(  c #947059",
")  c #9E715A",
"_  c #A66040",
"`  c #A3674B",
"'  c #A36A4C",
"]  c #A96E4F",
"[  c #A76D55",
"{  c #AA6F52",
"}  c #B26F54",
"|  c #AE7152",
" . c #A3755D",
".. c #AD745B",
"X. c #B37455",
"o. c #B97554",
"O. c #B97957",
"+. c #BD775B",
"@. c #BC7B5A",
"#. c #BF7B60",
"$. c #C07453",
"%. c #C27E63",
"&. c #BB8811",
"*. c #BD8769",
"=. c #B6896E",
"-. c #B98A6F",
";. c #B68D71",
":. c #BC8B71",
">. c #C78165",
",. c #CA8766",
"<. c #C78268",
"1. c #CD8568",
"2. c #C88C6B",
"3. c #D58B6D",
"4. c #C78F73",
"5. c #D09175",
"6. c #D89271",
"7. c #D0987C",
"8. c #D99A7A",
"9. c #E09476",
"0. c #EA9878",
"q. c #DAA686",
"w. c #E2A182",
"e. c #EEAD8B",
"r. c #F3AD8B",
"t. c #EDB293",
"y. c #D5B6A2",
"u. c #E1BEA8",
"i. c #F8C3A6",
"p. c #F5C4AB",
"a. c #F5CCB3",
"s. c #FACFB5",
/* pixels */
"                                  k b                                                           ",
"                                J ^ ' J k                                                       ",
"                                J | ^ ! ! P                                                     ",
"                                n E B W | ! k                                                   ",
"                                j j   b ! Q B                                                   ",
"                                        k Q ! w                                                 ",
"                                        i P ^ w                                                 ",
"                                        j B B 3                                                 ",
"                                        E J p                                                   ",
"                                      k ! E ,                                                   ",
"                                      k ! E ,                                                   ",
"                                      j Q E w                                                   ",
"                                        n N k ,                                                 ",
"                                        i n v ,                                                 ",
"                                        d b v ,                                                 ",
"                                          j p 5                                                 ",
"                                            3 y :                                               ",
"                                          : 3 y 3                                               ",
"                                      j j k j k j j w , ,                                       ",
"                                    j N Q ] ] ] ' L n n k 3                                     ",
"                                  j N ! X.@.@.O.^ E J R N k 3                                   ",
"                                j N Q ^ ! ^ ! P n j k j v N j ,                                 ",
"                                n ! ! J n N J m n v j u p v m 3                                 ",
"                              j J ! J B L ' X.X.O.X.^ J n j v w &                               ",
"                              v N m B J ' O.>.$.*.@.O.' J b i k y                               ",
"                            i c n k N L ' @.@.O.@.O.O.' L m u k y .                             ",
"                            4 u d j m k m ! { O.@.] Q m k n w 5 : +                             ",
"                            (  .E k u * & j ! o.O.Q j * ; w w R ) /                             ",
"                          r ;.e.<.k - g f y E { | P 5 6 g # 9 %.e.;.q                           ",
"                          r :.r.1.b h &.Z 1 k L L k 1 Z &.6 y >.r.;.9                           ",
"                          9 ..9.$.m D A g d B ~ Q N i C A S a #.9...<                           ",
"                            M R R j l I O.<.5.q.q.5.<.o.I s 0 c M c                             ",
"                            5 u d a H 2.t.p.p.s.s.a.u.t.2.G 1 & $ O                             ",
"                            i b N x U 8.i.y.y.a.a.y.u.i.8.H 1 & & @ .                           ",
"                            j v J m i [ w.7.-.e.e.:.8.w.[ 0 : * & @ X                           ",
"                            d b J m 5 y ..3.1.3.3.1.3.[ 0 * y 4 * @ .                           ",
"                            p b J J j y p p p i p p p 0 & * u y ; o                             ",
"                              j J ` J j > O X + + + X + & > y 0 $ .                             ",
"                                L { W k 3 @ + & * * + o @ ; 9 * O                               ",
"                                B ! ! M w $ o @ @ @ + 1 8 F W a                                 ",
"                                  B ] W u $ X . . O % 8 D Y X._                                 ",
"                                  n ' ! p &         V 7 = * 4                                   ",
"                                  k J J u @                                                     ",
"                                  u B M y & 2                                                   ",
"                                  p X.+.U K `                                                   ",
"                                  K 3.0.6.1.$.                                                  ",
"                                  T +.%.4.2.T                                                   ",
"                                    0 , 9 t                                                     "
};
