/* XPM */
static char *_4318_1e9aafc006f554ec7435f14488a4248791b3dee0a116faad8906a7c1168dce44[] = {
/* columns rows colors chars-per-pixel */
"32 31 15 1 ",
"  c #661E39",
". c #66283F",
"X c #4C423D",
"o c #663346",
"O c #663D4D",
"+ c #7F5968",
"@ c #936D7C",
"# c #A1887C",
"$ c #B2A58E",
"% c #B2B2A0",
"& c #C1B6A2",
"* c #D9D9C3",
"= c #E5E5CE",
"- c #FFFFE5",
"; c None",
/* pixels */
";;;;;;;;;;;;XXXXX;;;;;;;;;;;;;;;",
";;;;;;;;;;;X-----X;;;;;;;;;;;;;;",
";;;;;;;;;;X$=====$XX;;;;;;;;;;;;",
";;;;;;;;;X$=*****=$$X;;;;;;;;;;;",
";;;;;;;;X-=******$$%=X;;;;;;;;;;",
";;;;;;;X-=***$$*$****=X;;;;;;;;;",
";;;;;;X-=***==%*******=X;;;;;;;;",
";;;;;;X-=***********==--X;;;;;;;",
";;;;;X$$%%********==--$$X;;;;;;;",
";;;;;X@@@@%*****==--#$$&&X;;;;;;",
";;;;X@@@@@@%**==---##&&&&XX;;;;;",
";;;;X@@+O+@@########&&&$$--X;;;;",
";;;;X@+OO+@@+####&&&&&$-===-X;;;",
";;;X#+o +@@@+###&&&&&$-==**=-X;;",
";;X$$#.o+@@@+##&&&&&$-==***==#X;",
";;X$$$#o@@@+##&&&&$$-=****==-#X;",
";X@$$%%#@@+##&&&&$#-=***==--#$X;",
";X@@%*****#########-==*=---#$$X;",
";X@++O*****=#####@##--=-###$$$$X",
"X@+Ooo++**==-%$#@+@#####$$$$&&&X",
"X+OooO++#=--%%$$+O+####$$$$&&&&X",
"XOOoO+++#####$$@+O+#####$&&&&&&X",
";X.o++OO######@@+O######$&&&&&&X",
";;X.++OO######*****######&&&&&X;",
";;;XXO.###@+********=--##$&&XX;;",
";;;;;XX##@+O+******=--$$#XXX;;;;",
";;;;;;;XXX+O+&&*$##$*$&&X;;;;;;;",
";;;;;;;;;;X+@&####+O$&&X;;;;;;;;",
";;;;;;;;;;;X@####+OO&&X;;;;;;;;;",
";;;;;;;;;;;;X@@@+OOO&X;;;;;;;;;;",
";;;;;;;;;;;;;XXXXXXXX;;;;;;;;;;;"
};
