/* XPM */
static char *piedra_resized[] = {
/* columns rows colors chars-per-pixel */
"64 64 195 2 ",
"   c None",
".  c #3F3531",
"X  c #5F2E3E",
"o  c #453A36",
"O  c #473E39",
"+  c #493E3A",
"@  c #413734",
"#  c #56373D",
"$  c #5C323E",
"%  c #523C3D",
"&  c #65263E",
"*  c #63283F",
"=  c #4B413C",
"-  c #474039",
";  c #5C3C45",
":  c #5E3F48",
">  c #573F43",
",  c #642D41",
"<  c #6A2E45",
"1  c #653346",
"2  c #6A3147",
"3  c #663648",
"4  c #6B374B",
"5  c #663B4C",
"6  c #6B3C4D",
"7  c #713D4C",
"8  c #6C3E50",
"9  c #534442",
"0  c #564A45",
"q  c #584C47",
"w  c #5B4B4B",
"e  c #584747",
"r  c #5D524B",
"t  c #62434C",
"y  c #6C484D",
"u  c #61554E",
"i  c #63584F",
"p  c #6C4353",
"a  c #654E52",
"s  c #6C4B56",
"d  c #6E4C58",
"f  c #6F4658",
"g  c #714556",
"h  c #734C5B",
"j  c #794E5D",
"k  c #734A58",
"l  c #645A52",
"z  c #685D55",
"x  c #685355",
"c  c #74525C",
"v  c #7C565D",
"b  c #715A5D",
"n  c #6D635A",
"m  c #73645B",
"M  c #71685E",
"N  c #775160",
"B  c #7B5363",
"V  c #755A62",
"C  c #7D5A65",
"Z  c #7F5A68",
"A  c #746C62",
"S  c #7B6C62",
"D  c #7F606A",
"F  c #7B6661",
"G  c #7B7165",
"H  c #7C7469",
"J  c #7E786D",
"K  c #81545B",
"L  c #825B6B",
"P  c #865F62",
"I  c #865F70",
"U  c #84636D",
"Y  c #88646E",
"T  c #8B6A6D",
"R  c #846768",
"E  c #906D6E",
"W  c #807465",
"Q  c #82776A",
"!  c #8B756B",
"~  c #837A6E",
"^  c #8C7B6E",
"/  c #93776F",
"(  c #876170",
")  c #8B6573",
"_  c #8D6A74",
"`  c #8F6978",
"'  c #906D76",
"]  c #936C7C",
"[  c #867D71",
"{  c #8A7D72",
"}  c #8E7379",
"|  c #8C7275",
" . c #937473",
".. c #967A74",
"X. c #997D76",
"o. c #95737C",
"O. c #99767E",
"+. c #9A7D7A",
"@. c #8D8173",
"#. c #8A8478",
"$. c #928577",
"%. c #9D8277",
"&. c #9E847A",
"*. c #948B7C",
"=. c #9A8D7B",
"-. c #9D917D",
";. c #A0877B",
":. c #A2897D",
">. c #967380",
",. c #987481",
"<. c #9C7B82",
"1. c #9E8588",
"2. c #9F898A",
"3. c #998684",
"4. c #9D9483",
"5. c #9C9788",
"6. c #A48D82",
"7. c #A28C8A",
"8. c #A38788",
"9. c #A69283",
"0. c #A99486",
"q. c #AB9A87",
"w. c #A3928C",
"e. c #AA9689",
"r. c #A49A8A",
"t. c #AD9D8A",
"y. c #A39885",
"u. c #B09E8E",
"i. c #AE9D94",
"p. c #AC9996",
"a. c #B09B93",
"s. c #AEA08D",
"d. c #B2A48E",
"f. c #B4A88F",
"g. c #A5A091",
"h. c #AEA293",
"j. c #ADA399",
"k. c #AFAB99",
"l. c #B4A592",
"z. c #B9A596",
"x. c #B5A993",
"c. c #B8AC96",
"v. c #B4A39B",
"b. c #B2AD9A",
"n. c #BBAD9B",
"m. c #B3B19E",
"M. c #BDB29D",
"N. c #B7A4A1",
"B. c #BAACA1",
"V. c #B4B2A1",
"C. c #BEB3A1",
"Z. c #BEB5A9",
"A. c #BDBCAA",
"S. c #BAB9A4",
"D. c #C0AE9E",
"F. c #C0B59F",
"G. c #C1B6A2",
"H. c #C4B9A4",
"J. c #C4BDAA",
"K. c #CABCAA",
"L. c #C5C1AD",
"P. c #CAC2AD",
"I. c #CCC5B2",
"U. c #CCCAB5",
"Y. c #CDCDB9",
"T. c #D3CCB5",
"R. c #D2CEB8",
"E. c #D1C4B1",
"W. c #CFD0BA",
"Q. c #D4D2BD",
"!. c #DBD3BD",
"~. c #DBD8BF",
"^. c #D7D6C0",
"/. c #DAD7C1",
"(. c #DADAC4",
"). c #DFDFC8",
"_. c #D7D8C2",
"`. c #E1DCC5",
"'. c #E0DFC8",
"]. c #DFE0C9",
"[. c #E3E3CC",
"{. c #EAE6CE",
"}. c #E4E0C7",
"|. c #E7E7D0",
" X c #EBE7D0",
".X c #ECEBD3",
"XX c #F1EED6",
"oX c #EFF0D8",
"OX c #F2F0D7",
"+X c #F4F4DB",
"@X c #F8F7DD",
"#X c #F9F8DF",
"$X c #F7F8DF",
"%X c #FCFDE3",
"&X c #FFFFEA",
/* pixels */
"                                                O O o O o O o o O o                                                             ",
"                                                M A A A A A A A A M                                                             ",
"                                            @ M b.Y.U.I.U.I.I.Y.U.b.M @                                                         ",
"                                            r ~ ^.%X%X%X%X%X%X%X&XQ.[ q                                                         ",
"                                        o r G t./.+X+X+XOXOX+X+XOX~.s.W r o O O                                                 ",
"                                        q M y.J._.[.[.[.[.[.[.[.[.~.L.y.M r w r                                                 ",
"                                      r G -.H./.(.).(.(.).(.).(.].(.~.L.4.@.@.W r                                               ",
"                                    i G -.L.~.[.)._.(.(.(.(._.(.~.(.(.T.M.d.x.-.A u                                             ",
"                                  n r.A.U.Q.).).]._._.].(.(.(.(.(.Q.P.M.x.f.b.m.k.-.n                                           ",
"                                r #.^.%X.X[.(.(._.~.Q.Q.Q.^.^.^.~.U.M.c.x.b.m.L.].A.J q                                         ",
"                              z 5.L.[.oX[.)._._._.Q.L.M.C.P.Q.Q.L.H.L.P.L.U.U.W.].Q.V.4.l                                       ",
"                            q [ Q.$X.X[.)./._.(.(.W.C.x.x.M.R.R.M.M.T.(._._.Q._._.(.].A.H q                                     ",
"                          n 5.A.[.+X[.).(._._.(.].(.W.P.b.C.Y.^.U.I.~._.]._.].~._.(.[.W.k.*.i                                   ",
"                        O G U.%X.X[.)._._.(.(.).}.[.[.Q.A.A.Y.(._._._._.(._._.~.(.(._.).[.A.H 0                                 ",
"                        @ A ^.&XOX[.)._.(.(._.(.).].[.(.Y.U.^.(.(.(.(.~._._.(.~.].].(.|.%X|.S.5.n                               ",
"                        = G Y.%X.X)./.~.(._._._._.(.(.(._././._._.(._.(.(.(.(.].[.|.|..XoX%X+XI.A O                             ",
"                      r M =.H.~.Q.U.U.Y._.(.(._._._.(.(.(.(.(.(._._._.(.(.).).|.OX@X@X.X`.~.`.m.n o                             ",
"                    = l $.s.l.c.m.V.V.A.Y._._.(._.(._.(.(._._.(.(.(._.).[.|.[. X@X#X#X{.P.x.x.-.n =                             ",
"                    O u { e.8.8.5.7.w.p.A.Y._.(.(._.(.(._._.(.(.).).).'..X+X@X.X!.T.!.T.c.d.x.t.#.S u                           ",
"                    = w Y O.o.o.o.>.>.<.j.A.^._._.(._.(.(.(.(.(.'.[.[.|.%X%X%X`.D.q.f.c.f.f.M.G.M.4.z +                         ",
"                  e x V ) ] ] ] ` >.` >.2.p.A.^._.(.).(.).].[.{.OX+X+X%X&X@X`.K.9.:.u.x.c.M.M.H.K.r.l @ .                       ",
"                = w D ` ] ] ] ] >.` >.>.>.3.j.A.R./._.(.).[.[. X+X%X%X%X%X{.D.9.:.9.c.F.G.F.G.G.H.r.n = = 9                     ",
"                + w L >.>.] ` ( Z L ( ` ) >.2.j.C.J.H.J.K.I.K.E.!.!.R.!.!.K.0.;.9.l.F.H.H.F.M.x.n.x.4.*.*.#.i                   ",
"                = w U >.] ` ( B f 8 Z D ` >.>.<.7.6.0.0.0.0.9.9.e.e.e.e.e.0.:.9.z.D.G.F.F.F.x.f.d.G._..X.XL.A =                 ",
"                = w U ] ] L C k 8 8 N I >.>.I I ` ] +.+.;.;.;.;.+.:.9.9.0.0.e.l.M.H.G.F.M.M.P.P.J.T..X&X%X].i.J u               ",
"                = w U ` ( B f 6 5 p B D ) ) >.>.I ) +.:.:.;.;.;.;.9.z.n.n.n.n.D.G.G.G.M.x.H.}..X}.).{..X.X.X[.A.A O             ",
"                u b U ( B g 4 2 8 h Z I >.>.>.I I P X.:.;.;.;.:.0.u.D.H.H.G.H.H.G.F.M.F.H.T.OX@X.X[.].].]..X%X).r.H l           ",
"            = u W ^ Y B g 4 & < h Z I >.) >.>.>.L T X.:.:.;.;.9.z.D.F.F.G.G.G.G.G.M.f.F.}.OX.X.X|.[.).(.(.).|..X|.S.A o         ",
"            i M %.:. .K 6 & & < j I >.>.>.>.) ) I I +.:.;.:.9.u.M.H.G.G.G.G.G.G.M.F.H.T..X$X.X[.[.].(._._.(.[..X%XQ.{ w         ",
"        + l ^ 9.t.q.;.E 7 * , 6 j I I >.>.` >.>.I P X.:.:.9.l.D.G.G.G.G.G.G.G.M.x.F.`.XX.X.X[.[.].(.(._._.(.[.|..XQ.e.F r +     ",
"        O l =.x.l.d.0.X.K 7 2 6 B I ` I >.>.) ) ) E +.:.9.u.D.H.G.G.G.G.M.M.M.M.G.T..X+X.X[.[.'.(._._.(.(.).[..X.X(.z.! r +     ",
"        O l =.f.x.d.d.-.X.P 6 7 L >.>.>.) ) I I  .+.;.:.u.D.F.F.G.G.G.F.c.l.f.F.`.XX.X|.[.(.(.)._._.^.).).[.[. X@X{.z.! u =     ",
"        w m =.x.f.f.f.h.t.X.K j I >.>.>.' ) Y ' &.:.0.u.M.H.G.G.G.G.F.n.d.d.n.T..X%X|.).(.(._.(.).(.).).{. X.X.X X!.f./ u -     ",
"    = w V | 0.x.s.f.k.m.k.r.%._ ` ` ` ` L Y  .X.;.6.l.n.G.H.H.G.G.C.c.d.9.l.!. X.X.X).(._.(._.(.).'.'.|.+X%X%X.XK.z.d.$.u +     ",
"    = w D <.6.t.f.m.S.A.S.V.j.e.<.8.<.<._ T X.;.;.9.l.n.n.n.n.n.M.c.d.q.:.z.{.%X.X[.).(.(._.(.'.|..X.XOX%X%XXX!.a.:.f.=.i +     ",
"    + w U >.<.7.h.S.U.W.W.Y.I.L.K.K.J.n.8...%.;.:.:.0.e.0.0.e.0.0.0.9.:.;.z. X%X.X[.'.'.(.(.).|.+X%X%X&X%XXXE.z.u.q.f.=.u +     ",
"    = w D ] ] >.r.k.Z.I.^._.(.(.).^.).K.v.t.e.e.:.;.;.;.:.;.:.;.;.;.;.+.;.u.!.XX.X X.X|.].].{.XX.X X XXXXX!.d.:.s.f.f.-.m r     ",
"    O w U ] ( ) } } | 2.I.].].).).).)._.I.K.I.H.e.&.;.;.;.&.&.;.;.;.+.+.;.9.z.E. X%X%X+X|..X@X XI.n.D.F.D.z.u.q.s.d.f.q.=.Q u + ",
"    0 x U ` L C B h 5 Z v.I.I.Y.^.(._.(.(.).[./.n.e.6.:.6.:.:.:.;.+.] o.+.;.%.a.`.XXXX X).`. X!.z.:.:.:.:.9.d.d.f.f.x.x.x.=.l = ",
"= w b Z L L h p p 6 3 f o.2.8.p.^.(.(.(.'.[.|.[.`.R.M.s.q.0.6.&.+.] Y ) ] +.;.9.z.G.H.D.n.n.F.D.u.9.0.q.0.q.d.f.c.M.M.M.F.9.l O ",
"= w D ) L N p 3 1 1 1 8 N Z L o.N.^.(.).[..X|..XoX[.L.k.k.s.9.&.O.) L L ) o.&.:.:.:.:.:.:.:.:.0.s.d.d.d.d.d.d.c.M.G.G.H.H.r.z = ",
"= w Z I N p 5 3 1 1 3 8 N B B ) w.Z.Q..X+X%X%XoX).Y.A.m.f.s.t.6.' L h k Z _ +.:.&.&.&.&.:.:.q.q.d.d.f.d.d.x.c.M.F.G.G.G.H.y.l + ",
"= e c j p 5 3 1 1 3 8 p B Z B U o.a.T.[.XX+X+X[.L.k.b.b.x.f.s.4._ N 8 p N Y +.:.:.;.;.;.:.:.q.d.d.f.f.x.x.x.M.G.G.G.G.J.H.y.z = ",
"= 9 a p 8 3 3 1 3 6 f j Z Z L U +.6.z.G.H.K.K.G.h.t.h.x.f.s.0.+.( N p 8 j U X.:.:.:.;.;.:.:.:.d.s.f.c.c.n.M.G.G.G.G.G.G.H.r.l + ",
"= 9 e 5 5 5 1 3 5 p B Z L C C R X.:.:.:.6.:.:.:.:.6.t.d.s.e.<.` L B p p B T +.:.:.;.;.:.;.:.:.:.q.x.M.F.G.G.G.G.G.G.G.G.H.r.z + ",
"  % > ; 3 1 3 3 f N Z C h f f v ..:.;.;.+.;.;.;.;.:.9.9.6.<.] ) L h 5 p U ..&.:.;.:.:.;.:.;.:.:.d.x.F.G.G.G.G.G.G.G.G.H.K.r.z + ",
"    = > * & , 6 j L Z B p 5 5 j / :.:.:.:.;.;.;.:.:.:.;.<.,.>.] ) Z h B ..6.:.:.:.;.;.;.;.:.;.-.q.x.M.G.G.G.G.G.G.G.G.G.M.4.l = ",
"      + # ; , 4 j L L B p 5 5 k / :.:.;.:.:.:.:.;.&.&.6.p.N.N.N.p.p.7.r.c.c.6.&.;.&.;.&.&.%.;.:.9.u.M.G.G.G.G.H.H.H.J.c.*.G u   ",
"        = # 1 2 j C C B p 5 5 c  .:.:.;.:.;.:.&.6.6.:.i.L.^.^.^.^.^.R.^.^.I.t.6.:.6.:.9.9.:.:.;.;.0.c.H.G.C.H.C.M.M.M.r.n 9     ",
"          % # ; t s h g 4 6 v T X.:.:.:.+.O. .&.l.C.n.H.Q.).(.(._.(.).).(.Q.H.n.G.H.K.E.E.H.0.;.;.9.l.F.H.H.J.c.*.[ ~ H r       ",
"            = = = e t 3 < y T ;.:.:.:.&.O.` L o.Z.^.^.Q.^.(.(._._._.(._.(._.Q./.`.{.+X@X@X`.z.;.:.-.q.l.M.M.C.r.n 0 0 0         ",
"              = = = > > $ y / :.:.:.3.+.' L j L 8.Z.R.).(.(.(.(.(.(.(.(.(.).[.[.XX%X%X%X{.E.x.-.:.%.^ Q @.@.@.Q u @ @           ",
"                    = = + u ! ;.&.&.o.` I B p s Z <.J.)._._.(.(._._._._./.(.'..X+X&X%X XP.x.f.q.9./ z 0 0 q 0 q                 ",
"                      = = u m P S F V V Z B p 5 h } B.R.R.Q.^.^.Y.K.H.H.H.J.U.~.|..X{.R.M.c.n.s.^ m q @ @ O O                   ",
"                            = q 0 0 0 a N N p p N ` v.J.H.P.Q.R.F.d.e.7.6.e.f.C.!.T.H.M.M.C.G.r.m 9                             ",
"                              = O - o 9 a d s j L o.l.C.c.z.G.C.d.0.:.&...^ ..9.M.J.M.x.G.n.y.~ u                               ",
"                                        9 w h Z ) <.z.n.t.6.0.0.6.:.;.%.T C h R 9.M.M.M.H.r.A r                                 ",
"                                          e a V ` <.a.d.6.&.&.&.;.;.+._ C f 5 c 6.M.G.M.r.@.r                                   ",
"                                            9 a U ,.8.:.:.:.:.:.:.X.T C d 5 3 v q.G.H.t.A r                                     ",
"                                            - w b Y ..8.+.&.+.&.+. .C k p 5 5 C i.C.r.#.r @                                     ",
"                                                0 x Y o.o.o.o.o.T C f p 5 5 5 C i.h.G r                                         ",
"                                                + w V D D D D Z N s t ; : ; : x $.$.i @                                         ",
"                                                    w w w w w w e 9 9 > 9 = 9 e r l                                             ",
"                                                    = - = = - = = = = = = = = = = +                                             "
};
