/* XPM */
static char *result[] = {
/* columns rows colors chars-per-pixel */
"16 16 5 1 ",
"  c #7D3833",
". c #CF752B",
"X c #F0B541",
"o c #FFEE83",
"O c None",
/* pixels */
"OOOOOOOOOOOOO OO",
"OOOOOOOOOOOOO  O",
"OOOOOOOOOOOOO  O",
"OOOOOOOOOOOOXo O",
"OOOOOOOOOOOXooX.",
"OOOOOOOOOOOXooX.",
"OOOOOOOOOOXoooX.",
"OOOOOOOOOOXooXX.",
"OOOOOOOOOXoooXX.",
"OOOOOOOXXoooXX.O",
"OOOOXXXooooXXX.O",
"OXXXooooooXXX.OO",
"  ooooooXXXX.OOO",
"O XXXXXXXX..OOOO",
"OO..XXXX..OOOOOO",
"OOOO....OOOOOOOO"
};
