/* XPM */
static char *salida_abierta_resized[] = {
/* columns rows colors chars-per-pixel */
"32 32 37 1 ",
"  c None",
". c #37B334",
"X c #03C801",
"o c #05C902",
"O c #01EA00",
"+ c #04E801",
"@ c #04EA01",
"# c #01FE00",
"$ c green",
"% c #02FF00",
"& c #03FF00",
"* c #04FF00",
"= c #07FE01",
"- c #2BC629",
"; c #33DC31",
": c #43DD40",
"> c #66D965",
", c #818181",
"< c #999999",
"1 c #B9B9B9",
"2 c #BBB9BB",
"3 c #BBBBBB",
"4 c #BCBCBC",
"5 c #85D484",
"6 c #C6C6C6",
"7 c #D0D8CF",
"8 c #D2D2D2",
"9 c #D7D7D7",
"0 c #D9D9D9",
"q c #DAD9DA",
"w c #DBDBDB",
"e c #DBDEDB",
"r c #D5E0D4",
"t c #E1E1E1",
"y c #E2E2E2",
"u c #F4F2F4",
"i c #F7F4F7",
/* pixels */
"                                ",
"           uir                  ",
"           >5-%                 ",
"           #+X&&&               ",
"           &@o&&&&&             ",
"           &@o&&&&&&&           ",
"           &@o&&&&&&&&&         ",
"           &@o&&&&&&&&&&&=      ",
"           &@o&&&&&&&&&&&&&     ",
"           &@o&&&&&&&&&&&&      ",
"           &@o&&&&&&&&          ",
"           &@o&&&&*             ",
"           $OX&&                ",
"           :;.                  ",
"           e72                  ",
"           yq4                  ",
"           y03                  ",
"           y03                  ",
"           y03                  ",
"           y03                  ",
"           y03                  ",
"           y03                  ",
"           y03                  ",
"           y03                  ",
"           y03                  ",
"           y03                  ",
"           y04                  ",
"           t01                  ",
"           9w<                  ",
"           68,                  ",
"                                ",
"                                "
};
