/* XPM */
static char *arbol_3_resized[] = {
/* columns rows colors chars-per-pixel */
"64 64 208 2 ",
"   c None",
".  c #291C18",
"X  c #2B1D17",
"o  c #3F1F17",
"O  c #352215",
"+  c #3C2513",
"@  c #3E2A15",
"#  c #3A0D27",
"$  c #341522",
"%  c #452A0F",
"&  c #4C2E0E",
"*  c #512F0B",
"=  c #54330C",
"-  c #5D3B0C",
";  c #5A360A",
":  c #402711",
">  c #442B11",
",  c #4A2F12",
"<  c #4D3513",
"1  c #523611",
"2  c #543A12",
"3  c #593E10",
"4  c #643A06",
"5  c #613D0B",
"6  c #773A1F",
"7  c #42112B",
"8  c #4A152E",
"9  c #4B1B2D",
"0  c #501E2F",
"q  c #4E1932",
"w  c #541B33",
"e  c #5A1D36",
"r  c #5C1D39",
"t  c #5F2038",
"y  c #5E2037",
"u  c #472229",
"i  c #64223B",
"p  c #6B263E",
"a  c #6B2739",
"s  c #5D4114",
"d  c #64420C",
"f  c #6C460B",
"g  c #6C4A0D",
"h  c #724605",
"j  c #764906",
"k  c #7B4D05",
"l  c #734C0A",
"z  c #794F0C",
"x  c #74500B",
"c  c #7A540B",
"v  c #7D560A",
"b  c #644712",
"n  c #735110",
"m  c #775A16",
"M  c #6F5117",
"N  c #7D651A",
"B  c #6D2641",
"V  c #762A44",
"C  c #792C44",
"Z  c #7D2D48",
"A  c #7B3044",
"S  c #7F3048",
"D  c #835405",
"F  c #885703",
"G  c #855906",
"H  c #8B5C05",
"J  c #825509",
"K  c #855A0B",
"L  c #8A5D0B",
"P  c #955F08",
"I  c #8D620A",
"U  c #936305",
"Y  c #996605",
"T  c #9C6A05",
"R  c #92640A",
"E  c #95690A",
"W  c #9B6D0A",
"Q  c #966807",
"!  c #9D720C",
"~  c #9F7107",
"^  c #876313",
"/  c #9A6E11",
"(  c #946A15",
")  c #9C7412",
"_  c #997419",
"`  c #A16E05",
"'  c #A56E09",
"]  c #A47105",
"[  c #AA7606",
"{  c #AD7A05",
"}  c #A4740B",
"|  c #AB740A",
" . c #A5780C",
".. c #AC7A0C",
"X. c #B37D06",
"o. c #B37B0A",
"O. c #B67C0A",
"+. c #A57B12",
"@. c #A17B18",
"#. c #A67A11",
"$. c #9C7526",
"%. c #836723",
"&. c #802F47",
"*. c #833546",
"=. c #853349",
"-. c #8A364C",
";. c #8C394B",
":. c #883847",
">. c #933D4D",
",. c #963D50",
"<. c #9A424F",
"1. c #94404C",
"2. c #9C4251",
"3. c #A34555",
"4. c #A64954",
"5. c #AA4B56",
"6. c #AC4B58",
"7. c #B14E59",
"8. c #AF5057",
"9. c #B15256",
"0. c #B45259",
"q. c #BA565A",
"w. c #BE595B",
"e. c #C35D5C",
"r. c #C6615C",
"t. c #CA635E",
"y. c #D36960",
"u. c #AD820E",
"i. c #B48106",
"p. c #B4840B",
"a. c #BC840A",
"s. c #B58A0E",
"d. c #BA8B0C",
"f. c #B98207",
"g. c #BD900E",
"h. c #AC8313",
"j. c #AD841A",
"k. c #AA8718",
"l. c #B28312",
"z. c #B48A12",
"x. c #BA8D13",
"c. c #B48B1C",
"v. c #BB8E19",
"b. c #B1861A",
"n. c #BC9314",
"m. c #B5911C",
"M. c #BB941B",
"N. c #BF991B",
"B. c #B68D21",
"V. c #BB9623",
"C. c #BB972B",
"Z. c #B99732",
"A. c #A88228",
"S. c #BDA334",
"D. c #C0860B",
"F. c #C48B0C",
"G. c #C98C0C",
"H. c #C38E13",
"J. c #C29414",
"K. c #CA9312",
"L. c #C29B16",
"P. c #C5961B",
"I. c #C49C19",
"U. c #CD9F18",
"Y. c #D59C1B",
"T. c #D09A17",
"R. c #C7A11C",
"E. c #CAA41C",
"W. c #CEAB1E",
"Q. c #C6A017",
"!. c #D0AE1F",
"~. c #C39C21",
"^. c #C39A28",
"/. c #CAA523",
"(. c #CEAB23",
"). c #C4A12D",
"_. c #CAA42B",
"`. c #CDAA2B",
"'. c #C5A123",
"]. c #D1A424",
"[. c #D0AF23",
"{. c #D1AE2B",
"}. c #D8AD2D",
"|. c #D2B125",
" X c #D5B42C",
".X c #D7B82F",
"XX c #DBB02F",
"oX c #CDAC34",
"OX c #C8A83B",
"+X c #D2AE32",
"@X c #CFB039",
"#X c #D5B533",
"$X c #D7B832",
"%X c #D9BA34",
"&X c #D5B53A",
"*X c #DBBD3A",
"=X c #D9B532",
"-X c #DEC13E",
";X c #DCBD41",
":X c #DFC242",
">X c #DFC348",
",X c #E1C545",
"<X c #E2C749",
"1X c #E4C94C",
"2X c #E7CC51",
"3X c #E8CE54",
"4X c #EBD35C",
"5X c #EFD863",
/* pixels */
"                                G +.h. .W Q k                                                                                   ",
"                                I M.E.|.$XE.n. .(                                                                               ",
"                                G h.d.E.-X-X XW.OXv                                       $.} u.p.u.u.h.W                       ",
"                                k /.$XR.n.(.-X[.:XC.z.z.)                         ^ h.U / @X(.|.$X-X X!.R.z.                    ",
"                                  +.&X*X#X/.(. X%X$X X.Xn.D                     b (.<X(.;X*X X2X%X(.R.L.u.H                     ",
"                                  D n.(.#X%X%X.X,X[. X#X/.G                 3 > )  X:X|.*X|.=X(.L.R.(.(. .                      ",
"                                    j.#X`.I.(.|.1X X[.*X+XI I             - T H ).<X.XW.$X$X.X;X>X#X`.x.U                       ",
"                                    F x.*X#X*X%X%X,X[.<X;X+.I.!         < W p.h.:X<X|.-X%XW.[.(./.R.~.}                         ",
"                                      L C.(.!.!.!.<X%X,X>XP. Xm.        5 G.d._.,X,X%X<X[.%X*X=X+X).j.                          ",
"                                    1 I z.#X X|.|.#X1X%X*X~.*X).      O G ].W.;X*X-X*X|.[.|.{.'.b.H                             ",
"                  U h.!     d d 1   g n.!..X.X X$XW.-X%X-X|.>XM.      g v.*X[.,X%X-X[.$X*X&X#X^.L                               ",
"                Q N.%X/.u.R T i.} s + n N.E. X X$X X$X<X:X(.*Xc.>   f T _.1X$X4X1X X|.%X#X+X~.{ F                               ",
"        D +.).C.`.(.,XR./.&Xj.} { i.H + N L.I.L.(.*X-X:X$X*X%X/ g d ' x.+X,X-X,X*X*X-X{.k.@./ G                                 ",
"      ! n.(.|..X-X%XW.W.$X,X,XOXh.f.{ - @ k..X#X/.E. X|.$X1X*X .o.F p.;X*X*X2X X.X$X|.E.j.k                                     ",
"  R ..`.*X1X;X*X X<X,X%X%X*X*X.X;X/.F.' - ( U.E.$X X:X$X-X2X|.K.a.U c.,X=X<X X=X$X$X%X+Xb.1       3 b d                         ",
"  z.!. X X(.R.%X$X.X.X*X:X-X-X,X,X3X*XY...Y o.F.K.E.|.W. X<X|.T.Y [ ).<X<X3X X|. X!.J.F.D.z X 1 G o.z.W k R ! R                 ",
"Q R.E.E.L.(.,X-X|.(.|.(.|.:X|.|.%X*X-X-XXXO.` ' O.F.}.-X,X5X-XJ.R O.(.$X4X,X*X#X`.H.a.R d , l o.i.d.L.v.M.R..XE.U               ",
"D ~ z.W.%X-X|.E./.#X|.[.2X*X[.,X,X(. XXX!.W.Y.O.o.` i.L.{.3X1Xn.T H.#X,X-XE.L.i.o.P f - > c { a.J.@X>X;X%XI.>X`.z.A.$.          ",
"      h.k.B.OXZ.).W.|.*X.X.X%X{.(.%XXX!. X*XF.[ O.[ ' d.W.-X<Xx.U F. X;X`.J.f.X.U k D D U f.n.{.,X%X1X,X%XW.W.*X,X*X+Xh.        ",
"                s v l.J.a.p./ Q M.J.J.E.}.x.T D Y O.{ O._.=X-X .F D.+XP.} ] o.{ o.c D [ p./.1X1X,X-X<X,X,X,X,X,X|..X$X(.n.W     ",
"                  + H ` K = + c { T `  .+.Z.Z.L ' | U T T n.(.U U { | Q | { | | a.H | X.x..X$X<X.X|.*X X%X*X#X%X X{.1X:X.XR.!   ",
"                    @ + O     5 U [ P.*X<X4X%X~.O.P Y ' k P h.j H T T X.D.o.a.P.s.} F.` } {.W.,X-X[.*X#X!.,X#X(.-X{.Q.(.%X$XI.k ",
"                          O X 5 [ /.<X1X X,X(.p.i.[ ' R d k D ; k U F K z Y ).4X,X#X>X`.V.~.'.R.$X*X.X1X.X.X;XL.E.:X%XQ.L.E.E.H ",
"                    > - l h f o.D.E.#X,X|.[.R.K U o.` f.h ; h * h j * f ] ` _..X-X4X-X-X1X;X(.n.n.(.`. X1X&X{.#X&XR.$X$XW.s.N.! ",
"                  g U ] T J Q T l.[.<X%X*X*X.X^ 5 [ H [ H ; * & > + * D h D d.W. X1X1X.X$X*XE.(.@. .g.I. X$./  .c.B.! h.n.! F k ",
"              ! n./.J.a.G.` P n.[.*X<X.X[.|.%Xv.f f k U z O % % + + ; 4 ; 5 d.!.*X X$X1X-X-X-X#Xz.G U ..L.E       D             ",
"            ) #X-X-X*XL.O.H m.%X*X#X*X.X*X[.n.F.T + 4 H D % + > + & * & O O )  X:X!.|.%X,X$X%X*X*X`.k.J j -                     ",
"             .*X XW.|.%Xx...%X.X|.:X3X|.(._. .f.o.& & h D o % + + & & + + O z #X%X!.:X[.1X2X%X.XE./.#X'.H                       ",
"          _ oX-X%X%X1XOXW {._.M.*X-X-X*XW.z.| | f.f     6 9 O + + O u     + c P.[..X*X[.,X:X$X%X*XR.R.n.R                       ",
"          ~. X X$X,X X..b.'.E &X|.-X|.|.*Xp.T z k 5     a V q $ 0 9 e       f F.p.{.(.$X%X|.-X.X*X*X(.Q                         ",
"         .(.*X%X[.|.I.Q h.I ^.*X X,X.XE. XB.] z + >     e w 8 t p 7 7 r     , } X.a.L.%X.XW.*X:X%X*X&XR.h.                      ",
"      G I.%X%XI.*X|.s.D 1 m $X$X X-X-X|.N.x.T G +       B # t V w e C i       = l l  .`..X*X|.:X%X|.#X*X Xp.                    ",
"      Q [.-XN.R.,XQ.T @ s N.S. X X-XW.-X/.} ` b .       i V B ,.i e C             > T K.}.*XW.|.>X XW.%X%Xs.U                   ",
"      ) [.m.N -X+XQ d + k.z.) W.%X.XE.{. Xo.f K         i ,.6.e.>.1.4.            > G { ^.(. X X$X<X$X Xd.U H                   ",
"      u.W.m _ S.M > @ , M.! N.%X2X|.W.L.x.O.b O         i 9.6.0.7.e.>.            > U [ | p.].(.|.*X X%XV.                      ",
"      c / < m         > E I /.<X%X X$XR.} } ,           i -.5.9.3.,.>.8           > G f n O.a.I.*X[.%X|.#X%.                    ",
"                        > b  X$X-XV.&X X} T %           B q.5.Z e.t.<.              +   + R | ..+XI.*X.XE.b                     ",
"                          g z.R.-X'.c.$Xl.U 3           e =.5.t.;.;.;.                    l ' [ F.} ~.%Xn.3                     ",
"                          2 U ~ {.|. .n.K.z             B q.5.5.7.t.6.q                   , j T a.H T d.x X                     ",
"                            g b } G.W c | 3             e =.5.t.3.>.*.w                     % d U 4 c ] ,                       ",
"                              . x { I @ g               B q.5.V w.t.q.i                       + & = l c                         ",
"                                  x K                   y ;.5.w.2.>.=.                            @ >                           ",
"                                                        B 5.6.9.3.q.w.p                                                         ",
"                                                        e <.5.t.5.4.Z 7                                                         ",
"                                                        *.8.4.;.7.9.8.i                                                         ",
"                                                        y 5.5.2.9.9.*.8                                                         ",
"                                                        i p 5.r.;.C 4.i                                                         ",
"                                                        ;.w.5.C e.t.>.8                                                         ",
"                                                      w >.-.5.e.>.>.<.e                                                         ",
"                                                        >.9.5.6.5.w.3.i                                                         ",
"                                                        ;.>.6.t.3.4.1.q                                                         ",
"                                                      9 ,.5.5.=.0.0.6.p                                                         ",
"                                                        p 5.4.5.8.5.2.i                                                         ",
"                                                      A ,.<.3.w.,.4.r.:.                                                        ",
"                                                      8 ;.w.3.w.9.q.<.e                                                         ",
"                                                      ;.;.3.5.4.4.2.t.;.                                                        ",
"                                                      r >.t.6.=.e.e.2.i                                                         ",
"                                                      =.-.=.3.t.;.;.t.;.                                                        ",
"                                                      i 2.e.3.7.0.e.,.B                                                         ",
"                                                      Z =.,.6.e.3.,.t.=.                                                        ",
"                                                      i 3.y.5.C e.t.6.p                                                         ",
"                                                      # C ;.,.q.>.>.>.#                                                         ",
"                                                        V t &.-.C C 7                                                           ",
"                                                          7 w t 8 #                                                             "
};
