/* XPM */
static char *arbol_1_resized[] = {
/* columns rows colors chars-per-pixel */
"64 64 192 2 ",
"   c None",
".  c #333937",
"X  c #4A1E2B",
"o  c #4F202D",
"O  c #55232F",
"+  c #5A272F",
"@  c #5B2531",
"#  c #5B2631",
"$  c #593238",
"%  c #632B33",
"&  c #6F2F39",
"*  c #6D2F37",
"=  c #712F39",
"-  c #69363C",
";  c #75333A",
":  c #7B363C",
">  c #7D3A3D",
",  c #723337",
"<  c #15453F",
"1  c #174B3E",
"2  c #184E3E",
"3  c #1A543D",
"4  c #1C5B3D",
"5  c #16513E",
"6  c #225B3D",
"7  c #24563E",
"8  c #1E623C",
"9  c #23633C",
"0  c #2A643B",
"q  c #246B3B",
"w  c #2B6D39",
"e  c #306C3B",
"r  c #2D7A37",
"t  c #2C7339",
"y  c #2E7938",
"u  c #25703A",
"i  c #347737",
"p  c #347C36",
"a  c #397D35",
"s  c #32763B",
"d  c #337B3A",
"f  c #3D7E3B",
"g  c #43793F",
"h  c #5B643D",
"j  c #504340",
"k  c #4B7A41",
"l  c #823A3E",
"z  c #8A423F",
"x  c #87413F",
"c  c #8A3E41",
"v  c #8C4241",
"b  c #944544",
"n  c #9B4747",
"m  c #964944",
"M  c #9B4B46",
"N  c #9C5345",
"B  c #A44D4A",
"V  c #A04F47",
"C  c #A15446",
"Z  c #A65449",
"A  c #AA544C",
"S  c #AC5B4A",
"D  c #A65C47",
"F  c #B15D4D",
"G  c #AE6149",
"H  c #B4634D",
"J  c #BA664F",
"K  c #BB6A4E",
"L  c #B66D4B",
"P  c #BF704E",
"I  c #BE6A50",
"U  c #BC6750",
"Y  c #C2724F",
"T  c #C36E51",
"R  c #C57351",
"E  c #CE7A53",
"W  c #CB7653",
"Q  c #D27E55",
"!  c #368235",
"~  c #3B8435",
"^  c #3E8C33",
"/  c #3A8139",
"(  c #45942F",
")  c #47982D",
"_  c #4A9B2D",
"`  c #509D2F",
"'  c #408634",
"]  c #418D34",
"[  c #43823B",
"{  c #438B38",
"}  c #498C39",
"|  c #538A3E",
" . c #449232",
".. c #4B9335",
"X. c #4D9A33",
"o. c #47913C",
"O. c #4F943C",
"+. c #4C9A3A",
"@. c #519737",
"#. c #549B36",
"$. c #5A9E35",
"%. c #54943B",
"&. c #59953E",
"*. c #5C9C3B",
"=. c #549C3C",
"-. c #4EA12A",
";. c #51A527",
":. c #53A62A",
">. c #56AA2D",
",. c #5AA92D",
"<. c #54A434",
"1. c #5DA434",
"2. c #5BAD34",
"3. c #54A23A",
"4. c #5EA23D",
"5. c #5CAD3A",
"6. c #57A934",
"7. c #5EB039",
"8. c #64AC33",
"9. c #6BAE37",
"0. c #64A43B",
"q. c #69A43D",
"w. c #67AA3A",
"e. c #6BAC3B",
"r. c #74AF3D",
"t. c #6BB037",
"y. c #63B53C",
"u. c #6DB239",
"i. c #65B93D",
"p. c #6CBB3E",
"a. c #60B235",
"s. c #71B237",
"d. c #75B53D",
"f. c #78B73F",
"g. c #7BB83F",
"h. c #72B93C",
"j. c #4A8742",
"k. c #599A42",
"l. c #5A8D42",
"z. c #669941",
"x. c #649542",
"c. c #719E45",
"v. c #5CAB42",
"b. c #5BA245",
"n. c #67A041",
"m. c #6CA343",
"M. c #60AC44",
"N. c #6CAA42",
"B. c #74AD43",
"V. c #73A443",
"C. c #63B443",
"Z. c #66B941",
"A. c #6ABD41",
"S. c #76B442",
"D. c #7BB542",
"F. c #73BB42",
"G. c #7DBA42",
"H. c #6EC043",
"J. c #7BC549",
"K. c #83BC3E",
"L. c #84BD44",
"P. c #88BE43",
"I. c #87BF48",
"U. c #8CBD4A",
"Y. c #86B548",
"T. c #D68155",
"R. c #DA8456",
"E. c #DE8758",
"W. c #DD8B57",
"Q. c #E28C59",
"!. c #E6915A",
"~. c #E9935B",
"^. c #EE985C",
"/. c #F29C5D",
"(. c #84C246",
"). c #8BC146",
"_. c #87C048",
"`. c #8BC249",
"'. c #92C546",
"]. c #93C64A",
"[. c #98C54C",
"{. c #96C94C",
"}. c #9CCB4D",
"|. c #97C847",
" X c #9CCF50",
".X c #A1CE4F",
"XX c #A4D04F",
"oX c #A3CF50",
"OX c #A5D150",
"+X c #ABD452",
"@X c #B3DA54",
"#X c #B8DD56",
/* pixels */
"                                / *.m.*...}                                                                                     ",
"                                l.D.(.`.{._.f.#.z.                                                                              ",
"                                ~ B.8.L. X}.].L.'.r                                       c.@.w.w.w.w.w...                      ",
"                                s (.{.G.f.L.}.`.oXY.d.e.k.                        %.w.' ..|._.).'.oX].`.L.D.p                   ",
"                                  *.}.}.{.L.L.].{.].`.].G.p                     g I.+XL.OX{.].+X}.G.G.s.1.!                     ",
"                                  ~ t.P.{.{.}.].oX`.{.L.`.[                 e 5 m.`..X_.}.`.{.g.d.L.P.].6.~                     ",
"                                    r.|.L.g.L.`.+X`.`.oX].[ }             s _  .U.OX].`.{.{.].+XOX{.).8.(                       ",
"                                    ~ 8.}.|.{.}.].oX_.OXoXn.L.O.        0 3.2.0.OXOX`.}.].`.`.L.S.g.K.#.                        ",
"                                      } U.Y._._.`.OX].oX+Xd.].s.        u p.u.L.{.+X{.OX).}.}.}.|.).e.                          ",
"                                    6 { d.{.].`.`.].OX{..Xf.{._.      2  .`.L.XX{.}.{.`._.).L.g.9.^                             ",
"                  ] m.@.    w s 9   ' g.P.{.].{.{.I..X{..X).OXf.      a u.{.L.OX].oX`.}..X|.{.P.i                               ",
"                ..D.{._.w.] -.,.6.w 3 g D.L.`.`.{.'.`.XX.XL.}.D.7   p ) P.OX].@XOXI.`.{.{.'.f.:.^                               ",
"        p *.{.Y._.P.OXf.G.oXq._ ;.y.( 3 x.G.f.f.`.}.OX.X{.}.].*.~ t v.a.|.XX{.OX}.oX.X).$.$.@.p t                               ",
"      #.D.`._.`..X{.I.`.}.}.XX[.0.:.6.q 7 B.{.'.D.g.`.`.{.+X}.#.7.! 0..X}.{.+X'.].]._.L.r.~                                     ",
"  %.0.`.{.+X.XoX'.OXOX{.{.].}.].OXL.a.<.w b.F.L.{.].OX{.}.+X`.F.i. .e.oX`.+X`.{.{.{.{.|.D.6     5 0 p i                         ",
"  B.`.`.'._.f.].{.`.].{.}..X X+XoX+X{.J.6. .7.A.F.G.`.`.`.OX`.J.] 2.].oX.X+X_.).`.L.u.5.y.+.1 6 ] y.9.*.  ' k.}                 ",
" .L.L.G.f.L.OX.XP.L.{.I.`..X`.I.].].oX X}.7. .X.>.Z.{. XXX#X}.F. .v.L.`.#X.XXX}.).p.y.3.s 8 / y.2.8.f.8.g.P.].(.}               ",
"! #.w.`.{. XL.G.L.{.I.I.@X{.I.oXoX`.].]._.(.J.C.5.) >.u._.OXOXS. .u.XXXX{.(.f.:.y.] s t 4 ~ >.,.u.|.XX}.{.u.OXL.8.V.V.          ",
"      m.N.g.}.'.P.I.`..X{.{.}.].`.}.`.P.`.XXa.:.Z.6._ t.(.{.XXu. .Z.).XX).G.2.7.] ~  .p ..7.t.{.OX].+X.X{.`.`.}.OXoX].q.        ",
"                w ' 8.t.2.5._ =.D.p.d.J.].7.-.!  .5.7.i.).|.XX1.! i.'.u.v._ -.-.2.^ ! 2.;.).+XXXXXXXXXXXOXOX.XoX`.'.`.U.S...    ",
"                  5 X.3. .6 3 ~ ;.) +.n.m.Y.Y.| 3.v.^ ^ _ u.`.{ ) :.<. .3.3.5.v.i.^ 3.>.t.].].XX_._.{.].{.{.`.[.`.).+X}.].L.#.  ",
"                    3 3 2     w  .6.G.{.+X@X]._.Z.o.+.5.! ] d.y  ._ ) :.A.C.2.u.9.X.y.) ` {.L.}..X_.}.].`.OX'.`.XX`.g.`.{.{.I.s ",
"                          2 < q :.(.+X+X`.oX(.9.;.v.<.o.t ! ! 9 ! ^ ^ k.s X.).#XOX].XX`.S.e.P.L.{.}.`.+X].`..Xs.(.OX].G.f.(.I./ ",
"                    5 t ! ! d i.Z.G.`.OX`._.I.[ ) 6.X.y.d 8 r 8 ~ r 8 r ;.) K.`.}.#X}..XOXOX).u.d.L.'.`.OX.X{.{.|.g.{.{.I.1.G.#.",
"                  p ) _  .! <. .N.`.OX{.}.XX`.x.t :.^ -.^ q 8 8 8 4 8 ~ r ~ ,.`.`.+X+X].{.oXg.P.q.q.9.d._.z.z.#.9.g.*.0.f.*.! r ",
"              @.f.L.9.y.A.3.^ f._.}.OX`._.`.}.u.a p y ) ! 5 4 4 4 5 u 8 r t u.).}.`.{.+XoX{.{.].e.! ..0.L.k.      i     r       ",
"            $.}.}..X.Xd.y.~ D.}.}.`. X{.}._.u.i._ 2 8 ^ ^ 4 3 4 4 8 8 8 2 1 1.`.OX_.`.]. X]..X}..X).w.~ p w                     ",
"            $.{.)._._.{.F.4.}.`._..X+X].G.].$.2.5.8 8 y ^ . 4 4 3 4 8 3 3 3 [ ].]._.OX`.OX+X}.].L.K.{.L...                      ",
"          *.{..X}.].+X]...].L.B..X}.{..XP.e.M.-.i.d     h $ 3 6 4 3 j       ] h.).].}.`.oX.X].{.}.g.G.S.'                       ",
"          Y.L.].{.OX`.N.9.P.} oX_.XX_._..X,.+.{ ! t     v v = . - - >       t p.,.).(.{.{.`.oX{.{.}.P. .                        ",
"        0.`.{.{._.`.L.] e.] Y.}.{.XX].L.].D._ a 1 4     , ; @ c z % O :     0 <.;.Z.L.{.].I.}.}.{.}.{.L.w.                      ",
"      / G.{.{.f.}.].,.~ e l.{.{._..X{.].f.u.+.( 3       c X v n , : b l       q a p 1.P.].}.`.XX{.`.{.'.].e.                    ",
"      ..`.oXG.G.oXg._ 6 k I.U.`.`.}._.oXL.#._ p         l n ; S : & n             3 _ H.'.{.`.`.XX`.`.{.{.8.)                   ",
"      #.`.G.k }.[.X.u 2 B.e.m.I.}.].G._.{.C.t ]         > Z T Q.M G T.            3 ^ 7.L._.`.].].OX{.`.9.] ^                   ",
"      0.I.j.c.`.k 4 4 4 D.O.I.].+X`._.D.S.2.j.7           R.A Q T E.H             4  .-.M.,.`.L.`.}.`.}.D.                      ",
"      [ c.0 l.        3 *.} P.OX{.`.{.I.#.<.4           l m U R.A N K @           3  .a j.>.C.(..X`.{.`.}.z.                    ",
"                        4 a {.'.OXB.oX`.*.<.3           l Q.T c Q.!.R               3   5  .v.,.).f.}.].L.i                     ",
"                          a w.L.{.U.B.}.8...f           l c J ^.M b G                     s v.-.i.X.G..XL.w                     ",
"                          e ) _ ).{.n.p.A.!             c Q.S F T !.T.%                   3 p X.i.^ _ 2.~ <                     ",
"                            ' p ;.i._ ~ 6.w             = c T /.B M M                       4 t _ q ' -.3                       ",
"                              < a >.) 7 ~               c W.K l Q.Q.E.l                       4 4 9 ' !                         ",
"                                  a _                     N S R.Z C m                             3 4                           ",
"                                                        c E K W H Q Q.c                                                         ",
"                                                        ; J J ^.J K c X                                                         ",
"                                                        L R F C T R W.c                                                         ",
"                                                        ; E T F Q Q b #                                                         ",
"                                                        N : U ^.n v T.:                                                         ",
"                                                        Z W.T > Q.Q.S +                                                         ",
"                                                      @ L b F Q.V C P &                                                         ",
"                                                        H T.U I U T.R :                                                         ",
"                                                      # G S K /.F H H #                                                         ",
"                                                      # K R F m W W T.l                                                         ",
"                                                        l W J I R R K *                                                         ",
"                                                      D C J I W.C J !.H                                                         ",
"                                                      @ S R.S R.T T.Z %                                                         ",
"                                                      H M K U R F S /.H                                                         ",
"                                                      , H ~.T n Q.E.B ;                                                         ",
"                                                      S M b K /.b N /.F                                                         ",
"                                                      > H ~.A F R Q.B >                                                         ",
"                                                      C b B T ~.B M /.S                                                         ",
"                                                      v J /.R l !.!.S v                                                         ",
"                                                      O l n A Q M M U O                                                         ",
"                                                        b l M n M M #                                                           ",
"                                                          O * : % X                                                             "
};
