/* XPM */
static char *fruta_1_resized[] = {
/* columns rows colors chars-per-pixel */
"32 32 137 2 ",
"   c None",
".  c #232909",
"X  c #2E370C",
"o  c #373601",
"O  c #323B0F",
"+  c #353E10",
"@  c #550000",
"#  c #5C0100",
"$  c #5A0B00",
"%  c #521200",
"&  c #5A1000",
"*  c #561800",
"=  c #5A1900",
"-  c #640000",
";  c #6C0000",
":  c #6A0C00",
">  c #740000",
",  c #7C0000",
"<  c #6A1000",
"1  c #661F00",
"2  c #472E01",
"3  c #4B3501",
"4  c #473E02",
"5  c #5A3101",
"6  c #553D01",
"7  c #6E2301",
"8  c #662D01",
"9  c #783301",
"0  c #354402",
"q  c #3C4D03",
"w  c #36410E",
"e  c #3A450E",
"r  c #3F4B0F",
"t  c #374011",
"y  c #394411",
"u  c #3E4913",
"i  c #454202",
"p  c #474E02",
"a  c #404E0C",
"s  c #4B5402",
"d  c #465B02",
"f  c #495E03",
"g  c #47550F",
"h  c #465808",
"j  c #424E15",
"k  c #455212",
"l  c #485514",
"z  c #4B5913",
"x  c #4F5D18",
"c  c #515F17",
"v  c #505E19",
"b  c #4B6203",
"n  c #556603",
"m  c #596003",
"M  c #546D03",
"N  c #5A6F03",
"B  c #516708",
"V  c #577003",
"C  c #587303",
"Z  c #5D7A04",
"A  c #536412",
"S  c #576811",
"D  c #5A6B13",
"F  c #53611A",
"G  c #5D6D1D",
"H  c #5E7017",
"J  c #5F701E",
"K  c #617E04",
"L  c #607313",
"P  c #667B11",
"I  c #6A7F14",
"U  c #63741F",
"Y  c #687C19",
"T  c #657620",
"R  c #677820",
"E  c #6B7D21",
"W  c #840000",
"Q  c #8C0100",
"!  c #860A00",
"~  c #930000",
"^  c #9C0101",
"/  c #961500",
"(  c #A40100",
")  c #AB0000",
"_  c #AE0D0D",
"`  c #B40000",
"'  c #BB0000",
"]  c #B41010",
"[  c #C30000",
"{  c #C90000",
"}  c #C80800",
"|  c #C60808",
" . c #C90C0C",
".. c #D70000",
"X. c #DC0000",
"o. c #D10A0A",
"O. c #CE1313",
"+. c #CC1C1C",
"@. c #D61313",
"#. c #DB1414",
"$. c #DF1C1C",
"%. c #E30404",
"&. c #EB0000",
"*. c #E50A0A",
"=. c #E21111",
"-. c #E91717",
";. c #E81D1D",
":. c #F21F1F",
">. c #D62424",
",. c #E42121",
"<. c #F12626",
"1. c #F92020",
"2. c #F42F2F",
"3. c #E53535",
"4. c #E53939",
"5. c #EA3D3D",
"6. c #FB3535",
"7. c #EF4242",
"8. c #F34141",
"9. c #FF4747",
"0. c #F94E4E",
"q. c #FD5454",
"w. c #FF5858",
"e. c #638204",
"r. c #6B8B04",
"t. c #6C8314",
"y. c #6D821B",
"u. c #728914",
"i. c #70851C",
"p. c #73891D",
"a. c #7A9317",
"s. c #7C941C",
"d. c #6E8122",
"f. c #708323",
"g. c #788F20",
"h. c #829B1B",
"j. c #85A019",
/* pixels */
"                              g A S g                           ",
"                          u D y.s.h.a.t.l                       ",
"                        j U d.E R R y.y.A D t.I L A +           ",
"                    + v R U U U G G G T v u.a.g.s.h.I e         ",
"                  t x U R U U R T E R d.c u.Y G R Y p.D         ",
"                  t F R E f.f.R E d.p.t.a t.p.G R d.d.i.z       ",
"                      j l l v v G D D h B P s.R G E d.f.G       ",
"                            q h X O . d f S j.y.G G U U G y     ",
"                          0 Z q       V 0 z h.g.T G T R E v     ",
"                          V f       0 M     t.s.R E G R f.G +   ",
"            - -         f V         d M     a t.d.d.T G E E j   ",
"      # W ) { { ` Q - o Z q         d b       u H d.R T R f.F   ",
"    - _ <.1.%...} / 1 n M           b d         + x G E R R G   ",
"  # ) 6.w.q.+.W * b e.r.3           M d             + v R G G y ",
"  W *.8.w.w.>.> $ p K e.7 W         M d                 y j F y ",
"# ` 2.4.7.7.O.^ - & 4 f 5 ( -       M f                     + + ",
"- @.0.>.| | { ' ^ > - % : ) > ; W < V s                         ",
"> ;.5.| [ [ [ [ [ ' ~ Q , W ` ..} 9 r.m ! W                     ",
">  . .[ [ [ [ [ [ [ { ^ ~ X.&.' 8 C r.K 6 ( Q #                 ",
"; ' [ [ { ' { ' [ [ ) W #.1.| , = i s p 2 ! ' ,                 ",
"# ^ { [ [ [ [ [ [ ) > ] 9.q.4.^ - # $ $ - ^ [ ^ -               ",
"  > ` [ { [ [ [ [ ) ; ;.q.w.q. .) ^ Q ~ ) [ { ` ;               ",
"  @ , ( ' [ [ { { ` , *.7.0.3.| { [ [ [ { [ [ ) > #             ",
"    # , ~ ^ ( ( ( W W -.5.O.{ [ [ [ [ [ ' ' ) ( > @             ",
"      # ; , W W W > > ;.0. .[ [ [ [ { ' ( ^ ) ~ > @             ",
"        @ # ; ; ; - - @.8. .' [ [ [ [ [ ` ` ) W ;               ",
"              @     # ( #.{ [ [ [ [ [ [ { ' ~ , #               ",
"                      ; ' { [ [ [ [ [ { ` ~ W ; @               ",
"                      @ > ` [ [ [ ' ' ( Q W > #                 ",
"                        @ ; Q ( ^ ^ ~ W , > #                   ",
"                          @ @ - ; > > ; # @                     ",
"                              @ @ @ @ @ @                       "
};
