/* XPM */
static char *fruta_4_resized[] = {
/* columns rows colors chars-per-pixel */
"32 32 107 2 ",
"   c None",
".  c #2F2600",
"X  c #3A2F00",
"o  c #4D3E01",
"O  c #534303",
"+  c #5E4B02",
"@  c #5D4F18",
"#  c #624F03",
"$  c #665202",
"%  c #695402",
"&  c #6E5803",
"*  c #61500D",
"=  c #745D04",
"-  c #6C5A16",
";  c #776107",
":  c #7C6303",
">  c #7D6608",
",  c #766212",
"<  c #7B6614",
"1  c #76631A",
"2  c #7E6919",
"3  c #816702",
"4  c #816804",
"5  c #886C00",
"6  c #826B09",
"7  c #8D7207",
"8  c #8D730B",
"9  c #987900",
"0  c #90750A",
"q  c #957808",
"w  c #9B7D09",
"e  c #856F1C",
"r  c #947A15",
"t  c #847024",
"y  c #8A7520",
"u  c #957E26",
"i  c #837336",
"p  c #907D33",
"a  c #9E800B",
"s  c #9C8119",
"d  c #A5860D",
"f  c #B08F0D",
"g  c #B4930E",
"h  c #B9970F",
"j  c #A28511",
"k  c #AC8D10",
"l  c #A78B1E",
"z  c #B49311",
"x  c #BE9A10",
"c  c #998330",
"v  c #98853D",
"b  c #B39522",
"n  c #B89925",
"m  c #B1952A",
"M  c #A18A32",
"N  c #A79038",
"B  c #B69D3C",
"V  c #B9A03F",
"C  c #C19E13",
"Z  c #C5A214",
"A  c #CBA614",
"S  c #CDA815",
"D  c #D2AC15",
"F  c #D3AF1C",
"G  c #DAB317",
"H  c #DFB817",
"J  c #DDB518",
"K  c #DFB81D",
"L  c #E3BA19",
"P  c #E9BF1A",
"I  c #C1A125",
"U  c #D7B325",
"Y  c #DBB520",
"T  c #C4A83C",
"R  c #DBB93B",
"E  c #E4BD22",
"W  c #EDC31B",
"Q  c #F1C61B",
"!  c #F6CA1C",
"~  c #FACE1D",
"^  c #FFD21E",
"/  c #F9CE24",
"(  c #FED422",
")  c #FCD22B",
"_  c #EBC636",
"`  c #F4CD33",
"'  c #FBD236",
"]  c #FAD33D",
"[  c #CCB045",
"{  c #CEB44E",
"}  c #D5B84A",
"|  c #DABD4D",
" . c #D8BC52",
".. c #F0CE4C",
"X. c #FFD943",
"o. c #FFDC49",
"O. c #E6C650",
"+. c #E2C65B",
"@. c #F1D054",
"#. c #F8D655",
"$. c #FEDA50",
"%. c #FFDF5E",
"&. c #EED161",
"*. c #F0D467",
"=. c #FFE067",
"-. c #FFE16B",
";. c #FEE272",
/* pixels */
"                                              : 3 =             ",
"                                            $ 9 5 3 $           ",
"                                              3 = = 4           ",
"                                              # : D Z           ",
"                                              o z ~ Z $         ",
"                                                Z ( S &         ",
"                                                j W W 6 o       ",
"                                                8 C L A > %     ",
"                                                  Z k S x b     ",
"                                                & H k J ! ` p   ",
"                                                r ! Z S ^ ) { @ ",
"                                                s ( D z ^ ^ ..i ",
"                                                l ( G z ^ ^ ] v ",
"                                                I ^ J S ^ ^ ) c ",
"                                              * U ^ A J ^ ^ ^ r ",
"                                              1 W J Z Q ^ ^ W > ",
"                                              m / L D ^ ^ W h + ",
"                                            t _ ^ W Q ^ ^ S : O ",
"                                          1 | ) ^ ~ ^ ^ ^ L =   ",
"                                        , B R ~ ^ ^ ^ ~ W x #   ",
"                                      e { T S ^ ^ ^ ^ ~ G 7     ",
"                                    c +.-.' ^ ^ ^ ^ ^ ^ Z %     ",
"                                2 B *.;.X.^ ^ ^ ^ ^ ^ W 7       ",
"                            y V +.;.-.] ^ ~ ^ ^ ^ ^ Q d #       ",
"                - y c N V  .&.*.%.X.) ~ Q ~ ^ ^ ^ Q g =         ",
"X O j n [ [ } | O.@.#.$.o.X.' ( W L W ~ ^ ^ ^ ^ ~ h :           ",
". O Z F F E E Y E E K G L W W W ! ~ ^ ^ ^ ^ ^ W g :             ",
"X $ z a d z Z A D G L W Q ^ ^ ^ ^ ( ^ ^ ^ Q S d =               ",
"  O 0 z G J ~ ^ ^ ^ ^ ~ ^ ^ ^ ^ ^ ^ ^ Q D d 4 $                 ",
"      ; z W ^ ^ ^ ^ ^ Q ~ ~ ^ ~ Q H h w : $                     ",
"          > k A G L W W L h h f q 4 & +                         ",
"                # & = = = = % + O                               "
};
