/* XPM */
static char *mono_derecha_resized[] = {
/* columns rows colors chars-per-pixel */
"48 48 183 2 ",
"   c None",
".  c #030101",
"X  c #0B0603",
"o  c #0F0804",
"O  c #130A05",
"+  c #180E07",
"@  c #170D08",
"#  c #1A0F08",
"$  c #1D110B",
"%  c #1F1511",
"&  c #2B1102",
"*  c #23150C",
"=  c #27180E",
"-  c #2B190F",
";  c #2A160A",
":  c #301402",
">  c #251610",
",  c #201813",
"<  c #2C1C11",
"1  c #311E13",
"2  c #3C2A03",
"3  c #342307",
"4  c #352215",
"5  c #3A2416",
"6  c #362118",
"7  c #3C2618",
"8  c #3F2819",
"9  c #4E2207",
"0  c #5C2A0C",
"q  c #513905",
"w  c #432717",
"e  c #4F2C17",
"r  c #432B1B",
"t  c #4A2E1D",
"y  c #522911",
"u  c #4C301F",
"i  c #57321B",
"p  c #6A320E",
"a  c #62351D",
"s  c #69391C",
"d  c #7D3F1B",
"f  c #4A2D20",
"g  c #4E3221",
"h  c #533522",
"j  c #573825",
"k  c #5B3A26",
"l  c #5D3C28",
"z  c #5C3425",
"x  c #623A24",
"c  c #623E29",
"v  c #6F5106",
"b  c #7D5B07",
"n  c #745107",
"m  c #684026",
"M  c #65412B",
"N  c #6B442E",
"B  c #794022",
"V  c #714428",
"C  c #7C4629",
"Z  c #74492F",
"A  c #7B4B2B",
"S  c #764327",
"D  c #6D4630",
"F  c #6F4831",
"G  c #6D4F3C",
"H  c #734B33",
"J  c #7A4E36",
"K  c #794C3A",
"L  c #744630",
"P  c #7C5037",
"I  c #7D5138",
"U  c #6D5544",
"Y  c #87531E",
"T  c #9E7104",
"R  c #AB7E0B",
"E  c #8F4E2A",
"W  c #834C2C",
"Q  c #944B22",
"!  c #975F24",
"~  c #834C30",
"^  c #82553B",
"/  c #895639",
"(  c #87583E",
")  c #8A593E",
"_  c #875233",
"`  c #935734",
"'  c #9C5A33",
"]  c #90563C",
"[  c #94593C",
"{  c #A05F39",
"}  c #A85E3A",
"|  c #A6633C",
" . c #B16538",
".. c #B4683C",
"X. c #855441",
"o. c #895640",
"O. c #8D5C41",
"+. c #915D43",
"@. c #935D49",
"#. c #86644F",
"$. c #8A634E",
"%. c #956145",
"&. c #996347",
"*. c #9C6649",
"=. c #9F684A",
"-. c #896651",
";. c #8E6953",
":. c #976650",
">. c #9C6A53",
",. c #9A6F58",
"<. c #9C745D",
"1. c #95715B",
"2. c #AE6946",
"3. c #A0654F",
"4. c #A36A4C",
"5. c #A96E4F",
"6. c #AB6644",
"7. c #B16B4A",
"8. c #B86F4B",
"9. c #B56943",
"0. c #B6704E",
"q. c #BC744F",
"w. c #AA6E51",
"e. c #A46F58",
"r. c #A06E52",
"t. c #AC7151",
"y. c #A07358",
"u. c #AD745A",
"i. c #B37554",
"p. c #BE7552",
"a. c #B77856",
"s. c #B97857",
"d. c #B67459",
"f. c #BD7B59",
"g. c #A27960",
"h. c #AA7C63",
"j. c #BF7E64",
"k. c #C37755",
"l. c #C37A5C",
"z. c #C57953",
"x. c #C27F64",
"c. c #B58205",
"v. c #C3910D",
"b. c #B28366",
"n. c #BF8365",
"m. c #C9805A",
"M. c #C6845F",
"N. c #C58867",
"B. c #C38063",
"V. c #D18664",
"C. c #D98D6C",
"Z. c #D4886A",
"A. c #DC916E",
"S. c #D78F71",
"D. c #DB8F71",
"F. c #CE9578",
"G. c #CE9878",
"H. c #D49173",
"J. c #DD9373",
"K. c #D19C7C",
"L. c #DA9E7E",
"P. c #E19677",
"I. c #E29778",
"U. c #E39B7B",
"Y. c #EA9F7E",
"T. c #E2A07F",
"R. c #E9A17F",
"E. c #DF9F80",
"W. c #D3A283",
"Q. c #DBA384",
"!. c #E4A786",
"~. c #EBA583",
"^. c #EFA987",
"/. c #EDAB89",
"(. c #E4AD8C",
"). c #F3AE8C",
"_. c #E6B08F",
"`. c #F3B18E",
"'. c #F5B491",
"]. c #F6B996",
"[. c #F7BC99",
"{. c #F9BE9A",
"}. c #F9C19D",
/* pixels */
"          c c c c c                                                                             ",
"        H ) ^ J ^ ^                                                                             ",
"    M N ^ 3.&.) *.4.^ N                                                                         ",
"4 k H O.&.O.H F ) 4.*.) N                                                                       ",
"4 l I *.&.D 6 t D +.w.&.N                                                                       ",
"4 l I I F       g I 5.*.F                                                                       ",
"4 j M g 4       g I 5.*.N                                                                       ",
"  r t 6 <     r N +.t.*.N                                                                       ",
"      <       g I =.*.O.N                                                                       ",
"            6 l *.r.^ M                                                                         ",
"            j P 4.5.J k                                     4 u k l l l l l l                   ",
"          4 l I *.*.J                                       r j M N Z P ^ P ^ P                 ",
"          6 c I ^ I                                     4 8 j F P ^ ) 5.t.5.5.&.H               ",
"        t l D F N                                       r h F ) &.*.4.5.5.5.5.4.+.I             ",
"      4 g D F N                                       8 h M I *.i.i.5.+.) ) ) *.5.+.H           ",
"    6 f g l c                                       r g k N ^ &.=.4.+.J H H H ^ *.*.&.J         ",
"    7 u h r 7                                     * 5 t h c J ^ ( ( H k h h j N ^ =.4.P l       ",
"    4 u h 7 =                                   O $ 1 4 5 t N J I H k 7 4 5 4 u N / ) Z k       ",
"    4 u h 7 -                                 O f K X.K t 5 k H J c 5 3 v Y q 3 j H J l g       ",
"    7 u h 8 4                               * $ K x.S.x.K w k H H h O 2 R v.b 8 N ^ I M h       ",
"    7 u j u r <                           r 5 < -.E.).!.w.C Z I P j * 2 T c.n c >.d.d.w.@.      ",
"    4 u j k u 7 - $ O = 4 5 8 8 r r r 8 r g u r -.W.'./.B.| / I P N u i Y ! ~ >.C.U.U.I.j.X.    ",
"      8 u k k u u 8 1 5 u u j N D D D D D M k g G <.F.U.m.| ) ^ P N V E 7.l.l.S./.'.'.).L.B.8...",
"        8 u h h h u r u k M F I ^ ^ I o.%.I N l h k *.f.2.` ^ I P P [ q.C.Y.~.).{.}.{.].~.C.z...",
"          8 8 7 8 r u k M F I ^ ^ ( ( %.5.&.I N j h c L x x c N Z ` 8.C.~.`.].].}.}.].^.C.z.9...",
"            1 < < 8 j N F P ( ^ ( ^ ^ %.4.4.&.I D l t 7 7 t z k m W 2.V.R.`.'.'.`.`.^.J.k.' { ..",
"                4 r k H ^ ( ^ ^ I ^ I ( %.=.5.%.H M k j j l c c l i C 2.V.P.I.I.I.I.C.k.` a     ",
"              4 r j F ) =.%.I H H F F J I %.&.%.^ H N M N H H H N h i V [ *.3.3.3.3.+.~ s       ",
"            4 r j F ) 5.i.&.P N l l l N P ^ / ( ^ P F M P ^ +.+.^ F i r 6 1 1 1 5 7 6 < ;       ",
"          O 4 h N ( 5.a.a.&.P M u u u c N P I ( P F M M P %.5.t.4.P j t 1 O . .                 ",
"          O 5 l J %.i.s.a.&.I M u r u j l N P I P M j k H ) 5.t.4.P k g 6 > o                   ",
"          O 7 l J %.t.M.a.=.I N c j r t j M N P H M u u k H ) %.) D h 8 = O                     ",
"          O 5 k N ^ *.i.s.t.&.P N k r 8 h l M N D l h u u k D H F M u 4 @ .                     ",
"          + 7 j c Z ( 4.s.s.5.^ N j r t j l l l M l l h r r l M N F l 8 * o                     ",
"          = r j k M I 4.i.5.%.H k u u h l l l l l k l j w r j N I %.) l 4 * o                   ",
"          8 h M N H ^ &.4.O.H k r 4 r i i g h i h g i u 5 7 h N ) 5.=.F r > o .                 ",
"        - u M J P P ^ ^ H l t < $ # * - < - - - - - - = # * 7 h I 5.=.D u 4 @ .                 ",
"      X - h N H J J H M t 1 * $ $ + # # + o . . . . X . . o * 7 M ) %.P H D 8 X                 ",
"      + 1 h c M x M l t * O O * < = = < - + X           . . O * r M Z I *.*.D 4 @               ",
"    # 5 u j x k u 7 5 1 O   X $ = < < < < - $ O       o $ + X X * 8 h H %.=.&.H 6 X             ",
"    $ t k x x j 5 O O         X $ = < < < < = + .   X + , * O X o = w z D ( 3.O.k * .           ",
"    $ t l l l h 4 X             O + = < < < = + . . + * < < * O X # 7 r g N O.@.H g < @         ",
"    y y r r t t y 9               o $ * = * * O . . + * * * * @ &   ] ) F J e.b.b.g.#.M 9       ",
"    d a t g h k C E                 X o o o X . . . X o o o o X   Q 7.l.7.5.K._._._.K.4.p :     ",
"    B [ y.h.h.u.B.N.7.                . . . . . . . . . . .         2.k.k.V.~.`.'.{.(.r.0 &     ",
"    z w.H.Q.L.H.L.G.4.                                                } k.Z.D.D.J.!.W.-.>       ",
"      X.:.<.,.:.<.;.N 0                                                 +.@.@.@.@.,.1.U         ",
"      % $ , % % % $ + O                                                 > % # $ % % ,           "
};
