/* XPM */
static char *Untitled_resized[] = {
/* columns rows colors chars-per-pixel */
"64 64 69 1 ",
"  c #6C711A",
". c #6D721B",
"X c #6E721A",
"o c #6E731A",
"O c #6F731A",
"+ c #6E731B",
"@ c #6F731B",
"# c #6F741A",
"$ c #6F741B",
"% c #6E731C",
"& c #6F731C",
"* c #6F741C",
"= c #70731A",
"- c #70741A",
"; c #71741A",
": c #70741B",
"> c #71741B",
", c #70751B",
"< c #71751B",
"1 c #72751B",
"2 c #73751B",
"3 c #73761B",
"4 c #70741C",
"5 c #70751C",
"6 c #71751C",
"7 c #70751D",
"8 c #71751D",
"9 c #72751C",
"0 c #71761C",
"q c #72761C",
"w c #73761C",
"e c #72761D",
"r c #73761D",
"t c #73771D",
"y c #72761E",
"u c #72771E",
"i c #73771E",
"p c #73771F",
"a c #74761C",
"s c #74771C",
"d c #74771D",
"f c #75771D",
"g c #74771E",
"h c #74781D",
"j c #75781D",
"k c #74781E",
"l c #75781E",
"z c #75791E",
"x c #74781F",
"c c #75781F",
"v c #76781E",
"b c #76791E",
"n c #76791F",
"m c #777A1E",
"M c #767A1F",
"N c #777A1F",
"B c #787A1F",
"V c #757920",
"C c #767A20",
"Z c #777A20",
"A c #777B20",
"S c #777B21",
"D c #787A20",
"F c #787B20",
"G c #787B21",
"H c #797C20",
"J c #787C21",
"K c #797C21",
"L c #7A7D21",
/* pixels */
"1111111111111111111111111111111111111111111111111111111111111111",
"1111111111111111111111111111111111111111111111111111111111111111",
"1111111111111111111111111111111111111111111111wlw111111111111111",
"111111111111111111111s2111111111111111111111112zy111111111111111",
"1111111111111111111fskd111111111111111111111111<O<11111111111111",
"111111111111111111wNG.5Kd111111111111111111111111111111111111111",
"111111111111111111nn86xMw111111111111111w11111111111111111111111",
"111111111111111111:89 &-111111111111lDwnl11111111111111111211111",
"1111111111111111111=qe-1111111111111rCzKw111111111111111wnd11111",
"11111111111111111111<:11111111111111<@+@<1111111111111lblu=11111",
"1111111111111111111111111111111111111<;>11111111111111dS8.-11111",
"111111111111111111111111111111111111111111111111111111<oX-111111",
"1111111111111111111111111111111111111111111111111111111111111111",
"11111111111111111111111111111111111111111111111111111111111112FN",
"11111111111111111111111111111111111111111111111111111111111111rC",
"11111111111111111111111111111111111111111111111111111111111111;+",
"111111111111111111111111111111111111111111111111111111111111111>",
"1111111111111111111111111111111111111111111111111111111111111111",
"1111111111111111111111111111111111111111111111111111111111111111",
"1111111111111111111111111111111111111111111111111111111111111111",
"111111111111111111111111111111111111111111111wKw1ww1111111111111",
"111111111111111111111111111wf2vw111111111111wsnClnw1111111111111",
"111111111111111111111111111wKn6ddw1111111111wnp4xo11111111111111",
"111wwwh11111111111111111111wyx9t7-11111111111@i16;11111ww1111111",
"111ZGriwd111111111111111111>8%,OO1111111111111111111wlwFe1111111",
"111tic,c@1111111111111111111<>>111111111111111111111>8nk>1111111",
"11158*<X-11111111111111111111111111111111111111111111Xp$11111111",
"111><=11111111111111111111111111111111111111111111111<<111111111",
"1111111111111111111111111111111111111111111111111111111111111111",
"111111111111111111111111111111111111111111111111111111111111111d",
"1111111111111111111sDw1ww11111111111111111111111111111111111111,",
"11111111111111111112gcwKb11111111111111111111111111111111111111<",
"11111111111111111111-Xgg1111111111111111111111111111111111111111",
"1111111111111111111111OO1111111111111111111111111111111111111111",
"1111111111111111111111111111111111111111111111111111111111111111",
"111111111111111111111111dw11111111111111111111111111111111111111",
"111111111111111111111111FF11111111111111111111111111111111111111",
"111111111111111111111111,ieNm11111111111111111111111111111111qZd",
"1111111111w21w2111111111<oxe3111111111111111111111111111111111nz",
"1111111111MZwMw111111111129-1111111111111111111111111111111111OO",
"1111111111Opr711111111111111111211111111112j2w111111111111111111",
"1111111111>X--1111111111111111wmw11111112fddbKw11111111111111111",
"111111111111111111111111111111lt<11111111ll9Azw11111111111111111",
"111111111111111111111111111111@8z11111111-qq5t<11111111111111111",
"1111111111111111111111111111111::111111111;>-<<11111111111111111",
"11111111111111111111Nb2fj111111<<1111111111111111111111111111111",
"1111111111111111111bJuyk1111111111111111111111111111111111111111",
"1111111111111111111qV48@>11111111111wNj1111111111111111111111111",
"1111111111111111111<:w1<1111111111111ln2111111111111111111111111",
"1111111111111111111111111111111111111-O1111111111111111111111111",
"1111111111111111111111111111111111111111111111111111111111111111",
"1111111111111111111111111111111111111111111111111111111111111111",
"111a111111111111111111111111111111111111111111111111111111111111",
"111bj1111111111111qzw1111111111111111111111111112111111111111111",
"112ql1111111111111<Fnws111111111111111111111111wFw11111111111111",
"11dk#11111111111111:nLv11111ss3w111111111111111hl<11111111111111",
"11;#111111111111111-#0>111wwhwFB111111111111111--111111111111112",
"11111111111111111111<;11113N<dcd211111111111111111111111111111dv",
"1111111111111111111111111111<60q1111111111111111111111111111whd,",
"111111111111111111111111sj211-<>1111111111111111111111111111-6qd",
"111wf11w2111112w11111111sFl1111111111sw1ww1111111111111111fa1-;>",
"112vHdlb211111ql21111111<-,111111111wBNdDs1111111111111111mFw111",
"11wKk$k#111111<:1111111111<111111111lK5ee;1111111111111111;:<111",
"111:k2<>1111111<11sb1wd1111111111111>0dq;111111111111111111><111"
};
